<svg xmlns="http://www.w3.org/2000/svg" width="509" height="168" viewBox="0 0 509 168" fill="none"><path d="M18.125 98.7812C15.7292 98.7812 13.5312 98.4167 11.5312 97.6875C9.53125 96.9375 7.8125 95.8125 6.375 94.3125C4.9375 92.8125 3.82292 90.9271 3.03125 88.6562C2.23958 86.3646 1.84375 83.6771 1.84375 80.5938C1.84375 77.5312 2.25 74.8854 3.0625 72.6562C3.89583 70.4271 5 68.5521 6.375 67.0312C7.75 65.5104 9.45833 64.3438 11.5 63.5312C13.5625 62.6979 15.7708 62.2812 18.125 62.2812C20.0417 62.2812 21.8854 62.5521 23.6562 63.0938C25.4479 63.6354 27.0417 64.2604 28.4375 64.9688V71.5625H28.0938C27.6771 71.2083 27.1354 70.8021 26.4688 70.3438C25.8229 69.8854 25.0312 69.4167 24.0938 68.9375C23.2812 68.5208 22.3229 68.1562 21.2188 67.8438C20.1146 67.5312 19.0521 67.375 18.0312 67.375C14.9896 67.375 12.5417 68.5312 10.6875 70.8438C8.85417 73.1354 7.9375 76.3854 7.9375 80.5938C7.9375 84.7188 8.82292 87.9375 10.5938 90.25C12.3854 92.5417 14.8646 93.6875 18.0312 93.6875C19.9479 93.6875 21.7708 93.2917 23.5 92.5C25.2292 91.7083 26.7604 90.6875 28.0938 89.4375H28.4375V96.0312C27.8542 96.3021 27.125 96.6354 26.25 97.0312C25.375 97.4062 24.5833 97.6875 23.875 97.875C22.875 98.1667 21.9792 98.3854 21.1875 98.5312C20.3958 98.6979 19.375 98.7812 18.125 98.7812ZM52.3125 69.4062H52C51.5625 69.2812 51.0938 69.2083 50.5938 69.1875C50.1146 69.1458 49.5312 69.125 48.8438 69.125C47.2604 69.125 45.6875 69.4688 44.125 70.1562C42.5625 70.8438 41.0833 71.8646 39.6875 73.2188V98H33.8125V63.0938H39.6875V68.2812C41.8333 66.3854 43.6979 65.0521 45.2812 64.2812C46.8854 63.4896 48.4375 63.0938 49.9375 63.0938C50.5417 63.0938 50.9896 63.1146 51.2812 63.1562C51.5938 63.1771 51.9375 63.2188 52.3125 63.2812V69.4062ZM76.375 89.4062V79.7188C74.9792 79.8438 73.2083 80.0208 71.0625 80.25C68.9375 80.4583 67.2188 80.7604 65.9062 81.1562C64.3438 81.6354 63.0521 82.375 62.0312 83.375C61.0104 84.3542 60.5 85.7292 60.5 87.5C60.5 89.5 61.0625 91.0104 62.1875 92.0312C63.3125 93.0521 64.9583 93.5625 67.125 93.5625C68.9792 93.5625 70.6562 93.1667 72.1562 92.375C73.6562 91.5625 75.0625 90.5729 76.375 89.4062ZM76.375 94.2812C75.8958 94.6354 75.25 95.1354 74.4375 95.7812C73.6458 96.4062 72.875 96.9062 72.125 97.2812C71.0833 97.8229 70.0729 98.2396 69.0938 98.5312C68.1354 98.8229 66.7812 98.9688 65.0312 98.9688C63.5938 98.9688 62.2292 98.6979 60.9375 98.1562C59.6458 97.6146 58.5104 96.8542 57.5312 95.875C56.5938 94.9167 55.8438 93.7396 55.2812 92.3438C54.7188 90.9271 54.4375 89.4375 54.4375 87.875C54.4375 85.4583 54.9479 83.4062 55.9688 81.7188C56.9896 80.0104 58.6042 78.6562 60.8125 77.6562C62.7708 76.7604 65.0833 76.1458 67.75 75.8125C70.4167 75.4583 73.2917 75.1979 76.375 75.0312V73.9062C76.375 72.5312 76.1667 71.4271 75.75 70.5938C75.3333 69.7396 74.75 69.0833 74 68.625C73.25 68.1458 72.3333 67.8333 71.25 67.6875C70.1667 67.5208 69.0521 67.4375 67.9062 67.4375C66.5521 67.4375 64.9583 67.6458 63.125 68.0625C61.2917 68.4583 59.4583 69.0417 57.625 69.8125H57.2812V63.8438C58.3646 63.5312 59.9167 63.1875 61.9375 62.8125C63.9583 62.4375 65.9583 62.25 67.9375 62.25C70.3333 62.25 72.3542 62.4375 74 62.8125C75.6458 63.1875 77.125 63.8646 78.4375 64.8438C79.7083 65.8021 80.6562 67.0417 81.2812 68.5625C81.9062 70.0833 82.2188 71.9375 82.2188 74.125V98H76.375V94.2812ZM108.875 55H108.562C108.042 54.8125 107.292 54.6354 106.312 54.4688C105.333 54.2812 104.458 54.1875 103.688 54.1875C101.208 54.1875 99.4375 54.75 98.375 55.875C97.3333 56.9792 96.8125 58.9896 96.8125 61.9062V63.0938H106.531V67.9688H97V98H91.125V67.9688H87.1562V63.0938H91.125V61.9375C91.125 57.7292 92.1354 54.5312 94.1562 52.3438C96.1771 50.1562 99.0729 49.0625 102.844 49.0625C103.927 49.0625 104.99 49.125 106.031 49.25C107.073 49.3542 108.021 49.4792 108.875 49.625V55ZM121.438 98.6875C118.229 98.6875 115.729 97.7812 113.938 95.9688C112.146 94.1354 111.25 91.25 111.25 87.3125V67.9688H107.281V63.0938H111.25V53.0625H117.125V63.0938H127.938V67.9688H117.125V84.5625C117.125 86.3333 117.156 87.6979 117.219 88.6562C117.281 89.6146 117.521 90.5104 117.938 91.3438C118.292 92.0729 118.865 92.625 119.656 93C120.448 93.3542 121.521 93.5312 122.875 93.5312C123.833 93.5312 124.76 93.3958 125.656 93.125C126.552 92.8333 127.198 92.5938 127.594 92.4062H127.938V97.6875C126.833 98 125.708 98.2396 124.562 98.4062C123.438 98.5938 122.396 98.6875 121.438 98.6875ZM179.75 63.0938L160.969 110.875H154.688L160.938 96.3125L148.25 63.0938H154.594L164.125 88.9375L173.625 63.0938H179.75ZM212.906 80.5625C212.906 86.4375 211.49 90.9792 208.656 94.1875C205.823 97.375 202.052 98.9688 197.344 98.9688C192.49 98.9688 188.667 97.3229 185.875 94.0312C183.104 90.7188 181.719 86.2292 181.719 80.5625C181.719 74.7292 183.146 70.1979 186 66.9688C188.875 63.7396 192.656 62.125 197.344 62.125C202.052 62.125 205.823 63.7396 208.656 66.9688C211.49 70.1771 212.906 74.7083 212.906 80.5625ZM206.844 80.5625C206.844 76.0417 206.021 72.6875 204.375 70.5C202.729 68.2917 200.385 67.1875 197.344 67.1875C194.281 67.1875 191.917 68.2917 190.25 70.5C188.604 72.6875 187.781 76.0417 187.781 80.5625C187.781 84.9375 188.604 88.2604 190.25 90.5312C191.917 92.7812 194.281 93.9062 197.344 93.9062C200.365 93.9062 202.698 92.8021 204.344 90.5938C206.01 88.3646 206.844 85.0208 206.844 80.5625ZM246.125 98H240.25V94.125C238.438 95.7083 236.719 96.9167 235.094 97.75C233.469 98.5625 231.656 98.9688 229.656 98.9688C228.135 98.9688 226.698 98.7188 225.344 98.2188C224.01 97.7188 222.844 96.9271 221.844 95.8438C220.844 94.7604 220.062 93.3958 219.5 91.75C218.958 90.1042 218.688 88.1042 218.688 85.75V63.0938H224.562V82.9688C224.562 84.8229 224.625 86.3646 224.75 87.5938C224.896 88.8021 225.208 89.8646 225.688 90.7812C226.167 91.6771 226.812 92.3333 227.625 92.75C228.458 93.1667 229.646 93.375 231.188 93.375C232.625 93.375 234.156 92.9688 235.781 92.1562C237.406 91.3438 238.896 90.3438 240.25 89.1562V63.0938H246.125V98ZM273.125 69.4062H272.812C272.375 69.2812 271.906 69.2083 271.406 69.1875C270.927 69.1458 270.344 69.125 269.656 69.125C268.073 69.125 266.5 69.4688 264.938 70.1562C263.375 70.8438 261.896 71.8646 260.5 73.2188V98H254.625V63.0938H260.5V68.2812C262.646 66.3854 264.51 65.0521 266.094 64.2812C267.698 63.4896 269.25 63.0938 270.75 63.0938C271.354 63.0938 271.802 63.1146 272.094 63.1562C272.406 63.1771 272.75 63.2188 273.125 63.2812V69.4062ZM340 63.0938L331.156 98H325.719L317.188 71.0938L308.719 98H303.312L294.375 63.0938H300.5L306.656 90.125L314.938 63.0938H319.781L328.281 90.125L334.094 63.0938H340ZM360.344 98.8125C354.781 98.8125 350.458 97.25 347.375 94.125C344.312 90.9792 342.781 86.5208 342.781 80.75C342.781 75.0625 344.271 70.5417 347.25 67.1875C350.229 63.8125 354.125 62.125 358.938 62.125C361.104 62.125 363.021 62.4375 364.688 63.0625C366.354 63.6875 367.812 64.6667 369.062 66C370.312 67.3333 371.271 68.9688 371.938 70.9062C372.604 72.8229 372.938 75.1771 372.938 77.9688V81.1562H348.75C348.75 85.2188 349.771 88.3229 351.812 90.4688C353.854 92.6146 356.677 93.6875 360.281 93.6875C361.573 93.6875 362.833 93.5417 364.062 93.25C365.312 92.9583 366.438 92.5833 367.438 92.125C368.5 91.6458 369.396 91.1875 370.125 90.75C370.854 90.2917 371.458 89.8646 371.938 89.4688H372.281V95.875C371.594 96.1458 370.74 96.4896 369.719 96.9062C368.698 97.3021 367.781 97.6146 366.969 97.8438C365.823 98.1562 364.781 98.3958 363.844 98.5625C362.927 98.7292 361.76 98.8125 360.344 98.8125ZM367.219 76.6562C367.177 75.0729 366.99 73.7083 366.656 72.5625C366.323 71.4167 365.844 70.4479 365.219 69.6562C364.531 68.7812 363.646 68.1146 362.562 67.6562C361.5 67.1979 360.177 66.9688 358.594 66.9688C357.031 66.9688 355.698 67.2083 354.594 67.6875C353.51 68.1458 352.521 68.8229 351.625 69.7188C350.75 70.6354 350.083 71.6562 349.625 72.7812C349.167 73.8854 348.875 75.1771 348.75 76.6562H367.219ZM402.094 80.4375C402.094 76.2708 401.458 73.1146 400.188 70.9688C398.917 68.8021 396.875 67.7188 394.062 67.7188C392.458 67.7188 390.833 68.0938 389.188 68.8438C387.562 69.5938 386.083 70.5417 384.75 71.6875V91.6875C386.229 92.4167 387.542 92.9375 388.688 93.25C389.833 93.5417 391.094 93.6875 392.469 93.6875C395.469 93.6875 397.823 92.625 399.531 90.5C401.24 88.375 402.094 85.0208 402.094 80.4375ZM408.156 79.9688C408.156 85.6771 406.771 90.2708 404 93.75C401.229 97.2292 397.76 98.9688 393.594 98.9688C391.698 98.9688 390.073 98.7292 388.719 98.25C387.385 97.7917 386.062 97.1667 384.75 96.375L384.375 98H378.875V49.375H384.75V66.75C386.229 65.4167 387.833 64.3125 389.562 63.4375C391.292 62.5625 393.25 62.125 395.438 62.125C399.375 62.125 402.479 63.7083 404.75 66.875C407.021 70.0208 408.156 74.3854 408.156 79.9688ZM423.688 98.8438C421.354 98.8438 419.167 98.5312 417.125 97.9062C415.104 97.2812 413.427 96.6146 412.094 95.9062V89.3125H412.406C412.906 89.7083 413.49 90.1458 414.156 90.625C414.844 91.1042 415.75 91.6042 416.875 92.125C417.875 92.5833 418.969 92.9896 420.156 93.3438C421.365 93.6979 422.615 93.875 423.906 93.875C424.844 93.875 425.844 93.7708 426.906 93.5625C427.969 93.3333 428.76 93.0521 429.281 92.7188C430.01 92.2396 430.531 91.7292 430.844 91.1875C431.177 90.6458 431.344 89.8333 431.344 88.75C431.344 87.3542 430.958 86.3021 430.188 85.5938C429.438 84.8854 428.094 84.2917 426.156 83.8125C425.406 83.625 424.427 83.4062 423.219 83.1562C422.01 82.9062 420.896 82.6354 419.875 82.3438C417.208 81.5729 415.271 80.3854 414.062 78.7812C412.854 77.1562 412.25 75.1979 412.25 72.9062C412.25 69.7604 413.438 67.1979 415.812 65.2188C418.188 63.2396 421.344 62.25 425.281 62.25C427.219 62.25 429.167 62.4896 431.125 62.9688C433.083 63.4479 434.729 64.0521 436.062 64.7812V71.0625H435.75C434.25 69.875 432.573 68.9375 430.719 68.25C428.885 67.5625 427.031 67.2188 425.156 67.2188C423.219 67.2188 421.583 67.625 420.25 68.4375C418.917 69.25 418.25 70.4792 418.25 72.125C418.25 73.5833 418.646 74.6771 419.438 75.4062C420.229 76.1146 421.5 76.6979 423.25 77.1562C424.125 77.3854 425.094 77.6146 426.156 77.8438C427.24 78.0521 428.375 78.3021 429.562 78.5938C432.146 79.2396 434.083 80.3125 435.375 81.8125C436.688 83.3125 437.344 85.3542 437.344 87.9375C437.344 89.4375 437.042 90.8646 436.438 92.2188C435.854 93.5521 434.99 94.6979 433.844 95.6562C432.594 96.6979 431.177 97.4896 429.594 98.0312C428.031 98.5729 426.062 98.8438 423.688 98.8438ZM448.812 98H442.938V63.0938H448.812V98ZM449.219 57.25H442.531V51.1562H449.219V57.25ZM468 98.6875C464.792 98.6875 462.292 97.7812 460.5 95.9688C458.708 94.1354 457.812 91.25 457.812 87.3125V67.9688H453.844V63.0938H457.812V53.0625H463.688V63.0938H474.5V67.9688H463.688V84.5625C463.688 86.3333 463.719 87.6979 463.781 88.6562C463.844 89.6146 464.083 90.5104 464.5 91.3438C464.854 92.0729 465.427 92.625 466.219 93C467.01 93.3542 468.083 93.5312 469.438 93.5312C470.396 93.5312 471.323 93.3958 472.219 93.125C473.115 92.8333 473.76 92.5938 474.156 92.4062H474.5V97.6875C473.396 98 472.271 98.2396 471.125 98.4062C470 98.5938 468.958 98.6875 468 98.6875ZM494.031 98.8125C488.469 98.8125 484.146 97.25 481.062 94.125C478 90.9792 476.469 86.5208 476.469 80.75C476.469 75.0625 477.958 70.5417 480.938 67.1875C483.917 63.8125 487.812 62.125 492.625 62.125C494.792 62.125 496.708 62.4375 498.375 63.0625C500.042 63.6875 501.5 64.6667 502.75 66C504 67.3333 504.958 68.9688 505.625 70.9062C506.292 72.8229 506.625 75.1771 506.625 77.9688V81.1562H482.438C482.438 85.2188 483.458 88.3229 485.5 90.4688C487.542 92.6146 490.365 93.6875 493.969 93.6875C495.26 93.6875 496.521 93.5417 497.75 93.25C499 92.9583 500.125 92.5833 501.125 92.125C502.188 91.6458 503.083 91.1875 503.812 90.75C504.542 90.2917 505.146 89.8646 505.625 89.4688H505.969V95.875C505.281 96.1458 504.427 96.4896 503.406 96.9062C502.385 97.3021 501.469 97.6146 500.656 97.8438C499.51 98.1562 498.469 98.3958 497.531 98.5625C496.615 98.7292 495.448 98.8125 494.031 98.8125ZM500.906 76.6562C500.865 75.0729 500.677 73.7083 500.344 72.5625C500.01 71.4167 499.531 70.4479 498.906 69.6562C498.219 68.7812 497.333 68.1146 496.25 67.6562C495.188 67.1979 493.865 66.9688 492.281 66.9688C490.719 66.9688 489.385 67.2083 488.281 67.6875C487.198 68.1458 486.208 68.8229 485.312 69.7188C484.438 70.6354 483.771 71.6562 483.312 72.7812C482.854 73.8854 482.562 75.1771 482.438 76.6562H500.906Z" fill="black"></path><path d="M334.5 84C334.5 130.079 294.02 167.5 244 167.5C193.98 167.5 153.5 130.079 153.5 84C153.5 37.9212 193.98 0.5 244 0.5C294.02 0.5 334.5 37.9212 334.5 84Z" stroke="black"></path></svg>