<svg xmlns="http://www.w3.org/2000/svg" width="100" height="29" viewBox="0 0 100 29" fill="none"><path d="M4.50308 8.416C4.50308 9.31298 4.72733 10.1103 5.17582 10.8079C5.64922 11.5056 6.22229 12.116 6.89502 12.6393C7.56776 13.1625 8.47719 13.7979 9.62333 14.5453C10.8691 15.3427 11.8658 16.0403 12.6133 16.6383C13.3607 17.2363 13.9961 17.9713 14.5193 18.8434C15.0426 19.6905 15.3042 20.6747 15.3042 21.7959C15.3042 23.0915 14.9554 24.2501 14.2577 25.2717C13.5601 26.2683 12.5883 27.0532 11.3425 27.6263C10.1217 28.1744 8.75127 28.4485 7.23139 28.4485C6.11017 28.4485 4.93911 28.299 3.71823 28C2.49734 27.6761 1.67511 27.3273 1.25154 26.9535C1.12696 26.8539 1.0273 26.7667 0.95255 26.6919C0.902718 26.5922 0.877802 26.4427 0.877802 26.2434L0.765679 20.3009V20.2636C0.765679 20.1639 0.82797 20.1141 0.95255 20.1141C1.07713 20.0892 1.15188 20.1265 1.17679 20.2262C1.92427 21.7461 2.57209 22.9794 3.12024 23.9262C3.69331 24.873 4.40342 25.7077 5.25057 26.4303C6.12263 27.1529 7.10681 27.5141 8.20311 27.5141C9.19976 27.5141 10.022 27.2525 10.6698 26.7293C11.3176 26.1811 11.6415 25.2592 11.6415 23.9636C11.6415 22.8673 11.3924 21.908 10.894 21.0858C10.4206 20.2636 9.83511 19.5659 9.13747 18.9929C8.43982 18.4198 7.48055 17.7346 6.25966 16.9373C5.0637 16.1649 4.12934 15.5046 3.45661 14.9565C2.80879 14.4083 2.24818 13.748 1.77478 12.9756C1.30137 12.2032 1.06467 11.2938 1.06467 10.2473C1.06467 8.92678 1.43841 7.81801 2.18589 6.92104C2.95829 5.99914 3.94247 5.32641 5.13844 4.90284C6.33441 4.45435 7.59267 4.23011 8.91322 4.23011C9.78528 4.23011 10.6698 4.31731 11.5668 4.49172C12.4638 4.64122 13.1863 4.82809 13.7345 5.05233C13.9587 5.152 14.1082 5.26412 14.183 5.3887C14.2577 5.48837 14.2951 5.6254 14.2951 5.79981V11.2938C14.2951 11.3685 14.2328 11.4308 14.1082 11.4807C13.9836 11.5056 13.9089 11.4807 13.884 11.4059L13.585 10.6958C12.9621 9.12611 12.2271 7.7931 11.3799 6.69679C10.5577 5.60049 9.39908 5.05233 7.90412 5.05233C6.90748 5.05233 6.08525 5.33887 5.43744 5.91194C4.81453 6.48501 4.50308 7.31969 4.50308 8.416ZM35.3609 25.5707C35.4357 25.5707 35.4979 25.633 35.5478 25.7576C35.6225 25.8821 35.6225 25.9569 35.5478 25.9818L30.3902 28.4859C30.3403 28.5108 30.278 28.5232 30.2033 28.5232C29.979 28.5232 29.7673 28.299 29.5679 27.8505C29.3935 27.402 29.2814 26.7916 29.2316 26.0192C28.4093 26.7916 27.5871 27.402 26.7649 27.8505C25.9426 28.2741 25.0332 28.4859 24.0366 28.4859C23.015 28.4859 22.0682 28.2367 21.1961 27.7384C20.349 27.2151 19.6763 26.4552 19.1779 25.4586C18.6796 24.4619 18.4305 23.266 18.4305 21.8707C18.4305 20.1016 18.8416 18.5568 19.6638 17.2363C20.486 15.8908 21.5699 14.8693 22.9154 14.1716C24.2608 13.474 25.7059 13.1251 27.2507 13.1251C28.5962 13.1251 29.8046 13.449 30.876 14.0969C31.4491 13.8477 31.935 13.5238 32.3336 13.1251C32.3585 13.1002 32.3959 13.0878 32.4457 13.0878C32.4956 13.0878 32.5454 13.1127 32.5952 13.1625C32.67 13.1874 32.7074 13.2248 32.7074 13.2746V23.9262C32.7074 24.6737 32.7821 25.2094 32.9316 25.5333C33.106 25.8323 33.3801 25.9818 33.7538 25.9818C34.0777 25.9818 34.5885 25.8448 35.2862 25.5707H35.3609ZM25.9426 26.505C26.9393 26.505 28.0231 26.1064 29.1942 25.3091V24.9353V17.2363C29.1942 16.2645 28.9201 15.4672 28.372 14.8443C27.8487 14.2214 27.1511 13.91 26.279 13.91C25.0332 13.91 24.049 14.5329 23.3265 15.7787C22.6288 17.0245 22.28 18.6316 22.28 20.5999C22.28 22.4686 22.5914 23.9262 23.2143 24.9727C23.8622 25.9943 24.7716 26.505 25.9426 26.505ZM44.3021 28.4485C42.6576 28.4485 41.2623 28.0997 40.1162 27.402C38.995 26.6795 38.1478 25.7576 37.5747 24.6363C37.0266 23.4902 36.7525 22.2942 36.7525 21.0484C36.7525 19.4787 37.1885 18.1083 38.0606 16.9373C38.9327 15.7413 40.0414 14.8319 41.3869 14.209C42.7573 13.5612 44.1526 13.2373 45.5728 13.2373C46.7688 13.2373 47.8401 13.4864 48.787 13.9847C49.7587 14.4831 50.2445 15.1682 50.2445 16.0403C50.2445 16.5137 50.0577 16.9248 49.6839 17.2736C49.3351 17.5976 48.8368 17.7595 48.189 17.7595C47.591 17.7595 47.1176 17.61 46.7688 17.311C46.4199 16.9871 46.1334 16.5013 45.9091 15.8534C45.6849 15.1558 45.4607 14.6824 45.2364 14.4332C45.0371 14.1591 44.6633 14.0221 44.1152 14.0221C43.0438 14.0221 42.1842 14.5578 41.5364 15.6292C40.9135 16.6757 40.602 18.071 40.602 19.8151C40.602 21.8831 41.063 23.54 41.9849 24.7858C42.9068 26.0067 44.3768 26.6172 46.395 26.6172C47.0677 26.6172 47.6408 26.5424 48.1142 26.3929C48.6125 26.2434 49.2354 25.9943 49.9829 25.6454H50.0203C50.095 25.6454 50.1573 25.6828 50.2072 25.7576C50.2819 25.8323 50.2944 25.8946 50.2445 25.9444C49.3226 26.7916 48.4008 27.4269 47.4789 27.8505C46.557 28.2492 45.498 28.4485 44.3021 28.4485ZM69.7839 27.5515C69.8835 27.5515 69.9334 27.6263 69.9334 27.7758C69.9334 27.9253 69.8835 28 69.7839 28C69.136 28 68.6128 27.9875 68.2142 27.9626L66.0465 27.9253L63.804 27.9626C63.4303 27.9875 62.9195 28 62.2717 28C62.2219 28 62.1969 27.9253 62.1969 27.7758C62.1969 27.6263 62.2219 27.5515 62.2717 27.5515C63.0441 27.5515 63.5673 27.3771 63.8414 27.0283C64.1404 26.6545 64.2899 25.9693 64.2899 24.9727V19.5908C64.2899 18.2454 64.0407 17.2487 63.5424 16.6009C63.0441 15.9531 62.2717 15.6292 61.2252 15.6292C60.6272 15.6292 60.0043 15.7538 59.3565 16.0029C58.7336 16.2521 58.1855 16.5885 57.712 17.012V24.9727C57.712 25.9693 57.8491 26.6545 58.1232 27.0283C58.4222 27.3771 58.9579 27.5515 59.7302 27.5515C59.8299 27.5515 59.8797 27.6263 59.8797 27.7758C59.8797 27.9253 59.8299 28 59.7302 28C59.0824 28 58.5592 27.9875 58.1605 27.9626L55.9928 27.9253L53.7504 27.9626C53.3767 27.9875 52.8659 28 52.2181 28C52.1682 28 52.1433 27.9253 52.1433 27.7758C52.1433 27.6263 52.1682 27.5515 52.2181 27.5515C52.9905 27.5515 53.5137 27.3771 53.7878 27.0283C54.0868 26.6545 54.2363 25.9693 54.2363 24.9727V5.98668C54.2363 5.11462 54.1491 4.49172 53.9746 4.11798C53.8251 3.74424 53.5511 3.55737 53.1524 3.55737C52.8036 3.55737 52.3302 3.69441 51.7322 3.96849H51.6948C51.6201 3.96849 51.5453 3.9062 51.4706 3.78162C51.4208 3.63212 51.4208 3.54491 51.4706 3.52L56.9272 0.941189L57.1141 0.903816C57.2386 0.903816 57.3632 0.966106 57.4878 1.09069C57.6373 1.19035 57.712 1.29001 57.712 1.38968V16.1898C59.4811 14.1467 61.3747 13.1251 63.3929 13.1251C64.7384 13.1251 65.7973 13.5612 66.5697 14.4332C67.367 15.2804 67.7657 16.4016 67.7657 17.7969V24.9727C67.7657 25.9693 67.9027 26.6545 68.1768 27.0283C68.4758 27.3771 69.0115 27.5515 69.7839 27.5515ZM75.4942 9.49985C74.7716 9.49985 74.211 9.30052 73.8124 8.90186C73.4137 8.50321 73.2144 7.94259 73.2144 7.22003C73.2144 6.57221 73.4137 6.06143 73.8124 5.68769C74.236 5.28904 74.7966 5.08971 75.4942 5.08971C76.1919 5.08971 76.7276 5.27658 77.1013 5.65032C77.475 6.02406 77.6619 6.5473 77.6619 7.22003C77.6619 7.94259 77.475 8.50321 77.1013 8.90186C76.7276 9.30052 76.1919 9.49985 75.4942 9.49985ZM71.9063 28C71.8316 28 71.7942 27.9253 71.7942 27.7758C71.7942 27.6263 71.8316 27.5515 71.9063 27.5515C72.6787 27.5515 73.2019 27.3771 73.476 27.0283C73.7501 26.6545 73.8871 25.9693 73.8871 24.9727V18.2827C73.8871 17.4356 73.7999 16.8252 73.6255 16.4514C73.4511 16.0777 73.1646 15.8908 72.7659 15.8908C72.442 15.8908 71.9811 16.0278 71.3831 16.3019H71.3457C71.246 16.3019 71.1713 16.2396 71.1214 16.1151C71.0716 15.9656 71.0841 15.8784 71.1588 15.8534L76.8023 13.2373L76.9144 13.1999C77.039 13.1999 77.1636 13.2622 77.2882 13.3867C77.4127 13.5113 77.475 13.6234 77.475 13.7231V14.5453C77.4252 15.542 77.4003 16.7629 77.4003 18.208V24.9727C77.4003 25.9693 77.5373 26.6545 77.8114 27.0283C78.1104 27.3771 78.6461 27.5515 79.4185 27.5515C79.4932 27.5515 79.5306 27.6263 79.5306 27.7758C79.5306 27.9253 79.4932 28 79.4185 28C78.7707 28 78.2599 27.9875 77.8862 27.9626L75.6437 27.9253L73.4386 27.9626C73.0649 27.9875 72.5541 28 71.9063 28ZM99.2901 27.5515C99.3648 27.5515 99.4022 27.6263 99.4022 27.7758C99.4022 27.9253 99.3648 28 99.2901 28C98.6423 28 98.1315 27.9875 97.7578 27.9626L95.5153 27.9253L93.3476 27.9626C92.949 27.9875 92.4257 28 91.7779 28C91.7032 28 91.6658 27.9253 91.6658 27.7758C91.6658 27.6263 91.7032 27.5515 91.7779 27.5515C92.5503 27.5515 93.0735 27.3771 93.3476 27.0283C93.6217 26.6545 93.7587 25.9693 93.7587 24.9727V19.5908C93.7587 18.2454 93.5096 17.2487 93.0113 16.6009C92.5378 15.9531 91.7779 15.6292 90.7314 15.6292C90.1334 15.6292 89.5105 15.7538 88.8627 16.0029C88.2398 16.2521 87.6917 16.5885 87.2183 17.012V24.9727C87.2183 25.9693 87.3553 26.6545 87.6294 27.0283C87.9284 27.3771 88.4641 27.5515 89.2365 27.5515C89.3112 27.5515 89.3486 27.6263 89.3486 27.7758C89.3486 27.9253 89.3112 28 89.2365 28C88.5887 28 88.0779 27.9875 87.7041 27.9626L85.4617 27.9253L83.2566 27.9626C82.8829 27.9875 82.3721 28 81.7243 28C81.6495 28 81.6122 27.9253 81.6122 27.7758C81.6122 27.6263 81.6495 27.5515 81.7243 27.5515C82.4967 27.5515 83.0199 27.3771 83.294 27.0283C83.5681 26.6545 83.7051 25.9693 83.7051 24.9727V17.9464C83.7051 17.174 83.6054 16.6134 83.4061 16.2645C83.2317 15.8908 82.9452 15.7039 82.5465 15.7039C82.1229 15.7039 81.525 15.8783 80.7526 16.2272H80.6778C80.6031 16.2272 80.5408 16.1649 80.4909 16.0403C80.466 15.9157 80.4785 15.841 80.5283 15.8161L85.7233 13.2746C85.8728 13.2248 85.96 13.1999 85.9849 13.1999C86.259 13.1999 86.5206 13.474 86.7698 14.0221C87.0189 14.5453 87.1684 15.2679 87.2183 16.1898C88.9375 14.1467 90.8311 13.1251 92.8991 13.1251C94.2446 13.1251 95.3035 13.5612 96.0759 14.4332C96.8732 15.2804 97.2719 16.4016 97.2719 17.7969V24.9727C97.2719 25.9693 97.4089 26.6545 97.683 27.0283C97.982 27.3771 98.5177 27.5515 99.2901 27.5515Z" fill="white"></path></svg>