<svg xmlns="http://www.w3.org/2000/svg" width="108" height="29" viewBox="0 0 108 29" fill="none"><path d="M15.1387 5.92188L14.8047 11.0898L14.6816 11.125C13.8145 9.82422 12.3379 8.98047 10.252 8.59375C9.5957 8.46484 8.96289 8.40039 8.35352 8.40039C7.75586 8.40039 7.24023 8.45312 6.80664 8.55859C6.38477 8.66406 6.02148 8.81641 5.7168 9.01562C5.07227 9.4375 4.75 9.98828 4.75 10.668C4.75 11.5586 5.03125 12.2266 5.59375 12.6719C6.29688 13.2109 7.46289 13.5918 9.0918 13.8145C10.7207 14.0254 12.0273 14.3184 13.0117 14.6934C13.9961 15.0684 14.8047 15.543 15.4375 16.1172C16.6328 17.1953 17.2305 18.7188 17.2305 20.6875C17.2305 23.2656 16.2578 25.252 14.3125 26.6465C12.6484 27.8418 10.5508 28.4395 8.01953 28.4395C5.98047 28.4395 3.96484 28.0527 1.97266 27.2793C1.31641 27.0215 0.742188 26.7227 0.25 26.3828L0.443359 20.5117L0.513672 20.459C1.9668 22.9668 4.35156 24.2207 7.66797 24.2207C10.0234 24.2207 11.582 23.6523 12.3438 22.5156C12.6016 22.1289 12.7305 21.7012 12.7305 21.2324C12.7305 20.752 12.6543 20.3594 12.502 20.0547C12.3496 19.7383 12.0977 19.4688 11.7461 19.2461C11.0664 18.8008 9.92383 18.502 8.31836 18.3496C6.71289 18.1973 5.40039 17.9102 4.38086 17.4883C3.36133 17.0664 2.54688 16.5449 1.9375 15.9238C0.835938 14.7988 0.285156 13.2285 0.285156 11.2129C0.285156 9.12695 1.01758 7.43945 2.48242 6.15039C3.9707 4.83789 5.97461 4.18164 8.49414 4.18164C11.0254 4.18164 13.2402 4.76172 15.1387 5.92188ZM33.7012 26.9102C32.0371 27.8125 30.5312 28.2637 29.1836 28.2637C27.8359 28.2637 26.6816 28.1406 25.7207 27.8945C24.7598 27.6367 23.9453 27.2617 23.2773 26.7695C21.918 25.7734 21.2383 24.332 21.2383 22.4453C21.2383 20.7578 22.0703 19.3516 23.7344 18.2266C25.5391 17.0078 27.9883 16.3984 31.082 16.3984L31.7852 16.416C31.9258 16.4277 32.084 16.4395 32.2598 16.4512C32.4355 16.4512 32.5938 16.4629 32.7344 16.4863C32.6406 14.6113 31.832 13.5156 30.3086 13.1992C29.8047 13.0938 29.2656 13.041 28.6914 13.041C28.1289 13.041 27.5723 13.0938 27.0215 13.1992C26.4824 13.293 25.9551 13.4219 25.4395 13.5859C24.3027 13.9492 23.4883 14.3652 22.9961 14.834L22.9434 14.7988L22.416 10.9141C24.4902 9.82422 26.7578 9.2793 29.2188 9.2793C33.0391 9.2793 35.4824 10.6562 36.5488 13.4102C36.8887 14.2891 37.0586 15.2793 37.0586 16.3809V22.7441C37.0586 24.1035 37.5391 25.0293 38.5 25.5215L35.3184 28.4395C34.6504 28.0879 34.1113 27.5781 33.7012 26.9102ZM32.752 19.6504C32.4355 19.5918 32.1074 19.5625 31.7676 19.5625H31.0645C28.4746 19.5625 26.8281 20.1367 26.125 21.2852C25.9141 21.625 25.8086 21.9824 25.8086 22.3574C25.8086 22.7324 25.873 23.0664 26.002 23.3594C26.1426 23.6406 26.3711 23.875 26.6875 24.0625C27.2969 24.4141 28.1992 24.5898 29.3945 24.5898C30.6016 24.5898 31.7266 24.3027 32.7695 23.7285C32.7578 23.5996 32.752 23.4648 32.752 23.3242V19.6504ZM56.9219 26.2949C55.6094 27.6074 53.5527 28.2637 50.752 28.2637C48.0332 28.2637 45.8125 27.4375 44.0898 25.7852C42.3438 24.1094 41.4707 21.8828 41.4707 19.1055C41.4707 16.2812 42.332 13.9609 44.0547 12.1445C45.8828 10.2344 48.3262 9.2793 51.3848 9.2793C53.5527 9.2793 55.3691 9.75391 56.834 10.7031L56.1309 15.2031L56.0078 15.1855C55.4453 14.5059 54.8535 14.0605 54.2324 13.8496C53.2246 13.498 52.2168 13.3223 51.209 13.3223C50.2012 13.3223 49.4102 13.4512 48.8359 13.709C48.2617 13.9668 47.7695 14.3242 47.3594 14.7812C46.5391 15.7188 46.1289 16.9609 46.1289 18.5078C46.1289 21.25 47.0781 23.043 48.9766 23.8867C49.6328 24.168 50.3242 24.3086 51.0508 24.3086C51.7891 24.3086 52.4277 24.2441 52.9668 24.1152C53.5176 23.9863 54.0156 23.8105 54.4609 23.5879C55.4102 23.1191 56.0547 22.5742 56.3945 21.9531L56.5176 22.0059L56.9219 26.2949ZM65.3594 26.0312C65.3594 27.0391 65.3828 27.6953 65.4297 28H61.0527V2.86328H65.3594V11.002C66.8711 9.85352 68.4297 9.2793 70.0352 9.2793C72.0039 9.2793 73.5859 9.92969 74.7812 11.2305C75.9531 12.5312 76.5391 14.2539 76.5391 16.3984V23.3945C76.5391 25.375 76.5684 26.5645 76.627 26.9629C76.6855 27.3613 76.7617 27.6191 76.8555 27.7363C76.9609 27.8535 77.0488 27.959 77.1191 28.0527L77.084 28.123C76.1348 28.041 75.4434 28 75.0098 28H73.7617C73.375 28 72.8652 28.0176 72.2324 28.0527V17.875C72.2324 16.2578 71.875 15.0625 71.1602 14.2891C70.6211 13.7031 69.8887 13.4102 68.9629 13.4102C67.5918 13.4102 66.3906 14.2012 65.3594 15.7832V26.0312ZM81.0215 4.39258C81.959 2.92773 82.9375 1.63867 83.957 0.525391L87.7363 3.49609C87.2324 4.11719 86.7637 4.72656 86.3301 5.32422C86.3301 5.32422 85.8789 5.96289 84.9766 7.24023L81.0215 4.39258ZM85.6445 26.0312C85.6445 27.0391 85.668 27.6953 85.7148 28H81.25V9.63086H85.6445V26.0312ZM95.2422 25.75C95.2422 26.7812 95.2891 27.5312 95.3828 28H90.9707V9.63086H95.2422V11.1953C96.7891 9.91797 98.4414 9.2793 100.199 9.2793C102.121 9.2793 103.656 9.93555 104.805 11.248C105.953 12.5488 106.527 14.2656 106.527 16.3984V23.3945C106.527 25.375 106.557 26.5645 106.615 26.9629C106.674 27.3613 106.75 27.6191 106.844 27.7363C106.949 27.8535 107.037 27.959 107.107 28.0527L107.072 28.123C106.123 28.041 105.432 28 104.998 28H103.768C103.393 28 102.889 28.0176 102.256 28.0527V18.4727C102.256 15.0391 101.213 13.3223 99.127 13.3223C97.5801 13.3223 96.2852 14.1191 95.2422 15.7129V25.75Z" fill="#1E1802"></path></svg>