<?xml version="1.0" encoding="UTF-8"?>
<svg xmlns="http://www.w3.org/2000/svg" width="112" height="91" viewBox="0 0 112 91" fill="none">
  <path d="M8.83264 72.2744H2.31907V78.1628C2.09725 78.304 1.7141 78.3645 1.14945 78.3645C0.584811 78.3645 0.221824 78.304 0 78.1628V64.7727C0.221824 64.6315 0.584811 64.571 1.14945 64.571C1.7141 64.571 2.09725 64.6315 2.31907 64.7727V70.2578H8.83264V64.7727C9.05446 64.6315 9.41744 64.571 9.98208 64.571C10.5467 64.571 10.9299 64.6315 11.1517 64.7727V78.1628C10.9299 78.304 10.5467 78.3645 9.98208 78.3645C9.41744 78.3645 9.05446 78.304 8.83264 78.1628V72.2744Z" fill="white"></path>
  <path d="M16.9798 65.539C16.9798 66.4465 16.4151 66.9305 15.5883 66.9305C14.7212 66.9305 14.217 66.4263 14.217 65.5592C14.217 64.6517 14.7817 64.1274 15.6085 64.1274C16.4353 64.1274 16.9798 64.6316 16.9798 65.539ZM14.4792 68.9067C14.701 68.7858 15.0438 68.7252 15.5883 68.7252C16.153 68.7252 16.4958 68.7858 16.7176 68.9067V78.1629C16.4958 78.2838 16.153 78.3444 15.5883 78.3444C15.0438 78.3444 14.701 78.2838 14.4792 78.1629V68.9067Z" fill="white"></path>
  <path d="M20.3877 74.7551C19.6214 74.1904 19.1979 73.3031 19.1979 71.9319C19.1979 69.5926 20.8313 68.4028 23.1504 68.4028C23.9369 68.4028 24.6225 68.544 25.167 68.786H27.9095C28.1112 69.2095 28.1919 69.8346 28.1919 70.4597H26.7399V70.5404C26.9617 70.8026 27.1231 71.2865 27.1231 72.0327C27.1231 74.2308 25.6913 75.5012 23.2109 75.5012C22.7269 75.5012 22.2429 75.4407 21.9203 75.2995C21.6783 75.481 21.5775 75.8037 21.5775 76.0658C21.5775 76.7112 22.3639 76.8523 23.8159 76.8523C26.4173 76.8523 28.3128 77.3565 28.3128 79.8167C28.3128 82.2568 26.3971 83.2651 23.3521 83.2651C20.6297 83.2651 18.6736 82.4584 18.6736 80.3007C18.6736 79.0302 19.3391 78.2639 20.1659 77.9816V77.8606C19.6617 77.5783 19.3996 77.0741 19.3996 76.449C19.3996 75.6625 19.7827 75.0575 20.4078 74.8357V74.7551H20.3877ZM21.6985 78.4857C21.1136 78.7882 20.7708 79.3327 20.7708 79.9377C20.7708 81.1476 22.0413 81.5106 23.5134 81.5106C25.167 81.5106 26.2156 81.0468 26.2156 79.9377C26.2156 79.0302 25.5501 78.6471 23.3117 78.6471C22.4849 78.6672 22.0413 78.6067 21.6985 78.4857ZM23.1706 73.8073C24.4208 73.8073 25.0662 73.0813 25.0662 71.952C25.0662 70.8026 24.3805 70.1371 23.1706 70.1371C21.9001 70.1371 21.275 70.8429 21.275 71.952C21.2548 73.1216 21.9203 73.8073 23.1706 73.8073Z" fill="white"></path>
  <path d="M32.3055 78.1629C32.0837 78.2838 31.7409 78.3443 31.1763 78.3443C30.6318 78.3443 30.289 78.2838 30.0671 78.1629V64.3896C30.5713 64.0871 31.2569 63.9258 32.3055 63.9258V67.3943C32.3055 68.4631 32.2249 69.3101 32.0837 70.0764H32.2047C32.6282 69.1891 33.5155 68.4026 35.3909 68.4026C36.9235 68.4026 38.6981 68.9269 38.6981 72.0929V78.1629C38.4763 78.2838 38.1335 78.3443 37.5688 78.3443C37.0244 78.3443 36.6815 78.2838 36.4597 78.1629V72.5164C36.4597 71.2258 36.0362 70.4393 34.6448 70.4393C33.3945 70.4393 32.7089 71.0443 32.3055 71.73V78.1629Z" fill="white"></path>
  <path d="M43.8003 78.667C42.187 78.667 41.5619 77.6789 41.5619 76.0454V64.3896C42.066 64.0871 42.7517 63.9258 43.8003 63.9258V75.7228C43.8003 76.5093 44.1028 76.6706 44.6069 76.6706C45.0506 76.6706 45.4741 76.5294 45.8169 76.3076C45.9379 76.9932 45.6959 77.8805 45.3531 78.2839C44.9901 78.5057 44.4456 78.667 43.8003 78.667Z" fill="white"></path>
  <path d="M50.0921 65.539C50.0921 66.4465 49.5274 66.9305 48.7006 66.9305C47.8335 66.9305 47.3293 66.4263 47.3293 65.5592C47.3293 64.6517 47.894 64.1274 48.7208 64.1274C49.5476 64.1274 50.0921 64.6316 50.0921 65.539ZM47.5915 68.9067C47.8133 68.7858 48.1562 68.7252 48.7006 68.7252C49.2653 68.7252 49.6081 68.7858 49.8299 68.9067V78.1629C49.6081 78.2838 49.2653 78.3444 48.7006 78.3444C48.1562 78.3444 47.8133 78.2838 47.5915 78.1629V68.9067Z" fill="white"></path>
  <path d="M53.2378 68.7858V67.4952C53.2378 64.5914 54.6494 63.6436 56.6256 63.6436C57.4121 63.6436 58.0776 63.8049 58.5817 64.1275C58.9245 64.5712 59.0657 65.519 58.9245 66.1643C58.2994 65.761 57.7146 65.5996 57.0894 65.5996C55.8391 65.5996 55.456 66.2046 55.456 67.3339V68.7657H57.9162C58.0171 68.9673 58.0776 69.29 58.0776 69.7336C58.0776 70.1773 58.0171 70.5201 57.9162 70.7016H55.456V78.1428C55.2342 78.2638 54.8914 78.3243 54.3267 78.3243C53.7822 78.3243 53.4394 78.2638 53.2176 78.1428V70.7016H51.7455C51.7455 69.9756 51.8463 69.2698 52.048 68.7657H53.2378V68.7858Z" fill="white"></path>
  <path d="M61.1427 74.2509C61.2436 76.0053 62.4132 76.7918 64.4096 76.7918C65.6599 76.7918 66.7085 76.4893 67.4143 76.1062C67.4748 76.7313 67.2127 77.5783 66.8497 77.9614C66.2245 78.3244 65.1759 78.6672 63.8651 78.6672C60.6184 78.6672 58.864 76.7313 58.864 73.6459C58.864 70.5202 60.6789 68.4028 63.6635 68.4028C66.3455 68.4028 67.5958 70.0968 67.5958 72.5167C67.5958 73.1216 67.5152 73.7266 67.3337 74.2509H61.1427ZM65.4179 72.5368C65.5591 71.3672 65.1557 70.1573 63.5626 70.1573C62.1309 70.1573 61.2436 71.1051 61.1629 72.5368H65.4179Z" fill="white"></path>
  <path d="M72.5163 65.539C72.5163 66.4465 71.9516 66.9305 71.1248 66.9305C70.2577 66.9305 69.7535 66.4263 69.7535 65.5592C69.7535 64.6517 70.3182 64.1274 71.145 64.1274C71.9718 64.1274 72.5163 64.6316 72.5163 65.539ZM69.9955 68.9067C70.2174 68.7858 70.5602 68.7252 71.1047 68.7252C71.6693 68.7252 72.0121 68.7858 72.2339 68.9067V78.1629C72.0121 78.2838 71.6693 78.3444 71.1047 78.3444C70.5602 78.3444 70.2174 78.2838 69.9955 78.1629V68.9067Z" fill="white"></path>
  <path d="M77.4972 78.1631C77.2754 78.2841 76.9326 78.3446 76.3679 78.3446C75.8234 78.3446 75.4806 78.2841 75.2588 78.1631V68.9675C75.6823 68.7255 76.3276 68.6247 77.0737 68.6247L77.2149 70.1371H77.3359C77.7795 69.1893 78.7676 68.4028 80.5826 68.4028C82.0748 68.4028 83.8091 68.9271 83.8091 72.0932V78.1631C83.5873 78.2841 83.2445 78.3446 82.6798 78.3446C82.1353 78.3446 81.7925 78.2841 81.5707 78.1631V72.5167C81.5707 71.226 81.1674 70.4396 79.7759 70.4396C78.566 70.4396 77.8804 71.0647 77.4972 71.7302V78.1631Z" fill="white"></path>
  <path d="M92.7024 64.3896C93.2066 64.0871 93.8922 63.9258 94.9408 63.9258V78.1225C94.5174 78.3645 93.9124 78.4653 93.2872 78.4653L92.9847 77.2352H92.8638C92.3193 78.1629 91.2908 78.667 89.9599 78.667C87.4996 78.667 86.0679 76.9126 86.0679 73.8474C86.0679 70.3184 87.9231 68.4026 90.8673 68.4026C91.6538 68.4026 92.2991 68.5438 92.7226 68.7252V64.3896H92.7024ZM92.7226 70.6208C92.3394 70.4192 91.8353 70.3385 91.2908 70.3385C89.1936 70.3385 88.3264 71.73 88.3264 73.7465C88.3264 75.7026 89.1532 76.6303 90.6657 76.6303C91.7143 76.6303 92.2789 76.1866 92.7226 75.7631V70.6208Z" fill="white"></path>
  <path d="M100.466 65.539C100.466 66.4465 99.9014 66.9305 99.0746 66.9305C98.2075 66.9305 97.7034 66.4263 97.7034 65.5592C97.7034 64.6517 98.268 64.1274 99.0948 64.1274C99.9216 64.1274 100.466 64.6316 100.466 65.539ZM97.9453 68.9067C98.1672 68.7858 98.51 68.7252 99.0545 68.7252C99.6191 68.7252 99.9619 68.7858 100.184 68.9067V78.1629C99.9619 78.2838 99.6191 78.3444 99.0545 78.3444C98.51 78.3444 98.1672 78.2838 97.9453 78.1629V68.9067Z" fill="white"></path>
  <path d="M108.311 77.417C107.827 78.2034 106.919 78.6874 105.629 78.6874C103.914 78.6874 102.442 77.8808 102.442 75.7029C102.442 73.3636 104.136 72.4158 106.355 72.4158C107 72.4158 107.645 72.4965 108.21 72.6982V72.3352C108.21 70.9236 107.605 70.3589 106.193 70.3589C105.084 70.3589 104.015 70.6816 103.168 71.1857C102.987 70.6009 103.068 69.5926 103.431 69.0683C104.116 68.6852 105.266 68.4028 106.617 68.4028C109.178 68.4028 110.448 69.391 110.448 72.1537V75.9852C110.448 76.57 110.71 76.7112 111.114 76.7112C111.457 76.7112 111.799 76.5902 111.981 76.449C112.061 77.0338 111.88 77.8808 111.578 78.2841C111.215 78.5261 110.731 78.6672 110.146 78.6672C109.158 78.6672 108.613 78.2236 108.432 77.3968H108.311V77.417ZM108.27 74.3316C107.867 74.1703 107.343 74.0694 106.778 74.0694C105.407 74.0694 104.681 74.6744 104.681 75.5415C104.681 76.4087 105.387 76.7918 106.314 76.7918C107.06 76.7918 107.827 76.5498 108.27 75.9448V74.3316Z" fill="white"></path>
  <path d="M16.5763 86.0276H18.1694C18.3711 86.0276 18.5727 86.0478 18.7744 86.0881C18.976 86.1284 19.1374 86.1889 19.2785 86.2898C19.4197 86.3906 19.5407 86.5116 19.6213 86.6729C19.702 86.8342 19.7423 87.0359 19.7423 87.2779C19.7423 87.5602 19.6617 87.8224 19.5205 88.024C19.3592 88.2257 19.1374 88.3668 18.855 88.4072L19.9037 90.1414H18.8147L17.9476 88.4878H17.5039V90.1414H16.5965V86.0276H16.5763ZM17.4838 87.7215H18.0282C18.1089 87.7215 18.1896 87.7215 18.2904 87.7215C18.3912 87.7215 18.4719 87.7014 18.5324 87.661C18.613 87.6409 18.6735 87.5804 18.7139 87.5199C18.7542 87.4594 18.7945 87.3787 18.7945 87.2577C18.7945 87.1569 18.7744 87.0762 18.734 87.0157C18.6937 86.9552 18.6332 86.9149 18.5727 86.8746C18.5122 86.8342 18.4315 86.8141 18.3509 86.8141C18.2702 86.7939 18.1896 86.7939 18.1089 86.7939H17.5241V87.7215H17.4838Z" fill="#E0B958"></path>
  <path d="M21.5574 86.0276H24.3604V86.8746H22.4648V87.6409H24.2596V88.4878H22.4648V89.3348H24.4613V90.1818H21.5574V86.0276Z" fill="#E0B958"></path>
  <path d="M27.7079 86.0276H28.4541L30.2488 90.1616H29.2204L28.8574 89.2945H27.2441L26.9416 90.1414H25.9333L27.7079 86.0276ZM28.0709 87.2174L27.5668 88.508H28.5751L28.0709 87.2174Z" fill="#E0B958"></path>
  <path d="M31.8822 86.0276H32.7897V89.3146H34.4836V90.1616H31.8822V86.0276Z" fill="#E0B958"></path>
  <path d="M36.1372 86.0276H37.0447V90.1414H36.1372V86.0276Z" fill="#E0B958"></path>
  <path d="M41.0778 87.0358C40.9971 86.9349 40.8963 86.8744 40.7753 86.8341C40.6543 86.7938 40.5333 86.7736 40.4123 86.7736C40.3518 86.7736 40.2711 86.7736 40.2106 86.7938C40.1502 86.814 40.0695 86.8341 40.009 86.8745C39.9485 86.9148 39.888 86.9551 39.8477 87.0156C39.8073 87.0761 39.7872 87.1366 39.7872 87.2173C39.7872 87.3383 39.8275 87.4391 39.9283 87.4996C40.0292 87.5601 40.13 87.6206 40.2711 87.6609C40.4123 87.7013 40.5736 87.7618 40.735 87.8021C40.8963 87.8424 41.0576 87.9231 41.1988 88.0037C41.3399 88.0844 41.4609 88.2054 41.5416 88.3466C41.6424 88.4877 41.6828 88.6894 41.6828 88.9314C41.6828 89.1532 41.6424 89.3549 41.5618 89.5363C41.4811 89.6977 41.3601 89.859 41.2189 89.9598C41.0778 90.0808 40.8963 90.1615 40.7148 90.2018C40.5131 90.2623 40.3115 90.2825 40.1098 90.2825C39.8477 90.2825 39.5855 90.2421 39.3637 90.1615C39.1419 90.0808 38.92 89.9397 38.7184 89.7582L39.3637 89.0524C39.4645 89.1734 39.5653 89.2742 39.7267 89.3347C39.8678 89.3952 40.009 89.4355 40.1703 89.4355C40.251 89.4355 40.3115 89.4355 40.3921 89.4154C40.4728 89.3952 40.5333 89.375 40.5938 89.3347C40.6543 89.2944 40.6946 89.254 40.735 89.1935C40.7753 89.133 40.7955 89.0725 40.7955 88.9919C40.7955 88.8709 40.7551 88.77 40.6543 88.6894C40.5535 88.6087 40.4325 88.5482 40.2913 88.5079C40.1502 88.4474 39.9888 88.4071 39.8275 88.3466C39.6662 88.2861 39.5048 88.2256 39.3637 88.1449C39.2225 88.0642 39.1015 87.9432 39.0007 87.8021C38.8999 87.6609 38.8595 87.4794 38.8595 87.2576C38.8595 87.0358 38.8999 86.8341 39.0007 86.6728C39.0814 86.5115 39.2024 86.3703 39.3435 86.2493C39.4847 86.1283 39.6662 86.0477 39.8477 85.9872C40.0292 85.9267 40.2308 85.9065 40.4325 85.9065C40.6745 85.9065 40.8963 85.9468 41.1181 86.0073C41.3399 86.0678 41.5416 86.1888 41.7029 86.33L41.0778 87.0358Z" fill="#E0B958"></path>
  <path d="M43.538 86.0276H44.4454V90.1414H43.538V86.0276Z" fill="#E0B958"></path>
  <path d="M46.4419 86.0276H47.672L49.4264 88.8911H49.4466V86.0276H50.3541V90.1414H49.1643L47.3695 87.1972H47.3494V90.1414H46.4419V86.0276Z" fill="#E0B958"></path>
  <path d="M56.1014 89.8588C55.8393 90 55.557 90.1008 55.2545 90.1613C54.952 90.2218 54.6697 90.2621 54.3672 90.2621C54.0445 90.2621 53.742 90.2016 53.4799 90.1008C53.2177 90 52.9757 89.8588 52.7741 89.6571C52.5724 89.4756 52.4312 89.2337 52.3102 88.9715C52.2094 88.7094 52.1489 88.4069 52.1489 88.064C52.1489 87.7414 52.2094 87.4389 52.3102 87.1566C52.4111 86.8944 52.5724 86.6524 52.7741 86.4709C52.9757 86.2894 53.1975 86.1281 53.4799 86.0273C53.742 85.9265 54.0445 85.866 54.3672 85.866C54.6898 85.866 54.9923 85.9063 55.2746 85.987C55.557 86.0676 55.7989 86.2088 56.0006 86.3903L55.3553 87.0961C55.2343 86.9751 55.0931 86.8743 54.9318 86.8138C54.7705 86.7533 54.589 86.7129 54.347 86.7129C54.1453 86.7129 53.984 86.7533 53.8227 86.8138C53.6614 86.8743 53.5202 86.9751 53.4194 87.0961C53.2984 87.2171 53.2177 87.3582 53.1572 87.5196C53.0967 87.6809 53.0765 87.8624 53.0765 88.0439C53.0765 88.2455 53.0967 88.4069 53.1572 88.5682C53.2177 88.7295 53.2984 88.8707 53.4194 88.9917C53.5404 89.1127 53.6614 89.1933 53.8227 89.274C53.984 89.3345 54.1655 89.3748 54.347 89.3748C54.5487 89.3748 54.71 89.3547 54.8512 89.3143C54.9923 89.274 55.1133 89.2337 55.194 89.1732V88.5279H54.4478V87.6809H56.0611V89.8588H56.1014Z" fill="#E0B958"></path>
  <path d="M60.9613 86.0276H62.3326C62.6552 86.0276 62.9779 86.0679 63.2804 86.1284C63.5829 86.2091 63.845 86.3301 64.0668 86.4914C64.2887 86.6527 64.4702 86.8746 64.5912 87.1367C64.7121 87.3989 64.7928 87.7215 64.7928 88.1047C64.7928 88.4475 64.7323 88.7298 64.6113 88.992C64.4903 89.2541 64.3088 89.4558 64.1072 89.6373C63.8853 89.8188 63.6434 89.9398 63.361 90.0406C63.0787 90.1213 62.7964 90.1818 62.4737 90.1818H60.9815V86.0276H60.9613ZM61.8688 89.3146H62.3326C62.5342 89.3146 62.7359 89.2945 62.9174 89.2541C63.0989 89.2138 63.2602 89.1331 63.3812 89.0323C63.5224 88.9315 63.6232 88.8105 63.6837 88.6491C63.7644 88.4878 63.8047 88.2862 63.8047 88.0643C63.8047 87.8627 63.7644 87.6812 63.6837 87.54C63.603 87.3989 63.5022 87.2577 63.3812 87.177C63.2602 87.0762 63.0989 87.0157 62.9376 86.9552C62.7561 86.9149 62.5746 86.8746 62.3931 86.8746H61.8486V89.3146H61.8688Z" fill="#E0B958"></path>
  <path d="M66.5472 86.0276H68.1403C68.342 86.0276 68.5437 86.0478 68.7453 86.0881C68.947 86.1284 69.1083 86.1889 69.2495 86.2898C69.3906 86.3906 69.5116 86.5116 69.5923 86.6729C69.6729 86.8342 69.7133 87.0359 69.7133 87.2779C69.7133 87.5602 69.6326 87.8224 69.4914 88.024C69.3301 88.2257 69.1083 88.3668 68.826 88.4072L69.8746 90.1414H68.7856L67.9185 88.4878H67.4749V90.1414H66.5674V86.0276H66.5472ZM67.4547 87.7215H67.9992C68.0798 87.7215 68.1605 87.7215 68.2613 87.7215C68.3622 87.7215 68.4428 87.7014 68.5033 87.661C68.584 87.6409 68.6445 87.5804 68.6848 87.5199C68.7251 87.4594 68.7655 87.3787 68.7655 87.2577C68.7655 87.1569 68.7453 87.0762 68.705 87.0157C68.6646 86.9552 68.6041 86.9149 68.5437 86.8746C68.4832 86.8342 68.4025 86.8141 68.3218 86.8141C68.2412 86.7939 68.1605 86.7939 68.0798 86.7939H67.495V87.7215H67.4547Z" fill="#E0B958"></path>
  <path d="M71.5282 86.0276H74.3313V86.8746H72.4357V87.6409H74.2304V88.4878H72.4357V89.3348H74.4321V90.1818H71.5282V86.0276Z" fill="#E0B958"></path>
  <path d="M77.699 86.0276H78.4451L80.2398 90.1616H79.2114L78.8484 89.2945H77.2351L76.8923 90.1616H75.884L77.699 86.0276ZM78.0418 87.2174L77.5376 88.508H78.5459L78.0418 87.2174Z" fill="#E0B958"></path>
  <path d="M81.8128 86.0276H83.184L84.1318 88.7298H84.152L85.0998 86.0276H86.4711V90.1414H85.5636V86.9754H85.5434L84.4545 90.1414H83.7689L82.7202 86.9754H82.7001V90.1414H81.7926V86.0276H81.8128Z" fill="#E0B958"></path>
  <path d="M90.5244 87.0358C90.4438 86.9349 90.343 86.8744 90.222 86.8341C90.101 86.7938 89.98 86.7736 89.859 86.7736C89.7985 86.7736 89.7178 86.7736 89.6573 86.7938C89.5968 86.814 89.5162 86.8341 89.4557 86.8745C89.3952 86.9148 89.3347 86.9551 89.2943 87.0156C89.254 87.0761 89.2338 87.1366 89.2338 87.2173C89.2338 87.3383 89.2742 87.4391 89.375 87.4996C89.4758 87.5601 89.5766 87.6206 89.7178 87.6609C89.859 87.7013 90.0203 87.7618 90.1816 87.8021C90.3429 87.8424 90.5043 87.9231 90.6454 88.0037C90.7866 88.0844 90.9076 88.2054 90.9883 88.3466C91.0891 88.4877 91.1294 88.6894 91.1294 88.9314C91.1294 89.1532 91.0891 89.3549 91.0084 89.5363C90.9278 89.6977 90.8068 89.859 90.6656 89.9598C90.5244 90.0808 90.343 90.1615 90.1615 90.2018C89.98 90.2421 89.7581 90.2825 89.5565 90.2825C89.2943 90.2825 89.0322 90.2421 88.8103 90.1615C88.5885 90.0808 88.3667 89.9397 88.165 89.7582L88.8103 89.0524C88.9112 89.1734 89.012 89.2742 89.1532 89.3347C89.2943 89.3952 89.4355 89.4355 89.5968 89.4355C89.6775 89.4355 89.738 89.4355 89.8186 89.4154C89.8993 89.3952 89.9598 89.375 90.0203 89.3347C90.0808 89.2944 90.1211 89.254 90.1615 89.1935C90.2018 89.133 90.222 89.0725 90.222 88.9919C90.222 88.8709 90.1816 88.77 90.0808 88.6894C89.98 88.6087 89.859 88.5482 89.7178 88.5079C89.5766 88.4474 89.4153 88.4071 89.254 88.3466C89.0927 88.2861 88.9313 88.2256 88.7902 88.1449C88.649 88.0642 88.528 87.9432 88.4272 87.8021C88.3264 87.6609 88.286 87.4794 88.286 87.2576C88.286 87.0358 88.3264 86.8341 88.4272 86.6728C88.5079 86.5115 88.6289 86.3703 88.77 86.2493C88.9112 86.1283 89.0927 86.0477 89.2742 85.9872C89.4557 85.9267 89.6573 85.9065 89.859 85.9065C90.101 85.9065 90.3228 85.9468 90.5446 86.0073C90.7664 86.0678 90.9681 86.1888 91.1294 86.33L90.5244 87.0358Z" fill="#E0B958"></path>
  <path d="M54.6494 0.262153L54.4074 0L54.1452 0.241992C54.1049 0.282324 52.9756 1.35111 52.3908 3.1257C51.443 6.11025 52.7941 8.71164 54.1049 10.3854L54.3671 10.7081L54.6494 10.3854C54.6897 10.3249 55.7988 9.07462 56.3836 7.17904C56.908 5.44478 57.0491 2.82321 54.6494 0.262153ZM55.7182 6.97738C55.3552 8.16716 54.7502 9.11496 54.4074 9.59894C52.895 7.52186 52.4311 5.42461 53.0764 3.38786C53.4394 2.25857 54.0444 1.43178 54.3872 1.02846C55.9198 2.80305 56.3635 4.79947 55.7182 6.97738Z" fill="url(#paint0_linear_147_6)"></path>
  <path d="M56.5853 14.5798L57.0088 14.5597C57.0895 14.5597 58.7632 14.4387 60.4773 13.4909C62.0906 12.6036 64.0265 10.829 64.1072 7.32015V6.97733H63.7644C63.7039 6.97733 62.1511 6.937 60.4975 7.82429C57.7146 9.27623 56.8677 12.0994 56.6257 14.1967L56.5853 14.5798ZM60.8 8.42927C61.8486 7.86462 62.8569 7.72347 63.3812 7.68313C63.2199 10.0224 62.1309 11.7566 60.1547 12.8657C59.0657 13.4707 57.9768 13.7127 57.392 13.8135C57.7751 11.2323 58.9044 9.43756 60.8 8.42927Z" fill="url(#paint1_linear_147_6)"></path>
  <path d="M74.8757 31.8418C73.4036 29.0791 70.5804 28.2321 68.4831 28.0103L68.0597 27.97V28.0103H56.303V28.7161H68.1202C68.2008 29.3009 68.463 30.5714 69.1688 31.862C70.0561 33.4551 71.8508 35.391 75.3597 35.4717H75.7025V35.1288C75.7428 35.0482 75.763 33.4954 74.8757 31.8418ZM69.8343 31.5393C69.2293 30.4504 68.9671 29.3614 68.8865 28.7766C71.4475 29.1396 73.2423 30.2689 74.2707 32.1645C74.8354 33.2131 74.9967 34.2214 75.037 34.7457C72.6776 34.5844 70.9232 33.5156 69.8343 31.5393Z" fill="url(#paint2_linear_147_6)"></path>
  <path d="M62.1712 32.0234L62.0099 32.0032L61.7074 31.9629V32.0032H58.5615V32.709H61.7679C61.8486 33.2938 62.1107 34.5643 62.8165 35.8549C63.7038 37.448 65.4986 39.3839 69.0074 39.4646H69.3502V39.1218C69.3502 39.0613 69.3704 37.5085 68.5033 35.8549C67.0513 33.1123 64.2685 32.2452 62.1712 32.0234ZM63.4618 35.5322C62.8568 34.4433 62.5947 33.3543 62.514 32.7695C65.0751 33.1325 66.8698 34.2618 67.8983 36.1574C68.4629 37.206 68.6243 38.2143 68.6646 38.7386C66.3052 38.5974 64.5709 37.5287 63.4618 35.5322Z" fill="url(#paint3_linear_147_6)"></path>
  <path d="M63.825 44.6471H64.1678V44.3042C64.1678 44.2437 64.188 42.691 63.3208 41.0374C61.8487 38.2747 59.0255 37.4277 56.9283 37.2059L56.5048 37.1655L56.5451 37.589C56.5451 37.6697 56.6863 39.3434 57.6341 41.0575C58.5415 42.6506 60.3363 44.5866 63.825 44.6471ZM62.6957 41.3399C63.2603 42.3885 63.4216 43.3968 63.462 43.9211C61.1227 43.7799 59.3683 42.691 58.2794 40.7147C57.6744 39.6258 57.4122 38.5368 57.3316 37.952C59.8725 38.3352 61.6874 39.4644 62.6957 41.3399Z" fill="url(#paint4_linear_147_6)"></path>
  <path d="M59.0052 19.7424V20.4483H61.7881V20.4684L62.0301 20.4483H62.1914V20.4281H62.2116C62.2923 20.4281 63.966 20.3071 65.6801 19.3593C67.2934 18.472 69.2293 16.6974 69.31 13.1886V12.8457H68.9672C68.9067 12.8457 67.3539 12.8054 65.7003 13.6927C63.0586 15.0841 62.1511 17.7057 61.8688 19.7626H59.0052V19.7424ZM65.9826 14.3178C67.0312 13.7532 68.0395 13.612 68.5639 13.5717C68.4025 15.9109 67.3136 17.6452 65.3373 18.7543C64.2484 19.3593 63.1594 19.6013 62.5746 19.7021C62.9578 17.1209 64.1072 15.3261 65.9826 14.3178Z" fill="url(#paint5_linear_147_6)"></path>
  <path d="M56.3231 23.8361V24.5419H68.1403V24.562L68.5638 24.5419C68.6444 24.5419 70.3182 24.4209 72.0323 23.4731C73.6456 22.5858 75.5815 20.8112 75.6621 17.3023V16.9595H75.3193C75.2588 16.9595 73.7061 16.9192 72.0525 17.8065C69.4107 19.1979 68.5033 21.8195 68.221 23.8764H56.3231V23.8361ZM72.355 18.4114C73.4036 17.8468 74.4119 17.7056 74.9362 17.6653C74.7749 20.0045 73.6859 21.7388 71.7096 22.8479C70.6207 23.4529 69.5317 23.6949 68.9469 23.7957C69.3301 21.2145 70.4594 19.4197 72.355 18.4114Z" fill="url(#paint6_linear_147_6)"></path>
  <path d="M48.2569 13.4912C49.971 14.439 51.665 14.56 51.7254 14.56L52.1489 14.5801L52.1086 14.1567C51.8868 12.0594 51.0196 9.25637 48.2368 7.78426C46.5832 6.91713 45.0304 6.9373 44.9699 6.9373H44.6271V7.28012C44.7077 10.8091 46.6437 12.6039 48.2569 13.4912ZM47.9141 8.4094C49.8097 9.4177 50.9591 11.2125 51.3423 13.7937C50.7575 13.6928 49.6887 13.4509 48.5997 12.866C46.6033 11.7771 45.5144 10.0227 45.353 7.68343C45.8572 7.72377 46.8655 7.86493 47.9141 8.4094Z" fill="url(#paint7_linear_147_6)"></path>
  <path d="M43.054 13.6927C41.4004 12.8256 39.8477 12.8457 39.7872 12.8457H39.4443V13.1886C39.525 16.6772 41.4609 18.472 43.0742 19.3593C44.7883 20.3071 46.4822 20.4281 46.5427 20.4281H46.5629V20.4483H46.7242L46.9662 20.4684V20.4483H52.9958V19.7425H46.8855C46.6032 17.6855 45.6957 15.0841 43.054 13.6927ZM43.417 18.7543C41.4206 17.6654 40.3316 15.9109 40.1703 13.5717C40.6946 13.612 41.6827 13.7734 42.7314 14.3178C44.627 15.3261 45.7764 17.1209 46.1596 19.7021C45.5747 19.6013 44.4858 19.3593 43.417 18.7543Z" fill="url(#paint8_linear_147_6)"></path>
  <path d="M36.6816 17.766C35.028 16.8988 33.4752 16.919 33.4147 16.919H33.0719V17.2618C33.1526 20.7505 35.0885 22.5453 36.7017 23.4326C38.4158 24.3803 40.1098 24.5013 40.1703 24.5013L40.5938 24.5215V24.5013H52.9756V23.7955H40.5131C40.2308 21.779 39.3233 19.1574 36.6816 17.766ZM37.0446 22.8477C35.0481 21.7588 33.9592 20.0044 33.7979 17.6651C34.3222 17.7055 35.3103 17.8668 36.3589 18.4113C38.2545 19.4195 39.404 21.2143 39.7871 23.7955C39.2023 23.6745 38.1335 23.4325 37.0446 22.8477Z" fill="url(#paint9_linear_147_6)"></path>
  <path d="M40.6544 27.97L40.2309 28.0103C38.1337 28.2321 35.3104 29.0791 33.8383 31.8418C32.951 33.4954 32.9712 35.0482 32.9914 35.1087V35.4515H33.3342C36.8229 35.3708 38.6378 33.4551 39.5251 31.8418C40.2511 30.5512 40.493 29.2807 40.5737 28.6959H52.9555V27.9901H40.6544V27.97ZM38.8999 31.5393C37.7908 33.5156 36.0566 34.5844 33.7173 34.7457C33.7577 34.2214 33.919 33.2131 34.4836 32.1645C35.4919 30.289 37.3068 29.1598 39.8679 28.7766C39.7671 29.3614 39.5251 30.4504 38.8999 31.5393Z" fill="url(#paint10_linear_147_6)"></path>
  <path d="M45.8975 35.8549C46.6235 34.5643 46.8655 33.2938 46.9462 32.709H50.1525V32.0032H47.0067V31.9629L46.7042 32.0032H46.5428V32.0234C44.4456 32.2452 41.6627 33.0922 40.2108 35.8549C39.3235 37.5085 39.3436 39.0613 39.3638 39.1218V39.4646H39.7066C43.2155 39.3839 45.0102 37.4682 45.8975 35.8549ZM40.0898 38.7386C40.1301 38.2143 40.2914 37.206 40.8561 36.1574C41.8644 34.282 43.6793 33.1527 46.2404 32.7695C46.1395 33.3543 45.8975 34.4433 45.2926 35.5322C44.1633 37.5287 42.429 38.5974 40.0898 38.7386Z" fill="url(#paint11_linear_147_6)"></path>
  <path d="M45.3933 41.0375C44.506 42.6911 44.5261 44.2439 44.5463 44.3044V44.6472H44.8891C48.3778 44.5665 50.1927 42.6508 51.08 41.0375C52.0278 39.3234 52.169 37.6496 52.169 37.569L52.2093 37.1455L51.7858 37.1858C49.6886 37.4278 46.8855 38.2748 45.3933 41.0375ZM50.4549 40.735C49.3458 42.7113 47.6115 43.7801 45.2723 43.9414C45.3126 43.4171 45.4739 42.4088 46.0386 41.3602C47.0469 39.4847 48.8618 38.3555 51.4228 37.9723C51.322 38.5571 51.0599 39.6461 50.4549 40.735Z" fill="url(#paint12_linear_147_6)"></path>
  <path d="M51.4834 50.9388C51.4229 51.1405 51.1204 52.2698 50.2129 53.4394C48.882 55.1737 46.9461 56.2021 44.4858 56.5248L44.5665 57.2306C47.8939 56.8071 49.7895 55.1535 50.7776 53.8629C51.8665 52.4311 52.1488 51.1203 52.169 51.08V51.0397V42.9128H51.4632V50.9388H51.4834Z" fill="url(#paint13_linear_147_6)"></path>
  <path d="M58.501 53.4798C57.5936 52.2901 57.2709 51.1809 57.2306 50.9793V42.9331H56.5248V51.0599V51.1003C56.5449 51.1608 56.8273 52.4715 57.9162 53.8832C58.9245 55.1939 60.7999 56.8475 64.1273 57.2508L64.208 56.545C61.7679 56.2627 59.832 55.2141 58.501 53.4798Z" fill="url(#paint14_linear_147_6)"></path>
  <path d="M54.8915 57.0695H53.984V36.823H54.8915V57.0695ZM54.1857 56.8678H54.6898V37.0247H54.1857V56.8678Z" fill="url(#paint15_linear_147_6)"></path>
  <path d="M54.4679 35.4113C52.774 35.4113 51.3826 34.2417 51.3826 32.7898C51.3826 31.5798 52.3707 30.5312 53.742 30.2489L53.7621 22.8279H53.4193V21.7792H53.7621L53.7823 15.9312H54.9317V17.1814H56.424V18.2099H57.0088V17.1814H58.1583V18.4115H57.6541V19.4198H58.1179V20.7911H57.0492V19.8433H56.4644V21.0129H54.9721V21.7591H55.3552V22.8279H54.9721L55.0326 30.2086C56.5047 30.4304 57.5533 31.4992 57.5533 32.7696C57.5735 34.2417 56.182 35.4113 54.4679 35.4113ZM53.6411 22.6464H53.984L53.9638 30.4304L53.8831 30.4505C52.5723 30.6925 51.6044 31.6807 51.6044 32.81C51.6044 34.1409 52.895 35.2299 54.4881 35.2299C56.0812 35.2299 57.3718 34.1409 57.3718 32.81C57.3718 31.6202 56.3434 30.6119 54.9519 30.4304L54.8713 30.4102L54.8108 22.6464H55.1939V21.9809H54.7704V20.8314H56.2627V19.6618H57.2508V20.6096H57.9163V19.6417H57.4525V18.2301H57.9566V17.4033H57.2105V18.4317H56.2224V17.4033H54.7301V16.153H53.984L53.9638 22.0011H53.621V22.6464H53.6411ZM55.3351 34.2216C55.0326 34.2216 54.7503 34.1409 54.5083 33.9594C54.2864 34.1207 54.0041 34.2014 53.742 34.2014C52.9757 34.2014 52.3505 33.5763 52.3505 32.81C52.3505 32.0437 52.9757 31.4185 53.742 31.4185C54.0243 31.4185 54.2864 31.4992 54.5083 31.6605C54.7503 31.4992 55.0326 31.3983 55.3351 31.3983C56.1215 31.3983 56.7668 32.0436 56.7668 32.8301C56.7668 33.6166 56.1014 34.2216 55.3351 34.2216ZM54.5083 33.6972L54.5688 33.7376C54.7906 33.9191 55.0527 33.9997 55.3149 33.9997C55.9804 33.9997 56.545 33.4553 56.545 32.7696C56.545 32.084 56.0005 31.5395 55.3149 31.5395C55.0326 31.5395 54.7704 31.6403 54.5688 31.8017L54.5083 31.842L54.4478 31.8017C54.2461 31.6403 53.984 31.5597 53.7218 31.5597C53.0563 31.5597 52.532 32.1041 52.532 32.7495C52.532 33.3948 53.0765 33.9392 53.7218 33.9392C53.984 33.9392 54.226 33.8586 54.4478 33.6972H54.5083Z" fill="url(#paint16_linear_147_6)"></path>
  <defs>
    <linearGradient id="paint0_linear_147_6" x1="51.7069" y1="8.03977" x2="57.0814" y2="2.66524" gradientUnits="userSpaceOnUse">
      <stop stop-color="#BE8B37"></stop>
      <stop offset="0.047715" stop-color="#B88636"></stop>
      <stop offset="0.129" stop-color="#B28135"></stop>
      <stop offset="0.2688" stop-color="#E5C167"></stop>
      <stop offset="0.5376" stop-color="#E4BF68"></stop>
      <stop offset="0.7151" stop-color="#B08133"></stop>
      <stop offset="0.8441" stop-color="#8C5F25"></stop>
      <stop offset="1" stop-color="#B4853A"></stop>
    </linearGradient>
    <linearGradient id="paint1_linear_147_6" x1="56.5621" y1="14.5583" x2="64.1387" y2="6.98169" gradientUnits="userSpaceOnUse">
      <stop stop-color="#BE8B37"></stop>
      <stop offset="0.047715" stop-color="#B88636"></stop>
      <stop offset="0.129" stop-color="#B28135"></stop>
      <stop offset="0.2688" stop-color="#E5C167"></stop>
      <stop offset="0.5376" stop-color="#E4BF68"></stop>
      <stop offset="0.7151" stop-color="#B08133"></stop>
      <stop offset="0.8441" stop-color="#8C5F25"></stop>
      <stop offset="1" stop-color="#B4853A"></stop>
    </linearGradient>
    <linearGradient id="paint2_linear_147_6" x1="62.6877" y1="35.0737" x2="70.6085" y2="27.1529" gradientUnits="userSpaceOnUse">
      <stop stop-color="#BE8B37"></stop>
      <stop offset="0.047715" stop-color="#B88636"></stop>
      <stop offset="0.129" stop-color="#B28135"></stop>
      <stop offset="0.2688" stop-color="#E5C167"></stop>
      <stop offset="0.5376" stop-color="#E4BF68"></stop>
      <stop offset="0.7151" stop-color="#B08133"></stop>
      <stop offset="0.8441" stop-color="#8C5F25"></stop>
      <stop offset="1" stop-color="#B4853A"></stop>
    </linearGradient>
    <linearGradient id="paint3_linear_147_6" x1="62.7761" y1="36.9303" x2="66.3946" y2="33.3117" gradientUnits="userSpaceOnUse">
      <stop stop-color="#BE8B37"></stop>
      <stop offset="0.047715" stop-color="#B88636"></stop>
      <stop offset="0.129" stop-color="#B28135"></stop>
      <stop offset="0.2688" stop-color="#E5C167"></stop>
      <stop offset="0.5376" stop-color="#E4BF68"></stop>
      <stop offset="0.7151" stop-color="#B08133"></stop>
      <stop offset="0.8441" stop-color="#8C5F25"></stop>
      <stop offset="1" stop-color="#B4853A"></stop>
    </linearGradient>
    <linearGradient id="paint4_linear_147_6" x1="58.7236" y1="42.5396" x2="61.9868" y2="39.2764" gradientUnits="userSpaceOnUse">
      <stop stop-color="#BE8B37"></stop>
      <stop offset="0.047715" stop-color="#B88636"></stop>
      <stop offset="0.129" stop-color="#B28135"></stop>
      <stop offset="0.2688" stop-color="#E5C167"></stop>
      <stop offset="0.5376" stop-color="#E4BF68"></stop>
      <stop offset="0.7151" stop-color="#B08133"></stop>
      <stop offset="0.8441" stop-color="#8C5F25"></stop>
      <stop offset="1" stop-color="#B4853A"></stop>
    </linearGradient>
    <linearGradient id="paint5_linear_147_6" x1="60.3209" y1="21.7843" x2="69.2774" y2="12.8278" gradientUnits="userSpaceOnUse">
      <stop stop-color="#BE8B37"></stop>
      <stop offset="0.047715" stop-color="#B88636"></stop>
      <stop offset="0.129" stop-color="#B28135"></stop>
      <stop offset="0.2688" stop-color="#E5C167"></stop>
      <stop offset="0.5376" stop-color="#E4BF68"></stop>
      <stop offset="0.7151" stop-color="#B08133"></stop>
      <stop offset="0.8441" stop-color="#8C5F25"></stop>
      <stop offset="1" stop-color="#B4853A"></stop>
    </linearGradient>
    <linearGradient id="paint6_linear_147_6" x1="59.9083" y1="28.1296" x2="73.3832" y2="14.6547" gradientUnits="userSpaceOnUse">
      <stop stop-color="#BE8B37"></stop>
      <stop offset="0.047715" stop-color="#B88636"></stop>
      <stop offset="0.129" stop-color="#B28135"></stop>
      <stop offset="0.2688" stop-color="#E5C167"></stop>
      <stop offset="0.5376" stop-color="#E4BF68"></stop>
      <stop offset="0.7151" stop-color="#B08133"></stop>
      <stop offset="0.8441" stop-color="#8C5F25"></stop>
      <stop offset="1" stop-color="#B4853A"></stop>
    </linearGradient>
    <linearGradient id="paint7_linear_147_6" x1="46.7523" y1="12.4018" x2="50.0154" y2="9.13874" gradientUnits="userSpaceOnUse">
      <stop stop-color="#BE8B37"></stop>
      <stop offset="0.047715" stop-color="#B88636"></stop>
      <stop offset="0.129" stop-color="#B28135"></stop>
      <stop offset="0.2688" stop-color="#E5C167"></stop>
      <stop offset="0.5376" stop-color="#E4BF68"></stop>
      <stop offset="0.7151" stop-color="#B08133"></stop>
      <stop offset="0.8441" stop-color="#8C5F25"></stop>
      <stop offset="1" stop-color="#B4853A"></stop>
    </linearGradient>
    <linearGradient id="paint8_linear_147_6" x1="43.0671" y1="19.7965" x2="48.048" y2="14.8156" gradientUnits="userSpaceOnUse">
      <stop stop-color="#BE8B37"></stop>
      <stop offset="0.047715" stop-color="#B88636"></stop>
      <stop offset="0.129" stop-color="#B28135"></stop>
      <stop offset="0.2688" stop-color="#E5C167"></stop>
      <stop offset="0.5376" stop-color="#E4BF68"></stop>
      <stop offset="0.7151" stop-color="#B08133"></stop>
      <stop offset="0.8441" stop-color="#8C5F25"></stop>
      <stop offset="1" stop-color="#B4853A"></stop>
    </linearGradient>
    <linearGradient id="paint9_linear_147_6" x1="38.2933" y1="25.4737" x2="46.4567" y2="17.3103" gradientUnits="userSpaceOnUse">
      <stop stop-color="#BE8B37"></stop>
      <stop offset="0.047715" stop-color="#B88636"></stop>
      <stop offset="0.129" stop-color="#B28135"></stop>
      <stop offset="0.2688" stop-color="#E5C167"></stop>
      <stop offset="0.5376" stop-color="#E4BF68"></stop>
      <stop offset="0.7151" stop-color="#B08133"></stop>
      <stop offset="0.8441" stop-color="#8C5F25"></stop>
      <stop offset="1" stop-color="#B4853A"></stop>
    </linearGradient>
    <linearGradient id="paint10_linear_147_6" x1="35.5117" y1="37.9744" x2="49.2339" y2="24.2522" gradientUnits="userSpaceOnUse">
      <stop stop-color="#BE8B37"></stop>
      <stop offset="0.047715" stop-color="#B88636"></stop>
      <stop offset="0.129" stop-color="#B28135"></stop>
      <stop offset="0.2688" stop-color="#E5C167"></stop>
      <stop offset="0.5376" stop-color="#E4BF68"></stop>
      <stop offset="0.7151" stop-color="#B08133"></stop>
      <stop offset="0.8441" stop-color="#8C5F25"></stop>
      <stop offset="1" stop-color="#B4853A"></stop>
    </linearGradient>
    <linearGradient id="paint11_linear_147_6" x1="39.5823" y1="39.6876" x2="48.7155" y2="30.5544" gradientUnits="userSpaceOnUse">
      <stop stop-color="#BE8B37"></stop>
      <stop offset="0.047715" stop-color="#B88636"></stop>
      <stop offset="0.129" stop-color="#B28135"></stop>
      <stop offset="0.2688" stop-color="#E5C167"></stop>
      <stop offset="0.5376" stop-color="#E4BF68"></stop>
      <stop offset="0.7151" stop-color="#B08133"></stop>
      <stop offset="0.8441" stop-color="#8C5F25"></stop>
      <stop offset="1" stop-color="#B4853A"></stop>
    </linearGradient>
    <linearGradient id="paint12_linear_147_6" x1="44.5909" y1="44.6963" x2="52.1671" y2="37.12" gradientUnits="userSpaceOnUse">
      <stop stop-color="#BE8B37"></stop>
      <stop offset="0.047715" stop-color="#B88636"></stop>
      <stop offset="0.129" stop-color="#B28135"></stop>
      <stop offset="0.2688" stop-color="#E5C167"></stop>
      <stop offset="0.5376" stop-color="#E4BF68"></stop>
      <stop offset="0.7151" stop-color="#B08133"></stop>
      <stop offset="0.8441" stop-color="#8C5F25"></stop>
      <stop offset="1" stop-color="#B4853A"></stop>
    </linearGradient>
    <linearGradient id="paint13_linear_147_6" x1="43.4596" y1="56.1103" x2="54.4373" y2="45.1326" gradientUnits="userSpaceOnUse">
      <stop stop-color="#BE8B37"></stop>
      <stop offset="0.047715" stop-color="#B88636"></stop>
      <stop offset="0.129" stop-color="#B28135"></stop>
      <stop offset="0.2688" stop-color="#E5C167"></stop>
      <stop offset="0.5376" stop-color="#E4BF68"></stop>
      <stop offset="0.7151" stop-color="#B08133"></stop>
      <stop offset="0.8441" stop-color="#8C5F25"></stop>
      <stop offset="1" stop-color="#B4853A"></stop>
    </linearGradient>
    <linearGradient id="paint14_linear_147_6" x1="57.1769" y1="53.2537" x2="62.3625" y2="48.0681" gradientUnits="userSpaceOnUse">
      <stop stop-color="#BE8B37"></stop>
      <stop offset="0.047715" stop-color="#B88636"></stop>
      <stop offset="0.129" stop-color="#B28135"></stop>
      <stop offset="0.2688" stop-color="#E5C167"></stop>
      <stop offset="0.5376" stop-color="#E4BF68"></stop>
      <stop offset="0.7151" stop-color="#B08133"></stop>
      <stop offset="0.8441" stop-color="#8C5F25"></stop>
      <stop offset="1" stop-color="#B4853A"></stop>
    </linearGradient>
    <linearGradient id="paint15_linear_147_6" x1="49.1506" y1="52.2277" x2="59.7249" y2="41.6534" gradientUnits="userSpaceOnUse">
      <stop stop-color="#BE8B37"></stop>
      <stop offset="0.047715" stop-color="#B88636"></stop>
      <stop offset="0.129" stop-color="#B28135"></stop>
      <stop offset="0.2688" stop-color="#E5C167"></stop>
      <stop offset="0.5376" stop-color="#E4BF68"></stop>
      <stop offset="0.7151" stop-color="#B08133"></stop>
      <stop offset="0.8441" stop-color="#8C5F25"></stop>
      <stop offset="1" stop-color="#B4853A"></stop>
    </linearGradient>
    <linearGradient id="paint16_linear_147_6" x1="49.074" y1="31.4371" x2="60.7445" y2="19.7667" gradientUnits="userSpaceOnUse">
      <stop stop-color="#BE8B37"></stop>
      <stop offset="0.047715" stop-color="#B88636"></stop>
      <stop offset="0.129" stop-color="#B28135"></stop>
      <stop offset="0.2688" stop-color="#E5C167"></stop>
      <stop offset="0.5376" stop-color="#E4BF68"></stop>
      <stop offset="0.7151" stop-color="#B08133"></stop>
      <stop offset="0.8441" stop-color="#8C5F25"></stop>
      <stop offset="1" stop-color="#B4853A"></stop>
    </linearGradient>
  </defs>
</svg>
