<?xml version="1.0" encoding="UTF-8"?>
<svg xmlns="http://www.w3.org/2000/svg" width="173" height="41" viewBox="0 0 173 41" fill="none">
  <path d="M13.5731 13.2625H3.56372V22.3113C3.22284 22.5282 2.63406 22.6212 1.76637 22.6212C0.89868 22.6212 0.340877 22.5282 0 22.3113V1.73469C0.340877 1.51777 0.89868 1.4248 1.76637 1.4248C2.63406 1.4248 3.22284 1.51777 3.56372 1.73469V10.1637H13.5731V1.73469C13.914 1.51777 14.4718 1.4248 15.3395 1.4248C16.2072 1.4248 16.796 1.51777 17.1368 1.73469V22.3113C16.796 22.5282 16.2072 22.6212 15.3395 22.6212C14.4718 22.6212 13.914 22.5282 13.5731 22.3113V13.2625Z" fill="white"></path>
  <path d="M26.0928 2.91238C26.0928 4.30688 25.2251 5.05062 23.9545 5.05062C22.622 5.05062 21.8473 4.27589 21.8473 2.94336C21.8473 1.54887 22.715 0.743164 23.9855 0.743164C25.2561 0.743164 26.0928 1.51789 26.0928 2.91238ZM22.2502 8.08753C22.591 7.90159 23.1178 7.80862 23.9545 7.80862C24.8222 7.80862 25.349 7.90159 25.6899 8.08753V22.3114C25.349 22.4973 24.8222 22.5903 23.9545 22.5903C23.1178 22.5903 22.591 22.4973 22.2502 22.3114V8.08753Z" fill="white"></path>
  <path d="M31.3297 17.0747C30.1521 16.207 29.5013 14.8435 29.5013 12.7363C29.5013 9.14157 32.0114 7.31323 35.5751 7.31323C36.7837 7.31323 37.8373 7.53014 38.674 7.90201H42.8885C43.1984 8.55277 43.3224 9.51344 43.3224 10.4741H41.0912V10.598C41.432 11.0009 41.6799 11.7446 41.6799 12.8912C41.6799 16.269 39.4797 18.2213 35.6681 18.2213C34.9244 18.2213 34.1806 18.1283 33.6848 17.9114C33.313 18.1903 33.158 18.6861 33.158 19.089C33.158 20.0806 34.3666 20.2975 36.5978 20.2975C40.5953 20.2975 43.5083 21.0723 43.5083 24.8529C43.5083 28.6026 40.5644 30.152 35.885 30.152C31.7015 30.152 28.6956 28.9125 28.6956 25.5967C28.6956 23.6444 29.7182 22.4668 30.9888 22.0329V21.847C30.2141 21.4131 29.8112 20.6384 29.8112 19.6778C29.8112 18.4692 30.4 17.5395 31.3607 17.1987V17.0747H31.3297ZM33.3439 22.8077C32.4453 23.2725 31.9185 24.1092 31.9185 25.0389C31.9185 26.8982 33.8708 27.456 36.1329 27.456C38.674 27.456 40.2854 26.7432 40.2854 25.0389C40.2854 23.6444 39.2628 23.0556 35.8231 23.0556C34.5525 23.0866 33.8708 22.9936 33.3439 22.8077ZM35.6061 15.6182C37.5274 15.6182 38.5191 14.5026 38.5191 12.7673C38.5191 11.0009 37.4655 9.97827 35.6061 9.97827C33.6538 9.97827 32.6932 11.0629 32.6932 12.7673C32.6622 14.5646 33.6848 15.6182 35.6061 15.6182Z" fill="white"></path>
  <path d="M49.6439 22.3115C49.303 22.4974 48.7762 22.5904 47.9085 22.5904C47.0719 22.5904 46.545 22.4974 46.2042 22.3115V1.14609C46.9789 0.681257 48.0325 0.43335 49.6439 0.43335V5.76343C49.6439 7.40584 49.52 8.70737 49.303 9.88495H49.489C50.1397 8.52144 51.5033 7.31288 54.3852 7.31288C56.7404 7.31288 59.4674 8.11858 59.4674 12.9838V22.3115C59.1265 22.4974 58.5997 22.5904 57.732 22.5904C56.8953 22.5904 56.3685 22.4974 56.0276 22.3115V13.6346C56.0276 11.6513 55.3769 10.4427 53.2386 10.4427C51.3173 10.4427 50.2637 11.3724 49.6439 12.426V22.3115Z" fill="white"></path>
  <path d="M67.308 23.0862C64.8289 23.0862 63.8682 21.5677 63.8682 19.0576V1.14609C64.6429 0.681257 65.6966 0.43335 67.308 0.43335V18.5618C67.308 19.7704 67.7728 20.0183 68.5475 20.0183C69.2293 20.0183 69.8801 19.8014 70.4069 19.4605C70.5928 20.5141 70.2209 21.8776 69.6941 22.4974C69.1363 22.8383 68.2996 23.0862 67.308 23.0862Z" fill="white"></path>
  <path d="M76.9766 2.91238C76.9766 4.30688 76.1089 5.05062 74.8383 5.05062C73.5058 5.05062 72.7311 4.27589 72.7311 2.94336C72.7311 1.54887 73.5988 0.743164 74.8693 0.743164C76.1399 0.743164 76.9766 1.51789 76.9766 2.91238ZM73.1339 8.08753C73.4748 7.90159 74.0016 7.80862 74.8383 7.80862C75.706 7.80862 76.2328 7.90159 76.5737 8.08753V22.3114C76.2328 22.4973 75.706 22.5903 74.8383 22.5903C74.0016 22.5903 73.4748 22.4973 73.1339 22.3114V8.08753Z" fill="white"></path>
  <path d="M81.8105 7.90216V5.91888C81.8105 1.45649 83.9797 0 87.0166 0C88.2252 0 89.2478 0.247918 90.0226 0.74374C90.5494 1.42549 90.7663 2.88196 90.5494 3.87361C89.5887 3.25383 88.69 3.00592 87.7294 3.00592C85.8081 3.00592 85.2193 3.9356 85.2193 5.67097V7.87118H88.9999C89.1549 8.18106 89.2478 8.67688 89.2478 9.35864C89.2478 10.0404 89.1549 10.5672 88.9999 10.8461H85.2193V22.281C84.8784 22.4669 84.3516 22.5599 83.4839 22.5599C82.6472 22.5599 82.1204 22.4669 81.7795 22.281V10.8461H79.5173C79.5173 9.7305 79.6723 8.6459 79.9822 7.87118H81.8105V7.90216Z" fill="white"></path>
  <path d="M93.9582 16.3C94.1131 18.996 95.9105 20.2046 98.9784 20.2046C100.9 20.2046 102.511 19.7398 103.596 19.151C103.689 20.1116 103.286 21.4131 102.728 22.0019C101.767 22.5597 100.156 23.0865 98.1417 23.0865C93.1524 23.0865 90.4564 20.1116 90.4564 15.3703C90.4564 10.5671 93.2454 7.31323 97.8318 7.31323C101.953 7.31323 103.875 9.91628 103.875 13.6349C103.875 14.5646 103.751 15.4943 103.472 16.3H93.9582ZM100.528 13.6659C100.745 11.8686 100.125 10.0093 97.6768 10.0093C95.4766 10.0093 94.1131 11.4657 93.9892 13.6659H100.528Z" fill="white"></path>
  <path d="M111.436 2.91238C111.436 4.30688 110.568 5.05062 109.298 5.05062C107.965 5.05062 107.19 4.27589 107.19 2.94336C107.19 1.54887 108.058 0.743164 109.329 0.743164C110.599 0.743164 111.436 1.51789 111.436 2.91238ZM107.562 8.08753C107.903 7.90159 108.43 7.80862 109.267 7.80862C110.134 7.80862 110.661 7.90159 111.002 8.08753V22.3114C110.661 22.4973 110.134 22.5903 109.267 22.5903C108.43 22.5903 107.903 22.4973 107.562 22.3114V8.08753Z" fill="white"></path>
  <path d="M119.09 22.3118C118.749 22.4978 118.222 22.5907 117.355 22.5907C116.518 22.5907 115.991 22.4978 115.65 22.3118V8.18092C116.301 7.80905 117.293 7.6541 118.439 7.6541L118.656 9.97827H118.842C119.524 8.52179 121.042 7.31323 123.831 7.31323C126.125 7.31323 128.79 8.11894 128.79 12.9842V22.3118C128.449 22.4978 127.922 22.5907 127.054 22.5907C126.217 22.5907 125.691 22.4978 125.35 22.3118V13.6349C125.35 11.6517 124.73 10.4431 122.592 10.4431C120.732 10.4431 119.679 11.4038 119.09 12.4264V22.3118Z" fill="white"></path>
  <path d="M142.456 1.14609C143.231 0.681257 144.284 0.43335 145.896 0.43335V22.2495C145.245 22.6214 144.315 22.7763 143.355 22.7763L142.89 20.886H142.704C141.867 22.3115 140.287 23.0862 138.241 23.0862C134.461 23.0862 132.26 20.3902 132.26 15.6799C132.26 10.2568 135.111 7.31288 139.636 7.31288C140.844 7.31288 141.836 7.52979 142.487 7.80869V1.14609H142.456ZM142.487 10.7217C141.898 10.4118 141.123 10.2878 140.287 10.2878C137.064 10.2878 135.731 12.426 135.731 15.5249C135.731 18.5308 137.002 19.9563 139.326 19.9563C140.937 19.9563 141.805 19.2746 142.487 18.6238V10.7217Z" fill="white"></path>
  <path d="M154.386 2.91238C154.386 4.30688 153.519 5.05062 152.248 5.05062C150.916 5.05062 150.141 4.27589 150.141 2.94336C150.141 1.54887 151.009 0.743164 152.279 0.743164C153.55 0.743164 154.386 1.51789 154.386 2.91238ZM150.513 8.08753C150.854 7.90159 151.38 7.80862 152.217 7.80862C153.085 7.80862 153.612 7.90159 153.953 8.08753V22.3114C153.612 22.4973 153.085 22.5903 152.217 22.5903C151.38 22.5903 150.854 22.4973 150.513 22.3114V8.08753Z" fill="white"></path>
  <path d="M166.441 21.1653C165.697 22.3738 164.303 23.1175 162.319 23.1175C159.685 23.1175 157.423 21.878 157.423 18.5312C157.423 14.9365 160.026 13.48 163.435 13.48C164.427 13.48 165.418 13.604 166.286 13.9139V13.3561C166.286 11.1868 165.356 10.3192 163.187 10.3192C161.483 10.3192 159.84 10.815 158.539 11.5897C158.26 10.691 158.384 9.14157 158.942 8.33586C159.995 7.74707 161.762 7.31323 163.838 7.31323C167.773 7.31323 169.726 8.83168 169.726 13.0772V18.965C169.726 19.8637 170.129 20.0806 170.748 20.0806C171.275 20.0806 171.802 19.8947 172.081 19.6778C172.205 20.5764 171.926 21.878 171.461 22.4978C170.903 22.8696 170.16 23.0865 169.261 23.0865C167.742 23.0865 166.906 22.4048 166.627 21.1342H166.441V21.1653ZM166.379 16.4239C165.759 16.176 164.954 16.0211 164.086 16.0211C161.979 16.0211 160.863 16.9508 160.863 18.2833C160.863 19.6158 161.948 20.2046 163.373 20.2046C164.52 20.2046 165.697 19.8327 166.379 18.903V16.4239Z" fill="white"></path>
  <path d="M25.473 34.3975H27.9211C28.231 34.3975 28.5409 34.4285 28.8508 34.4904C29.1607 34.5524 29.4086 34.6454 29.6255 34.8003C29.8424 34.9553 30.0284 35.1412 30.1523 35.3891C30.2763 35.637 30.3383 35.9469 30.3383 36.3188C30.3383 36.7526 30.2143 37.1555 29.9974 37.4654C29.7495 37.7753 29.4086 37.9922 28.9748 38.0542L30.5862 40.7192H28.9128L27.5803 38.1781H26.8985V40.7192H25.504V34.3975H25.473ZM26.8675 37.0005H27.7042C27.8282 37.0005 27.9521 37.0005 28.1071 37.0005C28.262 37.0005 28.386 36.9695 28.4789 36.9076C28.6029 36.8766 28.6959 36.7836 28.7578 36.6906C28.8198 36.5977 28.8818 36.4737 28.8818 36.2878C28.8818 36.1328 28.8508 36.0089 28.7888 35.9159C28.7268 35.823 28.6339 35.761 28.5409 35.699C28.4479 35.637 28.324 35.606 28.2 35.606C28.0761 35.575 27.9521 35.5751 27.8282 35.5751H26.9295V37.0005H26.8675Z" fill="#E0B958"></path>
  <path d="M33.1274 34.3975H37.4349V35.699H34.5219V36.8766H37.28V38.1781H34.5219V39.4796H37.5898V40.7812H33.1274V34.3975Z" fill="#E0B958"></path>
  <path d="M42.5789 34.3975H43.7255L46.4835 40.7502H44.903L44.3453 39.4177H41.8661L41.4013 40.7192H39.8519L42.5789 34.3975ZM43.1367 36.2258L42.362 38.2091H43.9114L43.1367 36.2258Z" fill="#E0B958"></path>
  <path d="M48.9936 34.3975H50.3881V39.4487H52.9912V40.7502H48.9936V34.3975Z" fill="#E0B958"></path>
  <path d="M55.5322 34.3975H56.9267V40.7192H55.5322V34.3975Z" fill="#E0B958"></path>
  <path d="M63.1243 35.9465C63.0004 35.7916 62.8454 35.6986 62.6595 35.6367C62.4736 35.5747 62.2876 35.5437 62.1017 35.5437C62.0087 35.5437 61.8848 35.5437 61.7918 35.5747C61.6989 35.6057 61.5749 35.6367 61.4819 35.6986C61.389 35.7606 61.296 35.8226 61.234 35.9156C61.172 36.0085 61.1411 36.1015 61.1411 36.2255C61.1411 36.4114 61.203 36.5663 61.358 36.6593C61.5129 36.7523 61.6679 36.8452 61.8848 36.9072C62.1017 36.9692 62.3496 37.0622 62.5975 37.1241C62.8455 37.1861 63.0934 37.3101 63.3103 37.434C63.5272 37.558 63.7131 37.7439 63.8371 37.9608C63.992 38.1777 64.054 38.4876 64.054 38.8595C64.054 39.2004 63.992 39.5103 63.8681 39.7892C63.7441 40.0371 63.5582 40.285 63.3413 40.4399C63.1243 40.6259 62.8454 40.7498 62.5665 40.8118C62.2567 40.9048 61.9468 40.9358 61.6369 40.9358C61.234 40.9358 60.8312 40.8738 60.4903 40.7498C60.1494 40.6259 59.8085 40.4089 59.4987 40.13L60.4903 39.0454C60.6452 39.2314 60.8002 39.3863 61.0481 39.4793C61.265 39.5723 61.4819 39.6342 61.7298 39.6342C61.8538 39.6342 61.9468 39.6342 62.0707 39.6032C62.1947 39.5723 62.2876 39.5413 62.3806 39.4793C62.4736 39.4173 62.5356 39.3553 62.5975 39.2624C62.6595 39.1694 62.6905 39.0764 62.6905 38.9525C62.6905 38.7665 62.6285 38.6116 62.4736 38.4876C62.3186 38.3637 62.1327 38.2707 61.9158 38.2088C61.6989 38.1158 61.451 38.0538 61.203 37.9608C60.9551 37.8679 60.7072 37.7749 60.4903 37.6509C60.2734 37.527 60.0874 37.3411 59.9325 37.1241C59.7775 36.9072 59.7156 36.6283 59.7156 36.2874C59.7156 35.9466 59.7775 35.6367 59.9325 35.3888C60.0564 35.1408 60.2424 34.9239 60.4593 34.738C60.6762 34.5521 60.9551 34.4281 61.234 34.3351C61.5129 34.2422 61.8228 34.2112 62.1327 34.2112C62.5046 34.2112 62.8454 34.2732 63.1863 34.3661C63.5272 34.4591 63.8371 34.645 64.085 34.8619L63.1243 35.9465Z" fill="#E0B958"></path>
  <path d="M66.905 34.3975H68.2995V40.7192H66.905V34.3975Z" fill="#E0B958"></path>
  <path d="M71.3675 34.3975H73.2578L75.9538 38.7979H75.9848V34.3975H77.3793V40.7192H75.551L72.793 36.1948H72.762V40.7192H71.3675V34.3975Z" fill="#E0B958"></path>
  <path d="M86.2113 40.2847C85.8084 40.5016 85.3746 40.6566 84.9097 40.7495C84.4449 40.8425 84.0111 40.9045 83.5462 40.9045C83.0504 40.9045 82.5856 40.8115 82.1827 40.6566C81.7799 40.5016 81.408 40.2847 81.0981 39.9748C80.7882 39.6959 80.5713 39.3241 80.3854 38.9212C80.2304 38.5184 80.1375 38.0535 80.1375 37.5267C80.1375 37.0309 80.2304 36.5661 80.3854 36.1322C80.5403 35.7294 80.7882 35.3575 81.0981 35.0786C81.408 34.7997 81.7489 34.5518 82.1827 34.3968C82.5856 34.2419 83.0504 34.1489 83.5462 34.1489C84.042 34.1489 84.5069 34.2109 84.9407 34.3349C85.3746 34.4588 85.7464 34.6757 86.0563 34.9546L85.0647 36.0393C84.8788 35.8533 84.6618 35.6984 84.4139 35.6054C84.166 35.5124 83.8871 35.4505 83.5152 35.4505C83.2054 35.4505 82.9574 35.5124 82.7095 35.6054C82.4616 35.6984 82.2447 35.8533 82.0897 36.0393C81.9038 36.2252 81.7799 36.4421 81.6869 36.69C81.5939 36.9379 81.5629 37.2168 81.5629 37.4957C81.5629 37.8056 81.5939 38.0535 81.6869 38.3014C81.7799 38.5493 81.9038 38.7663 82.0897 38.9522C82.2757 39.1381 82.4616 39.2621 82.7095 39.386C82.9574 39.479 83.2363 39.541 83.5152 39.541C83.8251 39.541 84.073 39.51 84.29 39.448C84.5069 39.3861 84.6928 39.3241 84.8168 39.2311V38.2395H83.6702V36.9379H86.1493V40.2847H86.2113Z" fill="#E0B958"></path>
  <path d="M93.6794 34.3975H95.7866C96.2824 34.3975 96.7783 34.4594 97.2431 34.5524C97.7079 34.6764 98.1108 34.8623 98.4517 35.1102C98.7925 35.3581 99.0714 35.699 99.2574 36.1018C99.4433 36.5047 99.5673 37.0005 99.5673 37.5893C99.5673 38.1161 99.4743 38.55 99.2884 38.9528C99.1024 39.3557 98.8235 39.6656 98.5136 39.9445C98.1728 40.2234 97.8009 40.4093 97.367 40.5642C96.9332 40.6882 96.4994 40.7812 96.0035 40.7812H93.7104V34.3975H93.6794ZM95.0739 39.4487H95.7866C96.0965 39.4487 96.4064 39.4177 96.6853 39.3557C96.9642 39.2937 97.2121 39.1698 97.398 39.0148C97.615 38.8599 97.7699 38.6739 97.8629 38.426C97.9868 38.1781 98.0488 37.8682 98.0488 37.5273C98.0488 37.2175 97.9868 36.9385 97.8629 36.7216C97.7389 36.5047 97.584 36.2878 97.398 36.1638C97.2121 36.0089 96.9642 35.9159 96.7163 35.823C96.4374 35.761 96.1585 35.699 95.8796 35.699H95.0429V39.4487H95.0739Z" fill="#E0B958"></path>
  <path d="M102.263 34.3975H104.711C105.021 34.3975 105.331 34.4285 105.641 34.4904C105.951 34.5524 106.199 34.6454 106.416 34.8003C106.633 34.9553 106.819 35.1412 106.943 35.3891C107.067 35.637 107.129 35.9469 107.129 36.3188C107.129 36.7526 107.005 37.1555 106.788 37.4654C106.54 37.7753 106.199 37.9922 105.765 38.0542L107.377 40.7192H105.703L104.371 38.1781H103.689V40.7192H102.294V34.3975H102.263ZM103.658 37.0005H104.495C104.619 37.0005 104.742 37.0005 104.897 37.0005C105.052 37.0005 105.176 36.9695 105.269 36.9076C105.393 36.8766 105.486 36.7836 105.548 36.6906C105.61 36.5977 105.672 36.4737 105.672 36.2878C105.672 36.1328 105.641 36.0089 105.579 35.9159C105.517 35.823 105.424 35.761 105.331 35.699C105.238 35.637 105.114 35.606 104.99 35.606C104.866 35.575 104.742 35.5751 104.619 35.5751H103.72V37.0005H103.658Z" fill="#E0B958"></path>
  <path d="M109.918 34.3975H114.225V35.699H111.312V36.8766H114.07V38.1781H111.312V39.4796H114.38V40.7812H109.918V34.3975Z" fill="#E0B958"></path>
  <path d="M119.4 34.3975H120.547L123.305 40.7502H121.724L121.167 39.4177H118.687L118.161 40.7502H116.611L119.4 34.3975ZM119.927 36.2258L119.152 38.2091H120.702L119.927 36.2258Z" fill="#E0B958"></path>
  <path d="M125.722 34.3975H127.829L129.286 38.55H129.317L130.773 34.3975H132.88V40.7192H131.486V35.8539H131.455L129.781 40.7192H128.728L127.116 35.8539H127.085V40.7192H125.691V34.3975H125.722Z" fill="#E0B958"></path>
  <path d="M139.109 35.9465C138.985 35.7916 138.83 35.6986 138.644 35.6367C138.458 35.5747 138.272 35.5437 138.087 35.5437C137.994 35.5437 137.87 35.5437 137.777 35.5747C137.684 35.6057 137.56 35.6367 137.467 35.6986C137.374 35.7606 137.281 35.8226 137.219 35.9156C137.157 36.0085 137.126 36.1015 137.126 36.2255C137.126 36.4114 137.188 36.5663 137.343 36.6593C137.498 36.7523 137.653 36.8452 137.87 36.9072C138.087 36.9692 138.334 37.0622 138.582 37.1241C138.83 37.1861 139.078 37.3101 139.295 37.434C139.512 37.558 139.698 37.7439 139.822 37.9608C139.977 38.1777 140.039 38.4876 140.039 38.8595C140.039 39.2004 139.977 39.5103 139.853 39.7892C139.729 40.0371 139.543 40.285 139.326 40.4399C139.109 40.6259 138.83 40.7498 138.551 40.8118C138.272 40.8738 137.932 40.9358 137.622 40.9358C137.219 40.9358 136.816 40.8738 136.475 40.7498C136.134 40.6259 135.793 40.4089 135.483 40.13L136.475 39.0454C136.63 39.2314 136.785 39.3863 137.002 39.4793C137.219 39.5723 137.436 39.6342 137.684 39.6342C137.808 39.6342 137.901 39.6342 138.025 39.6032C138.149 39.5723 138.241 39.5413 138.334 39.4793C138.427 39.4173 138.489 39.3553 138.551 39.2624C138.613 39.1694 138.644 39.0764 138.644 38.9525C138.644 38.7665 138.582 38.6116 138.427 38.4876C138.272 38.3637 138.087 38.2707 137.87 38.2088C137.653 38.1158 137.405 38.0538 137.157 37.9608C136.909 37.8679 136.661 37.7749 136.444 37.6509C136.227 37.527 136.041 37.3411 135.886 37.1241C135.731 36.9072 135.669 36.6283 135.669 36.2874C135.669 35.9466 135.731 35.6367 135.886 35.3888C136.01 35.1408 136.196 34.9239 136.413 34.738C136.63 34.5521 136.909 34.4281 137.188 34.3351C137.467 34.2422 137.777 34.2112 138.087 34.2112C138.458 34.2112 138.799 34.2732 139.14 34.3661C139.481 34.4591 139.791 34.645 140.039 34.8619L139.109 35.9465Z" fill="#E0B958"></path>
</svg>
