<?xml version="1.0" encoding="UTF-8"?>
<svg xmlns="http://www.w3.org/2000/svg" xmlns:v="https://vecta.io/nano" width="665" height="32" fill="none">
  <path d="M19.536 6.162h-6.841V26H7.056V6.162H.215V1.69h19.321v4.472zm7.298 2.269c1.313 0 2.508.206 3.587.617s2.002 1.001 2.77 1.769c.779.767 1.379 1.702 1.802 2.803.434 1.09.651 2.319.651 3.687 0 1.379-.217 2.625-.651 3.738-.423 1.101-1.023 2.041-1.802 2.82-.768.767-1.691 1.363-2.77 1.785-1.079.412-2.275.617-3.587.617-1.324 0-2.531-.206-3.621-.617-1.079-.423-2.013-1.018-2.803-1.785-.779-.779-1.385-1.718-1.819-2.82-.423-1.112-.634-2.358-.634-3.738 0-1.368.211-2.597.634-3.687.434-1.101 1.04-2.036 1.819-2.803.79-.768 1.724-1.357 2.803-1.769 1.09-.412 2.297-.617 3.621-.617zm0 13.999c1.19 0 2.063-.417 2.62-1.251.567-.845.851-2.125.851-3.838s-.284-2.987-.851-3.821c-.556-.834-1.429-1.251-2.62-1.251-1.224 0-2.119.417-2.686 1.251s-.851 2.108-.851 3.821.284 2.992.851 3.838c.567.834 1.463 1.251 2.686 1.251zm17.588-1.135c.389.423.812.723 1.268.901a3.91 3.91 0 0 0 1.435.267c.478 0 .918-.095 1.318-.284s.745-.489 1.034-.901c.3-.423.534-.968.701-1.635s.25-1.479.25-2.436c0-.912-.067-1.68-.2-2.302s-.323-1.123-.567-1.502c-.234-.389-.517-.667-.851-.834s-.706-.25-1.118-.25c-.756 0-1.379.139-1.869.417s-.957.684-1.402 1.218v7.341zm-.317-10.461c.678-.723 1.446-1.313 2.302-1.769.868-.467 1.897-.701 3.087-.701a5.33 5.33 0 0 1 2.503.601c.767.4 1.429.979 1.986 1.735s.99 1.685 1.301 2.786c.323 1.09.484 2.33.484 3.721 0 1.301-.184 2.503-.551 3.604-.356 1.101-.862 2.058-1.518 2.87-.645.812-1.424 1.446-2.336 1.902-.901.456-1.902.684-3.003.684-.901 0-1.657-.128-2.269-.384a6.16 6.16 0 0 1-1.669-1.034v6.641H39.25V8.698h3.204c.645 0 1.068.289 1.268.868l.384 1.268zm23.781-2.202c.178-1.212.517-2.269 1.018-3.17.512-.901 1.14-1.652 1.885-2.252.756-.601 1.618-1.046 2.586-1.335.968-.3 2.008-.451 3.12-.451 1.201 0 2.269.172 3.204.517.934.334 1.724.79 2.369 1.368s1.135 1.251 1.468 2.019c.334.756.501 1.557.501 2.403 0 .768-.078 1.446-.234 2.036-.156.578-.389 1.085-.701 1.518-.3.423-.678.784-1.135 1.085-.445.289-.957.534-1.535.734 2.692.946 4.038 2.781 4.038 5.506 0 1.29-.234 2.414-.701 3.37s-1.096 1.752-1.885 2.386c-.779.634-1.685 1.112-2.72 1.435-1.034.311-2.113.467-3.237.467-1.157 0-2.186-.122-3.087-.367a7.32 7.32 0 0 1-2.403-1.168c-.701-.534-1.318-1.212-1.852-2.035-.523-.823-.979-1.802-1.368-2.937l2.303-.934c.601-.234 1.157-.295 1.668-.184s.879.367 1.101.768c.501.923 1.029 1.596 1.585 2.019.567.412 1.229.617 1.986.617.578 0 1.079-.095 1.502-.284a3.34 3.34 0 0 0 1.068-.751 3.14 3.14 0 0 0 .651-1.051 3.38 3.38 0 0 0 .217-1.185c0-.523-.039-.99-.117-1.402-.067-.423-.267-.784-.601-1.085s-.84-.528-1.518-.684c-.667-.167-1.602-.25-2.803-.25v-3.571c1.012 0 1.83-.078 2.453-.234s1.101-.367 1.435-.634c.345-.278.573-.612.684-1.001s.167-.818.167-1.285c0-.957-.234-1.691-.701-2.202-.456-.523-1.157-.784-2.102-.784-.767 0-1.418.206-1.952.617a3.09 3.09 0 0 0-1.085 1.502c-.234.612-.539 1.018-.918 1.218s-.918.245-1.618.133l-2.736-.484zm38.543 4.989c1.468 0 2.525-.35 3.17-1.051s.968-1.68.968-2.937c0-.556-.083-1.062-.25-1.518s-.423-.845-.768-1.168c-.333-.334-.762-.59-1.285-.768-.511-.178-1.123-.267-1.835-.267h-2.936v7.708h2.936zm0-11.93c1.713 0 3.181.206 4.405.617 1.235.4 2.247.957 3.037 1.668.801.712 1.39 1.552 1.768 2.519s.568 2.013.568 3.137c0 1.212-.195 2.325-.584 3.337s-.985 1.88-1.786 2.603-1.818 1.29-3.053 1.702c-1.224.4-2.675.601-4.355.601h-2.936V26h-5.64V1.69h8.576zm17.65 9.677c.534-.934 1.145-1.669 1.835-2.202a3.86 3.86 0 0 1 2.403-.801c.778 0 1.412.184 1.902.551l-.334 3.804c-.056.245-.15.412-.284.501-.122.089-.294.133-.517.133-.089 0-.206-.006-.35-.017l-.451-.033-.484-.05a3.06 3.06 0 0 0-.433-.033c-.757 0-1.363.2-1.819.601-.445.4-.823.957-1.135 1.668V26h-5.172V8.698h3.07c.256 0 .467.022.634.067.178.044.323.117.434.217a.76.76 0 0 1 .267.367 2.91 2.91 0 0 1 .167.567l.267 1.452zm19.373 3.904a4.36 4.36 0 0 0-.167-1.201c-.1-.389-.273-.734-.518-1.034-.233-.312-.545-.562-.934-.751s-.862-.284-1.418-.284c-.979 0-1.746.284-2.303.851-.556.556-.923 1.363-1.101 2.419h6.441zm-6.508 3.003c.167 1.446.607 2.497 1.319 3.154.711.645 1.629.968 2.753.968.6 0 1.117-.072 1.551-.217s.818-.306 1.152-.484l.934-.484a1.99 1.99 0 0 1 .901-.217c.411 0 .723.15.934.451l1.502 1.852c-.534.612-1.112 1.112-1.735 1.502-.612.378-1.246.678-1.902.901-.646.211-1.296.356-1.953.434-.645.089-1.262.133-1.852.133-1.212 0-2.352-.195-3.42-.584a8.03 8.03 0 0 1-2.786-1.769c-.79-.779-1.419-1.746-1.886-2.903-.456-1.157-.684-2.503-.684-4.038a9.26 9.26 0 0 1 .584-3.287 8.27 8.27 0 0 1 1.702-2.72c.745-.779 1.641-1.396 2.686-1.852 1.057-.456 2.247-.684 3.571-.684 1.145 0 2.191.178 3.137.534a6.74 6.74 0 0 1 2.452 1.552c.69.679 1.224 1.513 1.602 2.503.389.979.584 2.091.584 3.337a7.37 7.37 0 0 1-.05.951c-.033.245-.095.439-.184.584s-.211.245-.367.3c-.144.056-.333.083-.567.083h-9.978zm25.731-5.79c-.134.211-.278.362-.434.451-.145.089-.334.133-.567.133a1.92 1.92 0 0 1-.734-.15l-.801-.35c-.278-.122-.595-.234-.951-.334a4.08 4.08 0 0 0-1.218-.167c-.657 0-1.163.128-1.519.384-.345.245-.517.589-.517 1.034 0 .323.111.59.334.801.233.211.539.4.917.567a14.27 14.27 0 0 0 1.285.45l1.468.484a12.21 12.21 0 0 1 1.469.634c.478.234.906.528 1.284.884.379.345.679.768.901 1.268.234.501.351 1.101.351 1.802 0 .857-.156 1.646-.467 2.369a5 5 0 0 1-1.402 1.869c-.612.523-1.374.929-2.286 1.218-.901.289-1.941.434-3.12.434-.589 0-1.179-.056-1.768-.167a12.55 12.55 0 0 1-1.719-.451c-.545-.189-1.051-.412-1.518-.667a6.91 6.91 0 0 1-1.202-.851l1.202-1.902c.133-.223.3-.395.5-.517.212-.134.479-.2.801-.2.3 0 .567.067.801.2l.784.434c.278.156.601.3.968.434.378.134.851.2 1.418.2.401 0 .74-.039 1.018-.117.278-.089.5-.206.667-.35s.29-.306.367-.484a1.36 1.36 0 0 0 .117-.551c0-.345-.117-.628-.35-.851s-.54-.412-.918-.567a9.31 9.31 0 0 0-1.301-.45l-1.469-.484c-.5-.178-.995-.389-1.485-.634a5.42 5.42 0 0 1-1.284-.951c-.378-.389-.684-.862-.918-1.418s-.35-1.229-.35-2.019a5.29 5.29 0 0 1 .417-2.086c.289-.667.717-1.251 1.285-1.752s1.279-.895 2.135-1.185c.857-.3 1.858-.45 3.003-.45a9.52 9.52 0 0 1 1.802.167c.59.111 1.141.267 1.652.467s.979.439 1.402.717c.423.267.795.562 1.118.884l-1.168 1.819zM186.244 26h-5.172V12.268h-7.241v8.593c0 .401.094.734.283 1.001.201.256.484.384.851.384.189 0 .345-.017.468-.05.133-.044.244-.089.333-.133l.267-.133c.089-.044.189-.067.301-.067a.54.54 0 0 1 .367.117c.1.067.2.178.3.334l1.568 2.453a7.27 7.27 0 0 1-2.252 1.135c-.834.245-1.696.367-2.586.367-.823 0-1.552-.117-2.186-.35-.623-.245-1.151-.584-1.585-1.018-.423-.445-.745-.979-.968-1.602s-.334-1.318-.334-2.086v-8.943h-1.468c-.267 0-.495-.083-.684-.25-.189-.178-.284-.434-.284-.768V9.232l2.753-.551 1.018-4.205c.134-.534.512-.801 1.135-.801h2.703v5.056h12.413V26zm.718-22.058c0 .412-.084.801-.25 1.168a3.13 3.13 0 0 1-.684.968c-.29.267-.629.478-1.018.634-.378.156-.784.234-1.218.234a3 3 0 0 1-1.185-.234 3.39 3.39 0 0 1-.984-.634c-.278-.278-.501-.601-.668-.968a2.97 2.97 0 0 1-.233-1.168 2.97 2.97 0 0 1 .233-1.168 3.01 3.01 0 0 1 .668-.968c.289-.278.617-.495.984-.651a2.83 2.83 0 0 1 1.185-.25c.434 0 .84.083 1.218.25a3.14 3.14 0 0 1 1.018.651c.289.267.517.59.684.968.166.367.25.756.25 1.168zm10.493 12.497c.856 0 1.474-.211 1.852-.634.389-.434.584-.99.584-1.668 0-.701-.195-1.251-.584-1.652-.378-.4-.996-.601-1.852-.601s-1.479.2-1.869.601c-.378.401-.567.951-.567 1.652 0 .334.044.64.133.918.1.278.251.523.451.734.2.2.45.362.751.484a3.27 3.27 0 0 0 1.101.167zm4.004 10.195a.91.91 0 0 0-.55-.884c-.367-.189-.846-.323-1.435-.4s-1.252-.122-1.986-.133l-2.169-.134a3.49 3.49 0 0 0-.801.751 1.49 1.49 0 0 0-.3.918c0 .245.05.467.15.667.111.2.301.373.567.517s.623.256 1.068.334c.456.089 1.029.133 1.719.133.745 0 1.357-.044 1.835-.133s.857-.211 1.135-.367c.289-.156.489-.345.6-.567.112-.211.167-.445.167-.701zm5.106-17.402v1.885c0 .289-.084.517-.25.684-.156.167-.429.295-.818.384l-1.251.284c.066.245.117.495.15.751a4.72 4.72 0 0 1 .067.801c0 .868-.184 1.646-.551 2.336-.356.69-.851 1.279-1.485 1.769-.623.478-1.363.851-2.219 1.118-.857.256-1.774.384-2.753.384a17.93 17.93 0 0 1-.784-.017l-.751-.1c-.378.234-.567.495-.567.784s.155.501.467.634c.311.122.723.211 1.234.267l1.736.1 2.002.117c.678.056 1.34.156 1.985.3.657.145 1.241.378 1.752.701s.924.756 1.235 1.302c.311.534.467 1.218.467 2.052a5 5 0 0 1-.567 2.286c-.378.745-.934 1.407-1.669 1.986s-1.635 1.04-2.703 1.385c-1.067.356-2.291.534-3.67.534-1.357 0-2.531-.128-3.521-.384-.979-.256-1.796-.595-2.452-1.018-.646-.412-1.124-.89-1.435-1.435s-.468-1.112-.468-1.702c0-.767.223-1.407.668-1.919s1.068-.923 1.869-1.235c-.423-.256-.757-.584-1.002-.985s-.367-.918-.367-1.552c0-.256.045-.523.134-.801.089-.289.228-.567.417-.834.2-.278.445-.54.734-.784s.634-.462 1.035-.651c-.901-.478-1.613-1.107-2.136-1.885-.523-.79-.784-1.707-.784-2.753 0-.868.183-1.646.55-2.336a5.23 5.23 0 0 1 1.502-1.769c.645-.489 1.402-.862 2.269-1.118.868-.267 1.808-.4 2.82-.4 1.468 0 2.77.278 3.904.834h5.206zm8.448-.534V26h-5.173V8.698h5.173zm.534-4.739a2.79 2.79 0 0 1-.251 1.168c-.166.356-.394.673-.684.951a3.54 3.54 0 0 1-1.017.651c-.379.156-.785.234-1.218.234a3 3 0 0 1-1.185-.234 3.71 3.71 0 0 1-.985-.651c-.278-.278-.5-.595-.667-.951-.156-.367-.234-.756-.234-1.168 0-.423.078-.818.234-1.185a3.27 3.27 0 0 1 .667-.968 3.24 3.24 0 0 1 .985-.651c.367-.156.762-.234 1.185-.234.433 0 .839.078 1.218.234.389.156.728.373 1.017.651s.518.601.684.968.251.762.251 1.185zm12.05 4.472c1.312 0 2.508.206 3.587.617s2.002 1.001 2.77 1.769c.778.767 1.379 1.702 1.802 2.803.433 1.09.65 2.319.65 3.687 0 1.379-.217 2.625-.65 3.738-.423 1.101-1.024 2.041-1.802 2.82-.768.767-1.691 1.363-2.77 1.785-1.079.412-2.275.617-3.587.617-1.324 0-2.531-.206-3.621-.617-1.079-.423-2.013-1.018-2.803-1.785-.779-.779-1.385-1.718-1.819-2.82-.422-1.112-.634-2.358-.634-3.738 0-1.368.212-2.597.634-3.687.434-1.101 1.04-2.036 1.819-2.803.79-.768 1.724-1.357 2.803-1.769 1.09-.412 2.297-.617 3.621-.617zm0 13.999c1.19 0 2.063-.417 2.619-1.251.567-.845.851-2.125.851-3.838s-.284-2.987-.851-3.821c-.556-.834-1.429-1.251-2.619-1.251-1.224 0-2.119.417-2.687 1.251s-.851 2.108-.851 3.821.284 2.992.851 3.838c.568.834 1.463 1.251 2.687 1.251zm27.932-13.732V26h-3.203c-.646 0-1.068-.289-1.268-.868l-.301-1.001c-.333.323-.678.617-1.034.884-.356.256-.74.478-1.152.667-.4.178-.839.317-1.318.417a6.62 6.62 0 0 1-1.535.167c-.945 0-1.785-.161-2.519-.484-.723-.334-1.335-.795-1.835-1.385s-.879-1.285-1.135-2.086-.384-1.68-.384-2.636V8.698h5.173v10.979c0 .857.194 1.518.584 1.985s.962.701 1.718.701a3.63 3.63 0 0 0 1.585-.35c.501-.245.985-.573 1.452-.984V8.698h5.172zm15.511 3.787c-.134.211-.278.362-.434.451-.144.089-.334.133-.567.133a1.92 1.92 0 0 1-.734-.15l-.801-.35c-.278-.122-.595-.234-.951-.334a4.08 4.08 0 0 0-1.218-.167c-.657 0-1.163.128-1.519.384-.344.245-.517.589-.517 1.034 0 .323.111.59.334.801.233.211.539.4.918.567.378.156.806.306 1.284.45l1.469.484c.5.178.99.389 1.468.634a5.2 5.2 0 0 1 1.285.884c.378.345.678.768.901 1.268.233.501.35 1.101.35 1.802 0 .857-.156 1.646-.467 2.369a5 5 0 0 1-1.402 1.869c-.612.523-1.373.929-2.286 1.218-.901.289-1.941.434-3.12.434-.589 0-1.179-.056-1.768-.167a12.55 12.55 0 0 1-1.719-.451c-.545-.189-1.051-.412-1.518-.667-.467-.267-.868-.551-1.201-.851l1.201-1.902c.133-.223.3-.395.5-.517.212-.134.479-.2.801-.2.301 0 .568.067.801.2l.784.434c.278.156.601.3.968.434.378.134.851.2 1.418.2.401 0 .74-.039 1.018-.117.278-.089.501-.206.667-.35a1.37 1.37 0 0 0 .368-.484c.077-.178.116-.362.116-.551 0-.345-.116-.628-.35-.851s-.54-.412-.918-.567a9.31 9.31 0 0 0-1.301-.45l-1.468-.484a13.17 13.17 0 0 1-1.485-.634c-.479-.256-.907-.573-1.285-.951-.378-.389-.684-.862-.918-1.418s-.35-1.229-.35-2.019a5.29 5.29 0 0 1 .417-2.086c.289-.667.717-1.251 1.285-1.752s1.279-.895 2.135-1.185c.857-.3 1.858-.45 3.004-.45a9.53 9.53 0 0 1 1.802.167 9.2 9.2 0 0 1 1.651.467c.512.2.979.439 1.402.717.423.267.795.562 1.118.884l-1.168 1.819zm18.762 8.81c.39.423.812.723 1.269.901s.917.267 1.384.267a3.37 3.37 0 0 0 1.352-.267c.411-.189.762-.489 1.051-.901.3-.423.534-.973.701-1.652.167-.69.25-1.535.25-2.536 0-.868-.067-1.602-.2-2.202-.122-.612-.312-1.107-.567-1.485-.245-.389-.557-.667-.935-.834-.367-.178-.79-.267-1.268-.267-.634 0-1.184.139-1.652.417s-.928.684-1.385 1.218v7.341zm0-10.762c.668-.634 1.396-1.14 2.186-1.518.801-.389 1.691-.584 2.67-.584s1.869.2 2.669.601 1.485.973 2.053 1.719c.567.734 1.001 1.624 1.301 2.67.312 1.046.467 2.214.467 3.504 0 1.401-.178 2.675-.534 3.821s-.862 2.13-1.518 2.953c-.645.812-1.418 1.446-2.319 1.902-.901.445-1.897.667-2.987.667-.523 0-.99-.05-1.401-.15s-.79-.239-1.135-.417a5.2 5.2 0 0 1-.951-.667 11.67 11.67 0 0 1-.818-.834l-.183.868c-.089.356-.234.601-.434.734s-.467.2-.801.2h-3.437V1.023h5.172v9.51zm30.508-1.835V26h-3.204c-.645 0-1.067-.289-1.268-.868l-.3-1.001a10.92 10.92 0 0 1-1.034.884c-.356.256-.74.478-1.152.667-.4.178-.839.317-1.318.417-.467.111-.979.167-1.535.167-.945 0-1.785-.161-2.519-.484a5.28 5.28 0 0 1-1.836-1.385c-.5-.589-.878-1.285-1.134-2.086s-.384-1.68-.384-2.636V8.698h5.172v10.979c0 .857.195 1.518.584 1.985s.963.701 1.719.701a3.63 3.63 0 0 0 1.585-.35c.501-.245.984-.573 1.452-.984V8.698h5.172zm9.804 0V26h-5.172V8.698h5.172zm.534-4.739c0 .412-.083.801-.25 1.168-.167.356-.395.673-.684.951a3.53 3.53 0 0 1-1.018.651c-.378.156-.784.234-1.218.234a3 3 0 0 1-1.184-.234c-.367-.167-.696-.384-.985-.651-.278-.278-.5-.595-.667-.951-.156-.367-.234-.756-.234-1.168 0-.423.078-.818.234-1.185a3.27 3.27 0 0 1 .667-.968 3.23 3.23 0 0 1 .985-.651 3 3 0 0 1 1.184-.234c.434 0 .84.078 1.218.234a3.12 3.12 0 0 1 1.018.651 3.13 3.13 0 0 1 .684.968c.167.367.25.762.25 1.185zm9.247-2.937V26h-5.172V1.023h5.172zm14.992 12.314c-.389-.434-.812-.734-1.268-.901a3.91 3.91 0 0 0-1.435-.267 3.05 3.05 0 0 0-1.318.284c-.4.189-.751.495-1.051.918-.289.412-.517.951-.684 1.618s-.25 1.474-.25 2.419c0 .912.066 1.68.2 2.303s.317 1.129.55 1.518c.245.378.534.651.868.818s.706.25 1.118.25c.378 0 .717-.033 1.018-.1a3.86 3.86 0 0 0 .851-.317 3.45 3.45 0 0 0 .717-.5c.234-.211.462-.45.684-.718v-7.325zm5.173-12.314V26h-3.204c-.645 0-1.068-.289-1.268-.868l-.4-1.318c-.345.367-.707.701-1.085 1.001a7.04 7.04 0 0 1-1.235.784c-.433.211-.906.373-1.418.484a6.87 6.87 0 0 1-1.635.184c-.901 0-1.735-.2-2.503-.601s-1.429-.979-1.985-1.735-.996-1.68-1.318-2.77c-.312-1.101-.468-2.352-.468-3.754 0-1.29.178-2.486.534-3.587.356-1.112.857-2.069 1.502-2.87.656-.812 1.441-1.446 2.353-1.902s1.918-.684 3.02-.684c.901 0 1.657.128 2.269.384s1.168.601 1.668 1.034v-8.76h5.173zm15.257 14.249a4.36 4.36 0 0 0-.167-1.201 2.66 2.66 0 0 0-.517-1.034 2.52 2.52 0 0 0-.934-.751c-.39-.189-.863-.284-1.419-.284-.979 0-1.746.284-2.302.851-.556.556-.923 1.363-1.101 2.419h6.44zm-6.507 3.003c.167 1.446.606 2.497 1.318 3.154.712.645 1.63.968 2.753.968.601 0 1.118-.072 1.552-.217s.817-.306 1.151-.484l.934-.484c.29-.145.59-.217.901-.217.412 0 .723.15.935.451l1.501 1.852c-.534.612-1.112 1.112-1.735 1.502-.612.378-1.246.678-1.902.901-.645.211-1.296.356-1.952.434a13.57 13.57 0 0 1-1.852.133 9.91 9.91 0 0 1-3.421-.584c-1.056-.401-1.985-.99-2.786-1.769-.79-.779-1.418-1.746-1.885-2.903-.456-1.157-.684-2.503-.684-4.038a9.26 9.26 0 0 1 .583-3.287c.401-1.035.968-1.941 1.702-2.72.746-.779 1.641-1.396 2.687-1.852 1.056-.456 2.247-.684 3.57-.684 1.146 0 2.192.178 3.137.534.957.356 1.774.873 2.453 1.552.689.679 1.223 1.513 1.601 2.503.39.979.584 2.091.584 3.337 0 .389-.016.706-.05.951s-.094.439-.183.584-.211.245-.367.3c-.145.056-.334.083-.568.083h-9.977zm19.573-6.907c.534-.934 1.146-1.669 1.836-2.202.701-.534 1.501-.801 2.402-.801.779 0 1.413.184 1.903.551l-.334 3.804c-.056.245-.15.412-.284.501-.122.089-.295.133-.517.133-.089 0-.206-.006-.35-.017l-.451-.033-.484-.05c-.156-.022-.3-.033-.434-.033-.756 0-1.362.2-1.818.601-.445.4-.823.957-1.135 1.668V26h-5.172V8.698h3.07c.256 0 .467.022.634.067.178.044.322.117.434.217a.76.76 0 0 1 .267.367c.066.156.122.345.166.567l.267 1.452zm19.9 1.118c-.133.211-.278.362-.434.451-.144.089-.333.133-.567.133-.245 0-.489-.05-.734-.15l-.801-.35c-.278-.122-.595-.234-.951-.334a4.08 4.08 0 0 0-1.218-.167c-.656 0-1.162.128-1.518.384-.345.245-.518.589-.518 1.034a1.06 1.06 0 0 0 .334.801c.234.211.54.4.918.567.378.156.806.306 1.285.45l1.468.484c.5.178.99.389 1.468.634a5.18 5.18 0 0 1 1.285.884c.378.345.678.768.901 1.268.233.501.35 1.101.35 1.802 0 .857-.155 1.646-.467 2.369s-.779 1.346-1.401 1.869c-.612.523-1.374.929-2.286 1.218-.901.289-1.941.434-3.12.434a9.52 9.52 0 0 1-1.769-.167 12.59 12.59 0 0 1-1.719-.451c-.545-.189-1.051-.412-1.518-.667-.467-.267-.868-.551-1.201-.851l1.201-1.902c.134-.223.3-.395.501-.517.211-.134.478-.2.8-.2.301 0 .568.067.801.2l.785.434a6.6 6.6 0 0 0 .967.434c.378.134.851.2 1.419.2.4 0 .739-.039 1.017-.117.278-.089.501-.206.668-.35s.289-.306.367-.484a1.36 1.36 0 0 0 .117-.551c0-.345-.117-.628-.351-.851s-.539-.412-.917-.567c-.379-.167-.812-.317-1.302-.45l-1.468-.484a13.17 13.17 0 0 1-1.485-.634c-.478-.256-.907-.573-1.285-.951-.378-.389-.684-.862-.918-1.418s-.35-1.229-.35-2.019a5.29 5.29 0 0 1 .417-2.086c.289-.667.718-1.251 1.285-1.752s1.279-.895 2.136-1.185c.856-.3 1.857-.45 3.003-.45a9.53 9.53 0 0 1 1.802.167c.589.111 1.14.267 1.652.467s.979.439 1.401.717c.423.267.796.562 1.118.884l-1.168 1.819zM423.158 26V12.252l-1.134-.234c-.39-.089-.707-.228-.951-.417-.234-.189-.351-.467-.351-.834V8.731h2.436v-.984c0-.99.156-1.885.467-2.686.323-.801.779-1.485 1.368-2.052.601-.567 1.33-1.007 2.186-1.318s1.83-.467 2.92-.467c.423 0 .812.028 1.168.083.356.044.729.122 1.118.234l-.1 2.519c-.011.178-.056.328-.134.45a.98.98 0 0 1-.317.284 1.57 1.57 0 0 1-.4.15c-.145.033-.289.05-.434.05-.456 0-.862.045-1.218.133a1.97 1.97 0 0 0-.901.484c-.234.222-.411.523-.534.901-.122.367-.183.834-.183 1.402v.818h4.054v3.537h-3.888V26h-5.172zm16.776-14.633c.534-.934 1.145-1.669 1.835-2.202a3.86 3.86 0 0 1 2.403-.801c.778 0 1.412.184 1.902.551l-.334 3.804c-.056.245-.15.412-.284.501-.122.089-.294.133-.517.133-.089 0-.206-.006-.35-.017l-.451-.033-.484-.05a3.06 3.06 0 0 0-.433-.033c-.757 0-1.363.2-1.819.601-.445.4-.823.957-1.135 1.668V26h-5.172V8.698h3.07c.256 0 .467.022.634.067.178.044.323.117.434.217a.76.76 0 0 1 .267.367 2.91 2.91 0 0 1 .167.567l.267 1.452zm16.586-2.937c1.313 0 2.508.206 3.587.617s2.002 1.001 2.77 1.769c.779.767 1.379 1.702 1.802 2.803.434 1.09.651 2.319.651 3.687 0 1.379-.217 2.625-.651 3.738-.423 1.101-1.023 2.041-1.802 2.82-.768.767-1.691 1.363-2.77 1.785-1.079.412-2.274.617-3.587.617-1.324 0-2.531-.206-3.621-.617-1.079-.423-2.013-1.018-2.803-1.785-.778-.779-1.385-1.718-1.818-2.82-.423-1.112-.634-2.358-.634-3.738 0-1.368.211-2.597.634-3.687.433-1.101 1.04-2.036 1.818-2.803.79-.768 1.724-1.357 2.803-1.769 1.09-.412 2.297-.617 3.621-.617zm0 13.999c1.19 0 2.063-.417 2.62-1.251.567-.845.85-2.125.85-3.838s-.283-2.987-.85-3.821c-.557-.834-1.43-1.251-2.62-1.251-1.224 0-2.119.417-2.686 1.251s-.851 2.108-.851 3.821.283 2.992.851 3.838c.567.834 1.462 1.251 2.686 1.251zM468.935 26V8.698h3.204c.645 0 1.068.289 1.268.868l.284.934c.289-.3.589-.573.901-.818a5.31 5.31 0 0 1 1.001-.651 5.24 5.24 0 0 1 1.168-.434c.422-.111.884-.167 1.385-.167 1.045 0 1.907.273 2.586.818.689.534 1.212 1.251 1.568 2.152a5.21 5.21 0 0 1 1.051-1.368c.423-.378.874-.684 1.352-.918.489-.234 1.001-.406 1.535-.517.545-.111 1.084-.167 1.618-.167.99 0 1.869.15 2.637.45.767.289 1.407.717 1.918 1.285.523.556.918 1.246 1.185 2.069.267.812.4 1.735.4 2.77V26h-5.172V15.005c0-1.791-.768-2.686-2.303-2.686-.7 0-1.284.234-1.751.701-.457.456-.685 1.118-.685 1.986V26h-5.172V15.005c0-.99-.195-1.685-.584-2.086s-.962-.601-1.718-.601c-.468 0-.913.106-1.335.317-.412.211-.801.495-1.168.851V26h-5.173zm48.321-4.255c.746 0 1.352-.095 1.819-.284.478-.189.851-.434 1.118-.734a2.46 2.46 0 0 0 .55-1.018c.101-.378.151-.762.151-1.151a3.69 3.69 0 0 0-.184-1.201c-.111-.356-.311-.656-.601-.901-.278-.245-.65-.434-1.117-.567s-1.057-.2-1.769-.2h-3.938v6.057h3.971zm-3.971-15.834v6.007h2.937c.623 0 1.184-.044 1.685-.133s.923-.245 1.268-.467c.356-.223.623-.528.801-.918.189-.389.284-.879.284-1.468 0-.578-.073-1.057-.217-1.435-.145-.389-.367-.701-.668-.934s-.684-.4-1.151-.501c-.456-.1-1.001-.15-1.635-.15h-3.304zm3.304-4.221c1.68 0 3.109.156 4.288.467s2.141.751 2.886 1.318 1.285 1.257 1.619 2.069c.345.812.517 1.719.517 2.72 0 .545-.078 1.073-.233 1.585-.156.501-.401.973-.735 1.418-.333.434-.762.834-1.284 1.201s-1.152.684-1.886.951c1.602.389 2.787 1.018 3.554 1.885s1.151 1.991 1.151 3.37c0 1.035-.2 1.997-.6 2.887a6.65 6.65 0 0 1-1.769 2.336c-.767.656-1.718 1.174-2.853 1.552-1.135.367-2.43.551-3.888.551h-9.71V1.69h8.943zm22.478 17.269c-1.034.044-1.885.134-2.553.267s-1.195.3-1.585.501-.661.428-.817.684c-.145.256-.217.534-.217.834 0 .589.161 1.007.484 1.251.322.234.795.35 1.418.35.667 0 1.251-.117 1.752-.35s1.007-.612 1.518-1.134v-2.403zm-9.31-7.859c1.046-.923 2.202-1.607 3.471-2.052 1.279-.456 2.647-.684 4.104-.684 1.046 0 1.986.172 2.82.517.845.334 1.557.806 2.135 1.418.59.601 1.04 1.318 1.352 2.152s.467 1.746.467 2.736V26h-2.369c-.49 0-.862-.067-1.118-.2-.245-.134-.451-.412-.617-.834l-.367-.951-1.252.968a8.23 8.23 0 0 1-1.251.718 5.95 5.95 0 0 1-1.368.417c-.479.1-1.013.15-1.602.15-.79 0-1.507-.1-2.153-.3a4.67 4.67 0 0 1-1.651-.918c-.445-.401-.79-.895-1.035-1.485-.244-.601-.367-1.29-.367-2.069 0-.623.156-1.251.467-1.885.312-.645.851-1.229 1.619-1.752.767-.534 1.802-.979 3.103-1.335s2.942-.556 4.922-.601v-.734c0-1.012-.211-1.741-.634-2.186-.411-.456-1.001-.684-1.768-.684-.612 0-1.113.067-1.502.2s-.74.284-1.051.45l-.884.45c-.29.134-.635.2-1.035.2-.356 0-.656-.089-.901-.267a2.32 2.32 0 0 1-.601-.634l-.934-1.618zm23.428-.534c.334-.312.679-.601 1.035-.868a5.85 5.85 0 0 1 1.134-.667c.412-.189.851-.334 1.318-.434a6.85 6.85 0 0 1 1.552-.167c.946 0 1.78.167 2.503.501a5.07 5.07 0 0 1 1.852 1.368c.501.578.879 1.274 1.135 2.086.255.801.383 1.674.383 2.62V26h-5.172V15.005c0-.845-.195-1.502-.584-1.969-.389-.478-.962-.717-1.719-.717-.567 0-1.101.122-1.601.367-.49.234-.968.556-1.435.968V26h-5.173V8.698h3.204c.645 0 1.068.289 1.268.868l.3 1.001zm21.851 5.873c.857 0 1.474-.211 1.853-.634.389-.434.583-.99.583-1.668 0-.701-.194-1.251-.583-1.652-.379-.4-.996-.601-1.853-.601s-1.479.2-1.868.601c-.378.401-.568.951-.568 1.652 0 .334.045.64.134.918a2.08 2.08 0 0 0 .45.734c.201.2.451.362.751.484.312.111.679.167 1.101.167zm4.005 10.195a.91.91 0 0 0-.551-.884c-.367-.189-.845-.323-1.435-.4a17.24 17.24 0 0 0-1.985-.133l-2.169-.134a3.45 3.45 0 0 0-.801.751 1.49 1.49 0 0 0-.3.918c0 .245.05.467.15.667.111.2.3.373.567.517s.623.256 1.068.334c.456.089 1.029.133 1.718.133.746 0 1.357-.044 1.836-.133s.856-.211 1.134-.367c.29-.156.49-.345.601-.567.111-.211.167-.445.167-.701zm5.105-17.402v1.885c0 .289-.083.517-.25.684-.156.167-.428.295-.817.384l-1.252.284a5.51 5.51 0 0 1 .15.751c.045.256.067.523.067.801 0 .868-.183 1.646-.55 2.336-.356.69-.851 1.279-1.485 1.769-.623.478-1.363.851-2.22 1.118-.856.256-1.774.384-2.753.384-.266 0-.528-.006-.784-.017l-.751-.1c-.378.234-.567.495-.567.784s.156.501.467.634c.312.122.723.211 1.235.267l1.735.1 2.002.117c.679.056 1.341.156 1.986.3.656.145 1.24.378 1.752.701s.923.756 1.235 1.302c.311.534.467 1.218.467 2.052 0 .779-.189 1.541-.568 2.286s-.934 1.407-1.668 1.986-1.635 1.04-2.703 1.385c-1.068.356-2.291.534-3.671.534-1.357 0-2.53-.128-3.52-.384-.979-.256-1.797-.595-2.453-1.018-.645-.412-1.123-.89-1.435-1.435s-.467-1.112-.467-1.702c0-.767.222-1.407.667-1.919s1.068-.923 1.869-1.235c-.423-.256-.756-.584-1.001-.985s-.367-.918-.367-1.552c0-.256.044-.523.133-.801.089-.289.228-.567.418-.834.2-.278.444-.54.734-.784s.634-.462 1.034-.651c-.901-.478-1.613-1.107-2.136-1.885-.522-.79-.784-1.707-.784-2.753 0-.868.184-1.646.551-2.336a5.23 5.23 0 0 1 1.502-1.769c.645-.489 1.401-.862 2.269-1.118.867-.267 1.807-.4 2.819-.4 1.469 0 2.77.278 3.905.834h5.205zm12.086 9.727c-1.035.044-1.886.134-2.553.267s-1.196.3-1.585.501-.662.428-.818.684c-.144.256-.217.534-.217.834 0 .589.162 1.007.484 1.251.323.234.795.35 1.418.35.668 0 1.252-.117 1.752-.35s1.007-.612 1.519-1.134v-2.403zm-9.311-7.859c1.046-.923 2.203-1.607 3.471-2.052 1.279-.456 2.647-.684 4.104-.684 1.046 0 1.986.172 2.82.517.846.334 1.557.806 2.136 1.418.589.601 1.04 1.318 1.351 2.152s.467 1.746.467 2.736V26h-2.369c-.489 0-.862-.067-1.118-.2-.244-.134-.45-.412-.617-.834l-.367-.951-1.251.968c-.401.278-.818.517-1.252.718a5.95 5.95 0 0 1-1.368.417 7.84 7.84 0 0 1-1.602.15c-.79 0-1.507-.1-2.152-.3-.645-.211-1.196-.517-1.652-.918-.445-.401-.79-.895-1.034-1.485-.245-.601-.367-1.29-.367-2.069 0-.623.155-1.251.467-1.885.311-.645.851-1.229 1.618-1.752.768-.534 1.802-.979 3.104-1.335s2.942-.556 4.922-.601v-.734c0-1.012-.212-1.741-.634-2.186-.412-.456-1.002-.684-1.769-.684-.612 0-1.112.067-1.502.2s-.739.284-1.051.45l-.884.45c-.289.134-.634.2-1.035.2-.356 0-.656-.089-.901-.267a2.32 2.32 0 0 1-.6-.634l-.935-1.618zM610.75 1.023V26h-5.172V1.023h5.172zm12.473 7.408c1.312 0 2.508.206 3.587.617s2.002 1.001 2.77 1.769c.778.767 1.379 1.702 1.802 2.803.433 1.09.65 2.319.65 3.687 0 1.379-.217 2.625-.65 3.738-.423 1.101-1.024 2.041-1.802 2.82-.768.767-1.691 1.363-2.77 1.785-1.079.412-2.275.617-3.587.617-1.324 0-2.531-.206-3.621-.617-1.079-.423-2.013-1.018-2.803-1.785-.779-.779-1.385-1.718-1.819-2.82-.422-1.112-.634-2.358-.634-3.738 0-1.368.212-2.597.634-3.687.434-1.101 1.04-2.036 1.819-2.803.79-.768 1.724-1.357 2.803-1.769 1.09-.412 2.297-.617 3.621-.617zm0 13.999c1.19 0 2.063-.417 2.619-1.251.568-.845.851-2.125.851-3.838s-.283-2.987-.851-3.821c-.556-.834-1.429-1.251-2.619-1.251-1.224 0-2.119.417-2.687 1.251s-.851 2.108-.851 3.821.284 2.992.851 3.838c.568.834 1.463 1.251 2.687 1.251zm17.254-11.062c.534-.934 1.146-1.669 1.835-2.202a3.86 3.86 0 0 1 2.403-.801c.778 0 1.413.184 1.902.551l-.334 3.804c-.055.245-.15.412-.283.501-.123.089-.295.133-.518.133a4.79 4.79 0 0 1-.35-.017l-.451-.033-.483-.05c-.156-.022-.301-.033-.434-.033-.757 0-1.363.2-1.819.601-.445.4-.823.957-1.134 1.668V26h-5.173V8.698h3.07c.256 0 .467.022.634.067.178.044.323.117.434.217a.76.76 0 0 1 .267.367 2.91 2.91 0 0 1 .167.567l.267 1.452zm19.373 3.904a4.36 4.36 0 0 0-.167-1.201c-.1-.389-.273-.734-.517-1.034-.234-.312-.545-.562-.935-.751s-.862-.284-1.418-.284c-.979 0-1.746.284-2.303.851-.556.556-.923 1.363-1.101 2.419h6.441zm-6.507 3.003c.166 1.446.606 2.497 1.318 3.154.712.645 1.629.968 2.753.968.6 0 1.118-.072 1.551-.217s.818-.306 1.152-.484l.934-.484a1.99 1.99 0 0 1 .901-.217c.412 0 .723.15.934.451l1.502 1.852c-.534.612-1.112 1.112-1.735 1.502-.612.378-1.246.678-1.902.901-.645.211-1.296.356-1.952.434-.646.089-1.263.133-1.853.133-1.212 0-2.352-.195-3.42-.584a8.04 8.04 0 0 1-2.786-1.769c-.79-.779-1.419-1.746-1.886-2.903-.456-1.157-.684-2.503-.684-4.038a9.26 9.26 0 0 1 .584-3.287c.401-1.035.968-1.941 1.702-2.72.745-.779 1.641-1.396 2.686-1.852 1.057-.456 2.247-.684 3.571-.684 1.146 0 2.191.178 3.137.534a6.74 6.74 0 0 1 2.452 1.552c.69.679 1.224 1.513 1.602 2.503.389.979.584 2.091.584 3.337a7.37 7.37 0 0 1-.05.951c-.033.245-.094.439-.183.584s-.212.245-.368.3c-.144.056-.333.083-.567.083h-9.977z" fill="#fff"></path>
</svg>
