<?xml version="1.0" encoding="UTF-8"?>
<svg xmlns="http://www.w3.org/2000/svg" xmlns:v="https://vecta.io/nano" width="888" height="32" fill="none">
  <path d="M6.025 6.028v5.673h7.642v4.171H6.025v5.79h9.978V26H.353V1.69h15.651v4.338H6.025zm22.783 12.931c-1.034.044-1.885.134-2.553.267s-1.196.3-1.585.501-.662.428-.818.684c-.145.256-.217.534-.217.834 0 .589.161 1.007.484 1.251.323.234.795.35 1.418.35.667 0 1.251-.117 1.752-.35s1.007-.612 1.518-1.134v-2.403zm-9.31-7.859a10.42 10.42 0 0 1 3.47-2.052c1.279-.456 2.647-.684 4.105-.684 1.046 0 1.986.172 2.82.517.845.334 1.557.806 2.136 1.418.59.601 1.04 1.318 1.352 2.152s.467 1.746.467 2.736V26h-2.369c-.489 0-.862-.067-1.118-.2-.245-.134-.45-.412-.617-.834l-.367-.951-1.251.968a8.26 8.26 0 0 1-1.251.718 5.94 5.94 0 0 1-1.368.417c-.478.1-1.012.15-1.602.15-.79 0-1.507-.1-2.152-.3-.645-.211-1.196-.517-1.652-.918a4.06 4.06 0 0 1-1.034-1.485c-.245-.601-.367-1.29-.367-2.069 0-.623.156-1.251.467-1.885.311-.645.851-1.229 1.618-1.752.767-.534 1.802-.979 3.103-1.335s2.942-.556 4.922-.601v-.734c0-1.012-.211-1.741-.634-2.186-.412-.456-1.001-.684-1.769-.684-.612 0-1.112.067-1.502.2a7.12 7.12 0 0 0-1.051.45l-.884.45c-.289.134-.634.2-1.034.2-.356 0-.656-.089-.901-.267a2.32 2.32 0 0 1-.601-.634l-.934-1.618zm23.495.267c.534-.934 1.146-1.669 1.835-2.202.701-.534 1.502-.801 2.403-.801.779 0 1.413.184 1.902.551l-.334 3.804c-.056.245-.15.412-.284.501-.122.089-.295.133-.517.133a4.79 4.79 0 0 1-.35-.017l-.451-.033-.484-.05a3.07 3.07 0 0 0-.434-.033c-.756 0-1.363.2-1.819.601-.445.4-.823.957-1.135 1.668V26h-5.172V8.698h3.07c.256 0 .467.022.634.067.178.044.322.117.434.217.122.089.211.211.267.367a2.89 2.89 0 0 1 .167.567l.267 1.452zM57.07 1.023V26h-5.172V1.023h5.172zm20.932 7.675l-9.243 21.791c-.156.345-.345.595-.567.751-.222.167-.578.25-1.068.25h-3.871l3.337-7.008-6.908-15.784h4.572c.4 0 .706.089.918.267.222.178.384.389.484.634l2.836 7.458a15.09 15.09 0 0 1 .651 2.086l.367-1.068.384-1.051 2.569-7.425a1.33 1.33 0 0 1 .534-.634 1.43 1.43 0 0 1 .834-.267h4.171zm15.572 12.597c.389.423.812.723 1.268.901a3.78 3.78 0 0 0 1.385.267c.489 0 .94-.089 1.352-.267.412-.189.762-.489 1.051-.901.3-.423.534-.973.701-1.652.167-.69.25-1.535.25-2.536 0-.868-.067-1.602-.2-2.202-.122-.612-.311-1.107-.567-1.485-.245-.389-.556-.667-.934-.834-.367-.178-.79-.267-1.268-.267-.634 0-1.185.139-1.652.417s-.929.684-1.385 1.218v7.341zm0-10.762c.667-.634 1.396-1.14 2.186-1.518.801-.389 1.691-.584 2.67-.584s1.869.2 2.67.601 1.485.973 2.052 1.719c.567.734 1.001 1.624 1.301 2.67.312 1.046.468 2.214.468 3.504 0 1.401-.178 2.675-.534 3.821s-.862 2.13-1.519 2.953c-.645.812-1.418 1.446-2.319 1.902-.901.445-1.896.667-2.987.667-.523 0-.99-.05-1.402-.15s-.79-.239-1.134-.417c-.345-.189-.662-.412-.951-.667-.278-.256-.551-.534-.817-.834l-.184.868c-.089.356-.234.601-.434.734s-.467.2-.801.2h-3.437V1.023h5.172v9.51zm20.279-1.835V26h-5.172V8.698h5.172zm.534-4.739c0 .412-.083.801-.25 1.168-.167.356-.395.673-.684.951-.289.267-.629.484-1.018.651-.378.156-.784.234-1.218.234-.423 0-.817-.078-1.185-.234a3.69 3.69 0 0 1-.984-.651c-.278-.278-.5-.595-.667-.951-.156-.367-.234-.756-.234-1.168 0-.423.078-.818.234-1.185a3.27 3.27 0 0 1 .667-.968c.289-.278.617-.495.984-.651s.762-.234 1.185-.234c.434 0 .84.078 1.218.234a3.13 3.13 0 0 1 1.018.651 3.13 3.13 0 0 1 .684.968c.167.367.25.762.25 1.185zm8.913 7.408c.534-.934 1.146-1.669 1.836-2.202.701-.534 1.501-.801 2.402-.801.779 0 1.413.184 1.903.551l-.334 3.804c-.056.245-.15.412-.284.501-.122.089-.295.133-.517.133-.089 0-.206-.006-.35-.017l-.451-.033-.484-.05c-.156-.022-.3-.033-.434-.033-.756 0-1.362.2-1.818.601-.445.4-.823.957-1.135 1.668V26h-5.172V8.698h3.07c.256 0 .467.022.634.067.178.044.322.117.434.217a.76.76 0 0 1 .267.367c.066.156.122.345.166.567l.267 1.452zm19.139 1.969c-.389-.434-.812-.734-1.268-.901-.456-.178-.935-.267-1.435-.267-.478 0-.918.095-1.318.284s-.751.495-1.051.918c-.29.412-.518.951-.684 1.618s-.251 1.474-.251 2.419c0 .912.067 1.68.201 2.303s.317 1.129.55 1.518c.245.378.534.651.868.818s.706.25 1.118.25c.378 0 .717-.033 1.017-.1.312-.078.596-.183.851-.317s.495-.3.718-.5c.233-.211.461-.45.684-.718v-7.325zm5.172-12.314V26h-3.203c-.645 0-1.068-.289-1.268-.868l-.401-1.318a10.19 10.19 0 0 1-1.084 1.001 7.04 7.04 0 0 1-1.235.784c-.434.211-.907.373-1.418.484a6.88 6.88 0 0 1-1.635.184c-.901 0-1.736-.2-2.503-.601s-1.429-.979-1.986-1.735-.995-1.68-1.318-2.77c-.311-1.101-.467-2.352-.467-3.754 0-1.29.178-2.486.534-3.587.356-1.112.857-2.069 1.502-2.87a7.05 7.05 0 0 1 2.352-1.902c.912-.456 1.919-.684 3.02-.684.901 0 1.658.128 2.269.384s1.168.601 1.669 1.034v-8.76h5.172zm23.982 14.249a4.36 4.36 0 0 0-.167-1.201 2.66 2.66 0 0 0-.517-1.034 2.52 2.52 0 0 0-.934-.751c-.39-.189-.862-.284-1.419-.284-.978 0-1.746.284-2.302.851-.556.556-.923 1.363-1.101 2.419h6.44zm-6.507 3.003c.167 1.446.606 2.497 1.318 3.154.712.645 1.63.968 2.753.968.601 0 1.118-.072 1.552-.217s.817-.306 1.151-.484l.934-.484c.29-.145.59-.217.901-.217.412 0 .723.15.935.451l1.501 1.852c-.534.612-1.112 1.112-1.735 1.502-.612.378-1.246.678-1.902.901-.645.211-1.296.356-1.952.434a13.57 13.57 0 0 1-1.852.133 9.91 9.91 0 0 1-3.421-.584c-1.056-.401-1.985-.99-2.786-1.769-.79-.779-1.418-1.746-1.885-2.903-.456-1.157-.684-2.503-.684-4.038 0-1.157.194-2.253.584-3.287.4-1.035.967-1.941 1.701-2.72.746-.779 1.641-1.396 2.687-1.852 1.056-.456 2.247-.684 3.57-.684 1.146 0 2.192.178 3.137.534.957.356 1.774.873 2.453 1.552.689.679 1.223 1.513 1.602 2.503.389.979.584 2.091.584 3.337 0 .389-.017.706-.051.951s-.094.439-.183.584-.211.245-.367.3a1.61 1.61 0 0 1-.567.083h-9.978zM196.079 26h-4.972c-.367 0-.667-.089-.901-.267-.222-.178-.4-.389-.534-.634l-3.087-5.306a3.7 3.7 0 0 1-.2.534 4.64 4.64 0 0 1-.25.467l-2.536 4.305a3.62 3.62 0 0 1-.551.617c-.211.189-.484.284-.817.284h-4.606l5.807-8.943-5.573-8.359h4.972c.367 0 .634.05.801.15.178.089.334.245.467.467l3.087 5.122a3.88 3.88 0 0 1 .25-.584l.334-.601 2.202-3.854c.156-.245.317-.423.484-.534.178-.111.395-.167.651-.167h4.739l-5.573 8.126L196.079 26zm7.773-4.705c.39.423.812.723 1.269.901a3.91 3.91 0 0 0 1.434.267 3.05 3.05 0 0 0 1.319-.284c.4-.189.745-.489 1.034-.901.3-.423.534-.968.701-1.635s.25-1.479.25-2.436c0-.912-.067-1.68-.2-2.302s-.323-1.123-.567-1.502c-.234-.389-.518-.667-.851-.834s-.707-.25-1.118-.25c-.757 0-1.38.139-1.869.417s-.957.684-1.402 1.218v7.341zm-.317-10.461c.679-.723 1.447-1.313 2.303-1.769.868-.467 1.897-.701 3.087-.701.901 0 1.735.2 2.502.601s1.43.979 1.986 1.735.99 1.685 1.301 2.786c.323 1.09.484 2.33.484 3.721 0 1.301-.183 2.503-.55 3.604-.356 1.101-.862 2.058-1.519 2.87-.645.812-1.423 1.446-2.336 1.902-.901.456-1.902.684-3.003.684-.901 0-1.657-.128-2.269-.384s-1.168-.601-1.669-1.034v6.641h-5.172V8.698h3.204c.645 0 1.067.289 1.268.868l.383 1.268zm20.179.534c.534-.934 1.146-1.669 1.836-2.202.7-.534 1.501-.801 2.402-.801.779 0 1.413.184 1.902.551l-.333 3.804c-.056.245-.151.412-.284.501-.122.089-.295.133-.517.133-.089 0-.206-.006-.351-.017l-.45-.033-.484-.05c-.156-.022-.3-.033-.434-.033-.756 0-1.363.2-1.819.601-.444.4-.823.957-1.134 1.668V26h-5.172V8.698h3.07a2.52 2.52 0 0 1 .634.067c.178.044.322.117.433.217.123.089.212.211.267.367.067.156.123.345.167.567l.267 1.452zm19.373 3.904a4.36 4.36 0 0 0-.167-1.201 2.66 2.66 0 0 0-.517-1.034 2.52 2.52 0 0 0-.934-.751c-.39-.189-.862-.284-1.419-.284-.979 0-1.746.284-2.302.851-.556.556-.923 1.363-1.101 2.419h6.44zm-6.507 3.003c.167 1.446.606 2.497 1.318 3.154.712.645 1.63.968 2.753.968.601 0 1.118-.072 1.552-.217s.817-.306 1.151-.484l.934-.484c.29-.145.59-.217.901-.217.412 0 .723.15.935.451l1.501 1.852c-.534.612-1.112 1.112-1.735 1.502-.612.378-1.246.678-1.902.901-.645.211-1.296.356-1.952.434a13.57 13.57 0 0 1-1.852.133 9.91 9.91 0 0 1-3.421-.584c-1.056-.401-1.985-.99-2.786-1.769-.79-.779-1.418-1.746-1.885-2.903-.456-1.157-.684-2.503-.684-4.038a9.26 9.26 0 0 1 .583-3.287c.401-1.035.968-1.941 1.702-2.72.746-.779 1.641-1.396 2.687-1.852 1.056-.456 2.247-.684 3.57-.684 1.146 0 2.192.178 3.137.534.957.356 1.774.873 2.453 1.552.689.679 1.223 1.513 1.601 2.503.39.979.584 2.091.584 3.337 0 .389-.016.706-.05.951s-.094.439-.183.584-.211.245-.367.3c-.145.056-.334.083-.568.083h-9.977zm25.73-5.79c-.133.211-.278.362-.434.451-.144.089-.333.133-.567.133-.245 0-.489-.05-.734-.15l-.801-.35c-.278-.122-.595-.234-.951-.334a4.08 4.08 0 0 0-1.218-.167c-.656 0-1.162.128-1.518.384-.345.245-.518.589-.518 1.034a1.06 1.06 0 0 0 .334.801c.234.211.54.4.918.567.378.156.806.306 1.285.45l1.468.484c.5.178.99.389 1.468.634a5.18 5.18 0 0 1 1.285.884c.378.345.678.768.901 1.268.233.501.35 1.101.35 1.802 0 .857-.155 1.646-.467 2.369s-.779 1.346-1.401 1.869c-.612.523-1.374.929-2.286 1.218-.901.289-1.941.434-3.12.434-.59 0-1.179-.056-1.769-.167a12.59 12.59 0 0 1-1.719-.451c-.545-.189-1.051-.412-1.518-.667-.467-.267-.868-.551-1.201-.851l1.201-1.902c.134-.223.3-.395.501-.517.211-.134.478-.2.801-.2a1.58 1.58 0 0 1 .8.2l.785.434a6.6 6.6 0 0 0 .967.434c.379.134.851.2 1.419.2.4 0 .739-.039 1.017-.117.278-.089.501-.206.668-.35s.289-.306.367-.484a1.36 1.36 0 0 0 .117-.551c0-.345-.117-.628-.351-.851s-.539-.412-.917-.567c-.379-.167-.812-.317-1.302-.45l-1.468-.484a13.17 13.17 0 0 1-1.485-.634c-.478-.256-.907-.573-1.285-.951-.378-.389-.684-.862-.918-1.418s-.35-1.229-.35-2.019a5.29 5.29 0 0 1 .417-2.086c.289-.667.718-1.251 1.285-1.752s1.279-.895 2.136-1.185c.856-.3 1.857-.45 3.003-.45a9.53 9.53 0 0 1 1.802.167c.589.111 1.14.267 1.652.467s.979.439 1.401.717c.423.267.796.562 1.118.884l-1.168 1.819zm15.861 0c-.133.211-.278.362-.433.451-.145.089-.334.133-.568.133a1.93 1.93 0 0 1-.734-.15l-.801-.35c-.278-.122-.595-.234-.951-.334a4.08 4.08 0 0 0-1.218-.167c-.656 0-1.162.128-1.518.384-.345.245-.517.589-.517 1.034 0 .323.111.59.333.801.234.211.54.4.918.567.378.156.806.306 1.285.45l1.468.484a12.13 12.13 0 0 1 1.468.634c.479.234.907.528 1.285.884a3.75 3.75 0 0 1 .901 1.268c.234.501.35 1.101.35 1.802 0 .857-.155 1.646-.467 2.369s-.778 1.346-1.401 1.869c-.612.523-1.374.929-2.286 1.218-.901.289-1.941.434-3.12.434-.59 0-1.179-.056-1.769-.167s-1.162-.261-1.718-.451a9.93 9.93 0 0 1-1.519-.667 6.94 6.94 0 0 1-1.201-.851l1.201-1.902c.134-.223.301-.395.501-.517.211-.134.478-.2.801-.2.3 0 .567.067.801.2l.784.434c.278.156.6.3.968.434.378.134.85.2 1.418.2a3.83 3.83 0 0 0 1.018-.117c.278-.089.5-.206.667-.35s.289-.306.367-.484a1.36 1.36 0 0 0 .117-.551c0-.345-.117-.628-.351-.851s-.539-.412-.917-.567a9.28 9.28 0 0 0-1.302-.45l-1.468-.484a13.17 13.17 0 0 1-1.485-.634c-.478-.256-.906-.573-1.285-.951-.378-.389-.684-.862-.917-1.418s-.351-1.229-.351-2.019a5.29 5.29 0 0 1 .417-2.086c.29-.667.718-1.251 1.285-1.752s1.279-.895 2.136-1.185c.856-.3 1.857-.45 3.003-.45a9.52 9.52 0 0 1 1.802.167 9.21 9.21 0 0 1 1.652.467c.512.2.979.439 1.401.717.423.267.796.562 1.118.884l-1.168 1.819zm10.155-3.787V26h-5.172V8.698h5.172zm.534-4.739c0 .412-.083.801-.25 1.168-.167.356-.395.673-.684.951-.289.267-.629.484-1.018.651-.378.156-.784.234-1.218.234a3 3 0 0 1-1.185-.234 3.69 3.69 0 0 1-.984-.651c-.278-.278-.501-.595-.667-.951-.156-.367-.234-.756-.234-1.168 0-.423.078-.818.234-1.185.166-.367.389-.69.667-.968.289-.278.617-.495.984-.651s.762-.234 1.185-.234c.434 0 .84.078 1.218.234a3.13 3.13 0 0 1 1.018.651 3.13 3.13 0 0 1 .684.968c.167.367.25.762.25 1.185zm12.05 4.472c1.313 0 2.508.206 3.587.617s2.003 1.001 2.77 1.769c.779.767 1.379 1.702 1.802 2.803.434 1.09.651 2.319.651 3.687 0 1.379-.217 2.625-.651 3.738-.423 1.101-1.023 2.041-1.802 2.82-.767.767-1.691 1.363-2.77 1.785-1.079.412-2.274.617-3.587.617-1.323 0-2.53-.206-3.62-.617-1.079-.423-2.014-1.018-2.804-1.785-.778-.779-1.384-1.718-1.818-2.82-.423-1.112-.634-2.358-.634-3.738 0-1.368.211-2.597.634-3.687.434-1.101 1.04-2.036 1.818-2.803a8.13 8.13 0 0 1 2.804-1.769c1.09-.412 2.297-.617 3.62-.617zm0 13.999c1.19 0 2.064-.417 2.62-1.251.567-.845.851-2.125.851-3.838s-.284-2.987-.851-3.821c-.556-.834-1.43-1.251-2.62-1.251-1.223 0-2.119.417-2.686 1.251s-.851 2.108-.851 3.821.284 2.992.851 3.838c.567.834 1.463 1.251 2.686 1.251zm17.188-11.863c.333-.312.678-.601 1.034-.868s.734-.489 1.135-.667a6.31 6.31 0 0 1 1.318-.434c.478-.111.995-.167 1.551-.167.946 0 1.78.167 2.503.501a5.06 5.06 0 0 1 1.852 1.368c.501.578.879 1.274 1.135 2.086.256.801.384 1.674.384 2.62V26h-5.173V15.005c0-.845-.194-1.502-.584-1.969-.389-.478-.962-.717-1.718-.717-.568 0-1.102.122-1.602.367-.49.234-.968.556-1.435.968V26h-5.172V8.698h3.203c.645 0 1.068.289 1.268.868l.301 1.001zm31.96-2.136c1.312 0 2.508.206 3.587.617s2.002 1.001 2.77 1.769c.779.767 1.379 1.702 1.802 2.803.434 1.09.651 2.319.651 3.687 0 1.379-.217 2.625-.651 3.738-.423 1.101-1.023 2.041-1.802 2.82-.768.767-1.691 1.363-2.77 1.785-1.079.412-2.275.617-3.587.617-1.324 0-2.531-.206-3.621-.617-1.079-.423-2.013-1.018-2.803-1.785-.778-.779-1.385-1.718-1.818-2.82-.423-1.112-.634-2.358-.634-3.738 0-1.368.211-2.597.634-3.687.433-1.101 1.04-2.036 1.818-2.803.79-.768 1.724-1.357 2.803-1.769 1.09-.412 2.297-.617 3.621-.617zm0 13.999c1.19 0 2.063-.417 2.619-1.251.568-.845.851-2.125.851-3.838s-.283-2.987-.851-3.821c-.556-.834-1.429-1.251-2.619-1.251-1.224 0-2.119.417-2.686 1.251s-.851 2.108-.851 3.821.283 2.992.851 3.838c.567.834 1.462 1.251 2.686 1.251zM363.269 26V12.252l-1.134-.234c-.39-.089-.707-.228-.951-.417-.234-.189-.351-.467-.351-.834V8.731h2.436v-.984c0-.99.156-1.885.467-2.686.323-.801.779-1.485 1.369-2.052.6-.567 1.329-1.007 2.185-1.318s1.83-.467 2.92-.467c.423 0 .812.028 1.168.083.356.044.729.122 1.118.234l-.1 2.519c-.011.178-.056.328-.133.45a.99.99 0 0 1-.317.284c-.123.067-.256.117-.401.15s-.289.05-.434.05c-.456 0-.862.045-1.218.133a1.97 1.97 0 0 0-.901.484c-.233.222-.411.523-.534.901-.122.367-.183.834-.183 1.402v.818h4.054v3.537h-3.887V26h-5.173zm25.299-17.302V26h-5.172V8.698h5.172zm.534-4.739c0 .412-.084.801-.25 1.168-.167.356-.395.673-.684.951a3.56 3.56 0 0 1-1.018.651c-.378.156-.784.234-1.218.234a3 3 0 0 1-1.185-.234 3.69 3.69 0 0 1-.984-.651c-.278-.278-.501-.595-.668-.951a2.97 2.97 0 0 1-.233-1.168c0-.423.078-.818.233-1.185.167-.367.39-.69.668-.968.289-.278.617-.495.984-.651s.762-.234 1.185-.234c.434 0 .84.078 1.218.234a3.14 3.14 0 0 1 1.018.651 3.13 3.13 0 0 1 .684.968 2.84 2.84 0 0 1 .25 1.185zm8.846 6.607c.334-.312.679-.601 1.035-.868a5.85 5.85 0 0 1 1.134-.667c.412-.189.851-.334 1.318-.434a6.85 6.85 0 0 1 1.552-.167c.946 0 1.78.167 2.503.501a5.07 5.07 0 0 1 1.852 1.368c.501.578.879 1.274 1.135 2.086.255.801.383 1.674.383 2.62V26h-5.172V15.005c0-.845-.195-1.502-.584-1.969-.389-.478-.962-.717-1.719-.717-.567 0-1.101.122-1.601.367-.49.234-.968.556-1.435.968V26h-5.173V8.698h3.204c.645 0 1.068.289 1.268.868l.3 1.001zm21.223 15.701c-.823 0-1.552-.117-2.186-.35-.623-.245-1.151-.584-1.585-1.018-.423-.445-.745-.979-.968-1.602s-.333-1.318-.333-2.086v-8.943h-1.469c-.267 0-.495-.083-.684-.25-.189-.178-.283-.434-.283-.768V9.232l2.753-.534 1.017-4.221c.134-.534.512-.801 1.135-.801h2.703v5.056h4.288v3.537h-4.288v8.593c0 .401.095.734.284 1.001.2.256.483.384.851.384.189 0 .344-.017.467-.05.133-.044.244-.089.333-.133l.267-.133c.089-.044.189-.067.301-.067a.54.54 0 0 1 .367.117c.1.067.2.178.3.334l1.569 2.453c-.668.501-1.419.879-2.253 1.135-.834.245-1.696.367-2.586.367zm18.217-10.995a4.36 4.36 0 0 0-.167-1.201c-.1-.389-.273-.734-.517-1.034-.234-.312-.545-.562-.935-.751s-.862-.284-1.418-.284c-.979 0-1.746.284-2.302.851-.557.556-.924 1.363-1.102 2.419h6.441zm-6.507 3.003c.166 1.446.606 2.497 1.318 3.154.712.645 1.629.968 2.753.968.6 0 1.118-.072 1.551-.217s.818-.306 1.152-.484l.934-.484a1.99 1.99 0 0 1 .901-.217c.412 0 .723.15.934.451l1.502 1.852c-.534.612-1.112 1.112-1.735 1.502-.612.378-1.246.678-1.902.901-.645.211-1.296.356-1.952.434a13.58 13.58 0 0 1-1.852.133 9.91 9.91 0 0 1-3.421-.584 8.04 8.04 0 0 1-2.786-1.769c-.79-.779-1.418-1.746-1.886-2.903-.456-1.157-.684-2.503-.684-4.038a9.26 9.26 0 0 1 .584-3.287c.401-1.035.968-1.941 1.702-2.72.745-.779 1.641-1.396 2.686-1.852 1.057-.456 2.247-.684 3.571-.684 1.146 0 2.191.178 3.137.534a6.74 6.74 0 0 1 2.452 1.552c.69.679 1.224 1.513 1.602 2.503.39.979.584 2.091.584 3.337a7.37 7.37 0 0 1-.05.951c-.033.245-.094.439-.183.584a.7.7 0 0 1-.367.3c-.145.056-.334.083-.568.083h-9.977zm19.573-6.907c.534-.934 1.146-1.669 1.836-2.202.7-.534 1.501-.801 2.402-.801.779 0 1.413.184 1.902.551l-.333 3.804c-.056.245-.151.412-.284.501-.122.089-.295.133-.517.133-.089 0-.206-.006-.351-.017l-.45-.033-.484-.05c-.156-.022-.3-.033-.434-.033-.756 0-1.363.2-1.819.601-.444.4-.823.957-1.134 1.668V26h-5.172V8.698h3.07a2.52 2.52 0 0 1 .634.067c.178.044.322.117.433.217.123.089.212.211.267.367.067.156.123.345.167.567l.267 1.452zm19.373 3.904a4.36 4.36 0 0 0-.167-1.201 2.66 2.66 0 0 0-.517-1.034 2.52 2.52 0 0 0-.934-.751c-.39-.189-.862-.284-1.419-.284-.979 0-1.746.284-2.302.851-.556.556-.923 1.363-1.101 2.419h6.44zm-6.507 3.003c.167 1.446.606 2.497 1.318 3.154.712.645 1.63.968 2.753.968.601 0 1.118-.072 1.552-.217s.817-.306 1.151-.484l.934-.484c.29-.145.59-.217.901-.217.412 0 .723.15.935.451l1.501 1.852c-.534.612-1.112 1.112-1.735 1.502-.612.378-1.246.678-1.902.901-.645.211-1.296.356-1.952.434a13.57 13.57 0 0 1-1.852.133 9.91 9.91 0 0 1-3.421-.584c-1.056-.401-1.985-.99-2.786-1.769-.79-.779-1.418-1.746-1.885-2.903-.456-1.157-.684-2.503-.684-4.038a9.26 9.26 0 0 1 .583-3.287c.401-1.035.968-1.941 1.702-2.72.746-.779 1.641-1.396 2.687-1.852 1.056-.456 2.247-.684 3.57-.684 1.146 0 2.192.178 3.137.534.957.356 1.774.873 2.453 1.552.689.679 1.223 1.513 1.601 2.503.39.979.584 2.091.584 3.337 0 .389-.016.706-.05.951s-.094.439-.183.584-.211.245-.367.3c-.145.056-.334.083-.568.083h-9.977zm25.73-5.79c-.133.211-.278.362-.434.451-.144.089-.333.133-.567.133-.245 0-.489-.05-.734-.15l-.801-.35c-.278-.122-.595-.234-.951-.334a4.08 4.08 0 0 0-1.218-.167c-.656 0-1.162.128-1.518.384-.345.245-.518.589-.518 1.034a1.06 1.06 0 0 0 .334.801c.234.211.54.4.918.567.378.156.806.306 1.285.45l1.468.484c.5.178.99.389 1.468.634a5.18 5.18 0 0 1 1.285.884c.378.345.678.768.901 1.268.233.501.35 1.101.35 1.802 0 .857-.155 1.646-.467 2.369s-.779 1.346-1.401 1.869c-.612.523-1.374.929-2.286 1.218-.901.289-1.941.434-3.12.434-.59 0-1.179-.056-1.769-.167a12.59 12.59 0 0 1-1.719-.451c-.545-.189-1.051-.412-1.518-.667a6.94 6.94 0 0 1-1.201-.851l1.201-1.902c.134-.223.3-.395.501-.517.211-.134.478-.2.801-.2a1.58 1.58 0 0 1 .8.2l.785.434a6.6 6.6 0 0 0 .967.434c.379.134.851.2 1.419.2.4 0 .739-.039 1.017-.117.278-.089.501-.206.668-.35s.289-.306.367-.484a1.36 1.36 0 0 0 .117-.551c0-.345-.117-.628-.351-.851s-.539-.412-.917-.567c-.379-.167-.812-.317-1.302-.45l-1.468-.484a13.17 13.17 0 0 1-1.485-.634c-.478-.256-.907-.573-1.285-.951-.378-.389-.684-.862-.918-1.418s-.35-1.229-.35-2.019a5.29 5.29 0 0 1 .417-2.086c.289-.667.718-1.251 1.285-1.752s1.279-.895 2.136-1.185c.856-.3 1.857-.45 3.003-.45a9.52 9.52 0 0 1 1.802.167c.589.111 1.14.267 1.652.467s.979.439 1.401.717c.423.267.796.562 1.118.884l-1.168 1.819zm11.056 13.782c-.823 0-1.552-.117-2.186-.35-.623-.245-1.151-.584-1.585-1.018a4.48 4.48 0 0 1-.967-1.602c-.223-.623-.334-1.318-.334-2.086v-8.943h-1.468c-.267 0-.495-.083-.684-.25-.19-.178-.284-.434-.284-.768V9.232l2.753-.534 1.018-4.221c.133-.534.511-.801 1.134-.801h2.703v5.056h4.288v3.537h-4.288v8.593c0 .401.095.734.284 1.001.2.256.484.384.851.384a1.81 1.81 0 0 0 .467-.05c.133-.044.245-.089.334-.133l.267-.133a.66.66 0 0 1 .3-.067c.156 0 .278.039.367.117.1.067.2.178.3.334l1.569 2.453c-.668.501-1.418.879-2.253 1.135-.834.245-1.696.367-2.586.367zm22.533-11.045c-.612.512-1.046 1.062-1.302 1.652-.256.578-.383 1.196-.383 1.852 0 .534.077 1.018.233 1.452.167.434.401.806.701 1.118a3.26 3.26 0 0 0 1.068.734c.422.167.89.25 1.401.25.746 0 1.441-.095 2.086-.284.645-.2 1.246-.478 1.802-.834l-5.606-5.94zM539.274 26h-5.106c-.256 0-.484-.011-.684-.033a3.03 3.03 0 0 1-.567-.15 1.97 1.97 0 0 1-.484-.284c-.156-.122-.323-.278-.501-.467l-1.051-1.101c-1.057.734-2.213 1.301-3.47 1.702-1.246.4-2.575.601-3.988.601a8.42 8.42 0 0 1-2.853-.501 8 8 0 0 1-2.47-1.418 7.28 7.28 0 0 1-1.752-2.252c-.444-.879-.667-1.863-.667-2.953 0-.734.111-1.429.334-2.086a6.94 6.94 0 0 1 .968-1.819 8.4 8.4 0 0 1 1.484-1.535c.568-.467 1.196-.873 1.886-1.218-.534-.812-.918-1.607-1.151-2.386s-.351-1.535-.351-2.269c0-.868.156-1.685.467-2.453a5.98 5.98 0 0 1 1.385-2.036c.612-.59 1.357-1.057 2.236-1.402.89-.345 1.908-.517 3.053-.517 1.079 0 2.03.161 2.854.484.823.311 1.518.729 2.085 1.251.567.512 1.012 1.107 1.335 1.785s.523 1.374.601 2.086l-3.337.667c-.59.133-1.024-.1-1.302-.701-.256-.578-.556-1.018-.901-1.318-.333-.3-.778-.45-1.335-.45-.389 0-.728.072-1.017.217s-.534.334-.735.567a2.5 2.5 0 0 0-.433.818c-.1.311-.151.634-.151.968 0 .289.023.567.067.834a4.28 4.28 0 0 0 .267.801 5.59 5.59 0 0 0 .484.834c.211.289.473.606.784.951l6.007 6.324a12.68 12.68 0 0 0 .734-2.069c.189-.734.311-1.485.367-2.252.033-.312.139-.556.317-.734s.417-.267.718-.267h3.27c0 1.613-.217 3.126-.651 4.538s-1.046 2.703-1.835 3.871L539.274 26zm28.433-19.838h-6.841V26h-5.639V6.162h-6.841V1.69h19.321v4.472zm8.145 4.054a8.27 8.27 0 0 1 2.019-1.285c.734-.334 1.608-.501 2.62-.501.945 0 1.78.167 2.503.501a5.07 5.07 0 0 1 1.852 1.368c.5.578.878 1.274 1.134 2.086.256.801.384 1.674.384 2.62V26h-5.172V15.005c0-.845-.195-1.502-.584-1.969-.39-.478-.963-.717-1.719-.717-.567 0-1.101.122-1.602.367a6.29 6.29 0 0 0-1.435.968V26h-5.172V1.023h5.172v9.193zm25.622 5.056c0-.412-.055-.812-.167-1.201a2.66 2.66 0 0 0-.517-1.034c-.233-.312-.545-.562-.934-.751s-.862-.284-1.418-.284c-.979 0-1.747.284-2.303.851-.556.556-.923 1.363-1.101 2.419h6.44zm-6.507 3.003c.167 1.446.606 2.497 1.318 3.154.712.645 1.63.968 2.753.968.601 0 1.118-.072 1.552-.217s.818-.306 1.151-.484l.935-.484a1.99 1.99 0 0 1 .901-.217c.411 0 .723.15.934.451l1.502 1.852c-.534.612-1.113 1.112-1.736 1.502-.611.378-1.245.678-1.902.901-.645.211-1.296.356-1.952.434-.645.089-1.262.133-1.852.133-1.212 0-2.353-.195-3.42-.584-1.057-.401-1.986-.99-2.787-1.769-.79-.779-1.418-1.746-1.885-2.903-.456-1.157-.684-2.503-.684-4.038 0-1.157.194-2.253.584-3.287.4-1.035.967-1.941 1.702-2.72a8.21 8.21 0 0 1 2.686-1.852c1.057-.456 2.247-.684 3.57-.684 1.146 0 2.192.178 3.137.534.957.356 1.774.873 2.453 1.552.69.679 1.224 1.513 1.602 2.503.389.979.584 2.091.584 3.337a7.37 7.37 0 0 1-.05.951c-.034.245-.095.439-.184.584s-.211.245-.367.3a1.61 1.61 0 0 1-.567.083h-9.978zm28.632 3.02c.389.423.812.723 1.268.901s.918.267 1.385.267c.489 0 .94-.089 1.351-.267a2.61 2.61 0 0 0 1.051-.901c.301-.423.534-.973.701-1.652.167-.69.25-1.535.25-2.536 0-.868-.066-1.602-.2-2.202-.122-.612-.311-1.107-.567-1.485-.245-.389-.556-.667-.934-.834-.368-.178-.79-.267-1.268-.267-.635 0-1.185.139-1.652.417s-.929.684-1.385 1.218v7.341zm0-10.762c.667-.634 1.396-1.14 2.186-1.518.8-.389 1.69-.584 2.669-.584s1.869.2 2.67.601 1.485.973 2.052 1.719c.567.734 1.001 1.624 1.301 2.67.312 1.046.468 2.214.468 3.504 0 1.401-.178 2.675-.534 3.821s-.862 2.13-1.519 2.953c-.645.812-1.418 1.446-2.319 1.902-.901.445-1.896.667-2.986.667-.523 0-.99-.05-1.402-.15s-.79-.239-1.135-.417a5.27 5.27 0 0 1-.951-.667 11.66 11.66 0 0 1-.817-.834l-.184.868c-.089.356-.233.601-.434.734s-.467.2-.8.2h-3.438V1.023h5.173v9.51zm30.507-1.835V26h-3.203c-.645 0-1.068-.289-1.268-.868l-.301-1.001c-.333.323-.678.617-1.034.884-.356.256-.74.478-1.151.667-.401.178-.84.317-1.318.417-.468.111-.979.167-1.535.167-.946 0-1.786-.161-2.52-.484-.723-.334-1.335-.795-1.835-1.385s-.879-1.285-1.135-2.086-.384-1.68-.384-2.636V8.698h5.173v10.979c0 .857.194 1.518.584 1.985s.962.701 1.718.701c.568 0 1.096-.117 1.585-.35.501-.245.985-.573 1.452-.984V8.698h5.172zm9.805 0V26h-5.173V8.698h5.173zm.534-4.739a2.79 2.79 0 0 1-.251 1.168c-.166.356-.394.673-.684.951a3.54 3.54 0 0 1-1.017.651c-.379.156-.785.234-1.218.234a3 3 0 0 1-1.185-.234 3.69 3.69 0 0 1-.984-.651c-.279-.278-.501-.595-.668-.951-.156-.367-.233-.756-.233-1.168 0-.423.077-.818.233-1.185.167-.367.389-.69.668-.968.289-.278.617-.495.984-.651s.762-.234 1.185-.234c.433 0 .839.078 1.218.234.389.156.728.373 1.017.651s.518.601.684.968.251.762.251 1.185zm9.247-2.937V26h-5.173V1.023h5.173zm14.992 12.314c-.39-.434-.812-.734-1.268-.901-.456-.178-.935-.267-1.435-.267-.479 0-.918.095-1.318.284s-.751.495-1.052.918c-.289.412-.517.951-.684 1.618s-.25 1.474-.25 2.419c0 .912.067 1.68.2 2.303s.317 1.129.551 1.518c.245.378.534.651.867.818s.707.25 1.118.25a4.7 4.7 0 0 0 1.018-.1c.312-.078.595-.183.851-.317s.495-.3.718-.5c.233-.211.461-.45.684-.718v-7.325zm5.172-12.314V26h-3.204c-.645 0-1.067-.289-1.268-.868l-.4-1.318a10.1 10.1 0 0 1-1.085 1.001 7.03 7.03 0 0 1-1.234.784c-.434.211-.907.373-1.418.484-.501.122-1.046.184-1.636.184-.901 0-1.735-.2-2.502-.601s-1.43-.979-1.986-1.735-.995-1.68-1.318-2.77c-.311-1.101-.467-2.352-.467-3.754 0-1.29.178-2.486.534-3.587.356-1.112.856-2.069 1.501-2.87.657-.812 1.441-1.446 2.353-1.902s1.919-.684 3.02-.684c.901 0 1.657.128 2.269.384s1.168.601 1.669 1.034v-8.76h5.172zm15.257 14.249a4.36 4.36 0 0 0-.166-1.201c-.101-.389-.273-.734-.518-1.034-.233-.312-.545-.562-.934-.751s-.862-.284-1.418-.284c-.979 0-1.747.284-2.303.851-.556.556-.923 1.363-1.101 2.419h6.44zm-6.507 3.003c.167 1.446.606 2.497 1.318 3.154.712.645 1.63.968 2.753.968.601 0 1.118-.072 1.552-.217s.818-.306 1.151-.484l.935-.484a1.99 1.99 0 0 1 .901-.217c.411 0 .723.15.934.451l1.502 1.852c-.534.612-1.113 1.112-1.736 1.502-.611.378-1.245.678-1.902.901-.645.211-1.296.356-1.952.434-.645.089-1.262.133-1.852.133-1.212 0-2.352-.195-3.42-.584-1.057-.401-1.986-.99-2.787-1.769-.789-.779-1.418-1.746-1.885-2.903-.456-1.157-.684-2.503-.684-4.038a9.26 9.26 0 0 1 .584-3.287 8.27 8.27 0 0 1 1.702-2.72 8.21 8.21 0 0 1 2.686-1.852c1.057-.456 2.247-.684 3.571-.684 1.145 0 2.191.178 3.136.534.957.356 1.775.873 2.453 1.552.69.679 1.224 1.513 1.602 2.503.389.979.584 2.091.584 3.337a7.37 7.37 0 0 1-.05.951c-.034.245-.095.439-.184.584s-.211.245-.367.3c-.144.056-.334.083-.567.083h-9.978zm19.574-6.907c.534-.934 1.146-1.669 1.835-2.202a3.86 3.86 0 0 1 2.403-.801c.778 0 1.412.184 1.902.551l-.334 3.804c-.055.245-.15.412-.283.501-.123.089-.295.133-.518.133a4.79 4.79 0 0 1-.35-.017l-.451-.033-.483-.05c-.156-.022-.301-.033-.434-.033-.757 0-1.363.2-1.819.601-.445.4-.823.957-1.134 1.668V26h-5.173V8.698h3.07c.256 0 .467.022.634.067.178.044.323.117.434.217a.76.76 0 0 1 .267.367 2.91 2.91 0 0 1 .167.567l.267 1.452zm19.9 1.118c-.134.211-.279.362-.434.451-.145.089-.334.133-.568.133a1.93 1.93 0 0 1-.734-.15l-.801-.35c-.278-.122-.595-.234-.951-.334a4.08 4.08 0 0 0-1.218-.167c-.656 0-1.162.128-1.518.384-.345.245-.517.589-.517 1.034 0 .323.111.59.334.801.233.211.539.4.917.567a14.16 14.16 0 0 0 1.285.45l1.468.484a12.13 12.13 0 0 1 1.468.634c.479.234.907.528 1.285.884a3.75 3.75 0 0 1 .901 1.268c.234.501.351 1.101.351 1.802 0 .857-.156 1.646-.468 2.369s-.778 1.346-1.401 1.869c-.612.523-1.374.929-2.286 1.218-.901.289-1.941.434-3.12.434-.59 0-1.179-.056-1.769-.167s-1.162-.261-1.718-.451c-.545-.189-1.051-.412-1.519-.667a6.94 6.94 0 0 1-1.201-.851l1.201-1.902c.134-.223.301-.395.501-.517.211-.134.478-.2.801-.2.3 0 .567.067.801.2l.784.434c.278.156.601.3.968.434.378.134.851.2 1.418.2.4 0 .74-.039 1.018-.117.278-.089.5-.206.667-.35s.289-.306.367-.484a1.36 1.36 0 0 0 .117-.551c0-.345-.117-.628-.35-.851s-.54-.412-.918-.567a9.28 9.28 0 0 0-1.302-.45l-1.468-.484c-.5-.178-.995-.389-1.485-.634-.478-.256-.906-.573-1.285-.951-.378-.389-.684-.862-.917-1.418s-.351-1.229-.351-2.019c0-.734.139-1.429.418-2.086a4.93 4.93 0 0 1 1.284-1.752c.568-.501 1.279-.895 2.136-1.185.856-.3 1.858-.45 3.003-.45a9.52 9.52 0 0 1 1.802.167 9.21 9.21 0 0 1 1.652.467c.512.2.979.439 1.402.717a6.46 6.46 0 0 1 1.118.884l-1.168 1.819zm22.516 6.474c-1.034.044-1.885.134-2.553.267s-1.195.3-1.585.501-.661.428-.817.684c-.145.256-.217.534-.217.834 0 .589.161 1.007.484 1.251.322.234.795.35 1.418.35.667 0 1.251-.117 1.752-.35s1.007-.612 1.518-1.134v-2.403zm-9.31-7.859c1.046-.923 2.202-1.607 3.47-2.052 1.28-.456 2.648-.684 4.105-.684 1.046 0 1.986.172 2.82.517.845.334 1.557.806 2.135 1.418.59.601 1.04 1.318 1.352 2.152s.467 1.746.467 2.736V26h-2.369c-.49 0-.862-.067-1.118-.2-.245-.134-.451-.412-.617-.834l-.367-.951-1.252.968a8.23 8.23 0 0 1-1.251.718 5.95 5.95 0 0 1-1.368.417c-.479.1-1.013.15-1.602.15-.79 0-1.507-.1-2.153-.3a4.67 4.67 0 0 1-1.651-.918c-.445-.401-.79-.895-1.035-1.485-.245-.601-.367-1.29-.367-2.069 0-.623.156-1.251.467-1.885.312-.645.851-1.229 1.619-1.752.767-.534 1.802-.979 3.103-1.335s2.942-.556 4.922-.601v-.734c0-1.012-.211-1.741-.634-2.186-.411-.456-1.001-.684-1.768-.684-.612 0-1.113.067-1.502.2s-.74.284-1.051.45l-.885.45c-.289.134-.634.2-1.034.2-.356 0-.656-.089-.901-.267a2.32 2.32 0 0 1-.601-.634l-.934-1.618zm23.495.267c.534-.934 1.146-1.669 1.835-2.202a3.86 3.86 0 0 1 2.403-.801c.779 0 1.413.184 1.902.551l-.334 3.804c-.055.245-.15.412-.283.501-.123.089-.295.133-.517.133-.089 0-.206-.006-.351-.017l-.45-.033-.484-.05c-.156-.022-.301-.033-.434-.033-.756 0-1.363.2-1.819.601-.445.4-.823.957-1.134 1.668V26h-5.173V8.698h3.07c.256 0 .468.022.634.067.178.044.323.117.434.217.123.089.212.211.267.367.067.156.123.345.167.567l.267 1.452zm19.373 3.904a4.36 4.36 0 0 0-.167-1.201 2.66 2.66 0 0 0-.517-1.034 2.52 2.52 0 0 0-.934-.751c-.39-.189-.863-.284-1.419-.284-.979 0-1.746.284-2.302.851-.556.556-.923 1.363-1.101 2.419h6.44zm-6.507 3.003c.167 1.446.606 2.497 1.318 3.154.712.645 1.629.968 2.753.968.601 0 1.118-.072 1.552-.217a7.52 7.52 0 0 0 1.151-.484l.934-.484a1.99 1.99 0 0 1 .901-.217c.412 0 .723.15.935.451l1.501 1.852c-.534.612-1.112 1.112-1.735 1.502-.612.378-1.246.678-1.902.901-.645.211-1.296.356-1.952.434a13.57 13.57 0 0 1-1.852.133 9.91 9.91 0 0 1-3.421-.584c-1.056-.401-1.985-.99-2.786-1.769-.79-.779-1.418-1.746-1.885-2.903-.457-1.157-.685-2.503-.685-4.038a9.26 9.26 0 0 1 .584-3.287c.401-1.035.968-1.941 1.702-2.72.746-.779 1.641-1.396 2.687-1.852 1.056-.456 2.246-.684 3.57-.684 1.146 0 2.191.178 3.137.534.957.356 1.774.873 2.453 1.552.689.679 1.223 1.513 1.601 2.503.39.979.584 2.091.584 3.337 0 .389-.016.706-.05.951s-.094.439-.183.584a.7.7 0 0 1-.367.3c-.145.056-.334.083-.568.083h-9.977zM816.391 26V12.252l-1.135-.234c-.389-.089-.706-.228-.951-.417-.233-.189-.35-.467-.35-.834V8.731h2.436v-.984c0-.99.156-1.885.467-2.686.323-.801.779-1.485 1.368-2.052.601-.567 1.33-1.007 2.186-1.318s1.83-.467 2.92-.467c.423 0 .812.028 1.168.083.356.044.728.122 1.118.234l-.1 2.519c-.012.178-.056.328-.134.45a.98.98 0 0 1-.317.284 1.57 1.57 0 0 1-.4.15 1.93 1.93 0 0 1-.434.05c-.456 0-.862.045-1.218.133a1.97 1.97 0 0 0-.901.484c-.234.222-.412.523-.534.901-.122.367-.184.834-.184 1.402v.818h4.055v3.537h-3.888V26h-5.172zm16.775-14.633c.534-.934 1.146-1.669 1.836-2.202.701-.534 1.501-.801 2.402-.801.779 0 1.413.184 1.902.551l-.333 3.804c-.056.245-.15.412-.284.501-.122.089-.295.133-.517.133-.089 0-.206-.006-.351-.017l-.45-.033-.484-.05c-.156-.022-.3-.033-.434-.033-.756 0-1.362.2-1.818.601-.445.4-.823.957-1.135 1.668V26h-5.172V8.698h3.07c.256 0 .467.022.634.067.178.044.322.117.434.217a.76.76 0 0 1 .267.367c.066.156.122.345.166.567l.267 1.452zm16.587-2.937c1.312 0 2.508.206 3.587.617s2.002 1.001 2.77 1.769c.778.767 1.379 1.702 1.802 2.803.434 1.09.65 2.319.65 3.687 0 1.379-.216 2.625-.65 3.738-.423 1.101-1.024 2.041-1.802 2.82-.768.767-1.691 1.363-2.77 1.785-1.079.412-2.275.617-3.587.617-1.324 0-2.531-.206-3.621-.617-1.079-.423-2.013-1.018-2.803-1.785-.779-.779-1.385-1.718-1.819-2.82-.422-1.112-.634-2.358-.634-3.738 0-1.368.212-2.597.634-3.687.434-1.101 1.04-2.036 1.819-2.803.79-.768 1.724-1.357 2.803-1.769 1.09-.412 2.297-.617 3.621-.617zm0 13.999c1.19 0 2.063-.417 2.619-1.251.568-.845.851-2.125.851-3.838s-.283-2.987-.851-3.821c-.556-.834-1.429-1.251-2.619-1.251-1.224 0-2.119.417-2.686 1.251s-.851 2.108-.851 3.821.283 2.992.851 3.838c.567.834 1.462 1.251 2.686 1.251zM862.168 26V8.698h3.204c.645 0 1.068.289 1.268.868l.283.934c.29-.3.59-.573.901-.818.312-.256.646-.473 1.002-.651a5.24 5.24 0 0 1 1.168-.434c.422-.111.884-.167 1.384-.167 1.046 0 1.908.273 2.587.818.689.534 1.212 1.251 1.568 2.152a5.21 5.21 0 0 1 1.051-1.368c.423-.378.873-.684 1.352-.918.489-.234 1.001-.406 1.535-.517.545-.111 1.084-.167 1.618-.167.99 0 1.869.15 2.636.45.768.289 1.407.717 1.919 1.285.523.556.918 1.246 1.185 2.069.267.812.4 1.735.4 2.77V26h-5.172V15.005c0-1.791-.768-2.686-2.303-2.686-.701 0-1.285.234-1.752.701-.456.456-.684 1.118-.684 1.986V26h-5.172V15.005c0-.99-.195-1.685-.584-2.086s-.962-.601-1.719-.601a2.94 2.94 0 0 0-1.334.317c-.412.211-.801.495-1.168.851V26h-5.173z" fill="#fff"></path>
</svg>
