<?xml version="1.0" encoding="UTF-8"?>
<svg xmlns="http://www.w3.org/2000/svg" xmlns:xlink="http://www.w3.org/1999/xlink" version="1.1" id="Layer_1" x="0px" y="0px" width="100%" viewBox="0 0 288 288" xml:space="preserve">
<path fill="#000000" opacity="1.000000" stroke="none" d=" M104.131699,162.847198   C99.695732,157.474396 95.491798,152.372162 91.287872,147.269928   C90.907661,147.353409 90.527458,147.436905 90.147255,147.520386   C90.147255,157.086395 90.162231,166.652451 90.142212,176.218430   C90.127853,183.076538 89.850571,183.166122 83.200912,183.214676   C79.359497,183.242706 77.904510,181.850342 77.879242,177.952576   C77.722702,153.809799 77.386124,129.668228 77.140053,105.525955   C77.123154,103.867653 77.475365,102.204613 77.444794,100.547668   C77.397118,97.963570 78.659134,97.024590 81.108170,97.008636   C88.934792,96.957657 96.783844,96.399879 104.581696,96.822594   C115.779373,97.429588 124.438164,102.708046 128.674835,113.372917   C132.761444,123.659996 131.691223,133.616058 124.576309,142.525742   C121.109428,146.867157 115.859352,148.386963 110.510536,151.063217   C118.385956,161.063644 126.038895,170.781555 133.764648,180.591934   C126.837044,183.854172 120.777397,182.694000 116.562538,177.660828   C112.500237,172.809830 108.430313,167.965225 104.131699,162.847198  M108.765259,139.576355   C109.824585,139.102554 110.934364,138.716431 111.934982,138.140610   C117.980637,134.661514 120.556549,127.190628 118.637932,118.838852   C117.193604,112.551712 112.973946,108.962166 105.806831,108.351028   C102.179222,108.041710 98.503586,108.343544 94.858894,108.172462   C91.502129,108.014900 89.990852,109.281357 90.125275,112.782532   C90.297066,117.257240 90.126312,121.744453 90.134041,126.226227   C90.163284,143.179062 90.871819,143.714172 108.765259,139.576355  z"></path>
<path fill="#000000" opacity="1.000000" stroke="none" d=" M190.744934,165.725342   C181.933563,179.493439 167.350571,185.377457 154.144699,180.736053   C140.657791,175.995880 130.440994,158.239273 133.342865,143.975693   C135.917542,131.320419 141.155624,120.652237 154.858978,116.407562   C171.884781,111.133751 189.544128,121.232437 193.209534,138.653152   C196.248398,153.096100 196.248428,153.085251 181.487701,153.065399   C171.155640,153.051498 160.823090,153.017105 150.491638,153.100082   C145.043732,153.143860 144.314545,154.388550 146.447754,159.392563   C151.828995,172.015793 167.806732,174.889404 176.953796,164.879105   C181.869675,159.499298 184.296509,158.831512 191.903885,160.782578   C192.877869,162.591171 191.404465,163.899734 190.744934,165.725342  M174.953140,142.641724   C177.138489,142.159470 179.647263,142.687881 181.353088,140.742142   C179.247635,131.926239 173.261627,126.840820 164.465210,126.285126   C157.526093,125.846764 149.815323,131.207153 146.990662,138.195862   C145.442474,142.026367 147.130554,143.005951 150.566772,142.953720   C158.396393,142.834686 166.226761,142.766159 174.953140,142.641724  z"></path>
<path fill="#000000" opacity="1.000000" stroke="none" d=" M42.757545,155.038651   C43.644772,151.582214 44.502850,148.557632 45.294891,145.515854   C46.275482,141.749985 47.351597,138.318085 42.482033,135.780441   C39.020424,133.976517 39.747303,129.376022 43.507935,128.031815   C50.078220,125.683327 56.746193,123.561234 63.479454,121.736176   C66.650925,120.876541 68.615356,123.162277 69.049019,126.056931   C69.437286,128.648529 69.704956,131.589294 68.874443,133.975235   C65.213608,144.492172 66.185593,155.714035 63.551796,166.359314   C62.999092,168.593231 63.486626,170.378098 65.396675,172.107681   C69.345276,175.683182 68.907051,179.110809 64.123177,180.792648   C57.545063,183.105270 50.797222,184.989441 44.028683,186.684052   C40.440781,187.582336 38.197155,184.305038 38.899647,179.069824   C39.848747,171.996735 41.142899,164.969940 42.289875,157.923416   C42.423450,157.102783 42.562561,156.283035 42.757545,155.038651  z"></path>
<path fill="#000000" opacity="1.000000" stroke="none" d=" M226.488297,132.950012   C223.878830,132.799973 223.070389,131.292770 222.271591,129.508743   C221.056747,126.795555 218.614944,125.535606 215.785110,125.713295   C213.229858,125.873749 211.701202,127.792015 210.796036,130.092010   C209.713852,132.841858 211.009186,135.003937 212.818268,136.845108   C215.689056,139.766800 219.490570,141.309158 223.154755,142.777969   C237.668182,148.595840 237.722168,167.542160 228.289032,176.613434   C222.851364,181.842514 216.011398,183.336990 208.974838,180.478790   C202.455017,177.830505 196.980728,169.917862 196.889297,163.369476   C196.844193,160.139374 198.780197,159.311447 201.318741,159.285355   C203.704376,159.260849 206.583023,157.702957 207.652908,161.922363   C209.373245,168.707001 212.263580,171.260101 216.658615,170.703247   C220.078247,170.269989 222.728287,168.549911 223.493454,165.043427   C224.346573,161.133911 224.266953,157.150299 220.223846,154.909836   C216.453751,152.820618 212.318573,151.396408 208.514908,149.360352   C199.317245,144.437057 196.473434,132.496429 202.052567,122.887787   C207.287308,113.872330 218.048584,111.369820 227.172348,116.951210   C230.372253,118.908730 232.249054,121.706345 233.075516,125.255234   C234.538971,131.539261 233.378082,132.958588 226.488297,132.950012  z"></path>
<path fill="#000000" opacity="1.000000" stroke="none" d=" M238.507965,127.223984   C237.384262,124.995255 237.823959,122.974396 237.699982,120.998314   C237.524246,118.197128 238.454742,116.459709 241.615051,116.701515   C245.087509,116.967209 245.780365,114.901451 245.707458,111.981735   C245.611984,108.158791 245.779221,104.329399 245.689804,100.506142   C245.602356,96.766891 248.043030,96.529083 250.699478,96.855888   C253.322464,97.178581 257.250549,95.444756 257.310455,100.482124   C257.357910,104.473587 257.415802,108.467400 257.328949,112.457123   C257.270752,115.129227 257.803436,117.121178 261.034302,117.056999   C263.824432,117.001579 265.131409,118.394058 264.516785,121.108612   C263.940002,123.656021 266.074860,127.799217 261.158691,128.027359   C257.569794,128.193909 257.313324,130.231598 257.324921,133.013504   C257.383881,147.151611 257.179504,161.293365 257.446930,175.426651   C257.533875,180.019913 255.692993,181.071976 251.589859,181.050751   C247.588821,181.030060 245.506363,180.199326 245.595215,175.515488   C245.844421,162.380203 245.361038,149.227341 245.775330,136.100616   C245.948593,130.611359 244.578262,127.619926 238.507965,127.223984  z"></path>
<path fill="#000000" opacity="1.000000" stroke="none" d=" M56.605980,99.044296   C65.397209,98.264351 67.862549,99.801712 69.802780,106.565247   C71.042473,110.886726 69.535355,114.049690 66.086258,116.503761   C62.550697,119.019348 56.202316,119.007378 52.929413,116.277931   C49.746590,113.623627 48.478001,110.442574 50.071632,106.109856   C51.279697,102.825386 52.251942,99.811630 56.605980,99.044296  z"></path>
<path fill="#000000" opacity="1.000000" stroke="none" d=" M111.152176,201.195526   C87.152969,198.534943 63.031441,201.647736 38.353935,199.808258   C40.225311,196.859055 42.402077,197.719727 44.132008,197.713242   C63.733837,197.639633 83.336021,197.660004 102.938118,197.660446   C105.567673,197.660492 108.267944,197.967819 110.100830,195.414780   C111.956032,197.231445 111.052109,199.129166 111.152176,201.195526  z"></path>
<path fill="#000000" opacity="1.000000" stroke="none" d=" M228.000092,197.668854   C240.176117,197.668457 251.852112,197.668457 264.612457,197.668457   C262.315247,200.961090 260.176910,200.291779 258.403229,200.297287   C238.939880,200.357697 219.476273,200.344742 200.012741,200.332230   C197.368835,200.330536 194.675262,200.024536 192.663284,202.785065   C191.215775,200.299667 191.651749,198.260803 192.058914,195.662949   C196.904388,198.898895 202.063858,197.483749 207.039764,197.624786   C213.854828,197.817947 220.679520,197.670639 228.000092,197.668854  z"></path>
<path fill="#000000" opacity="1.000000" stroke="none" d=" M133.132568,202.549652   C132.357819,201.591522 131.686859,200.998123 131.284210,202.392151   C130.884491,203.775970 131.121552,205.493423 129.129028,205.863556   C127.048950,203.680344 125.920296,195.041748 127.496284,193.033249   C128.773239,191.405853 130.110855,191.925735 131.258545,193.188141   C132.354630,194.393753 133.321457,195.716888 134.789673,197.540573   C135.002121,196.122314 135.093964,195.374039 135.229431,194.633743   C135.483795,193.243729 135.933868,191.913101 137.695129,192.123138   C139.356537,192.321274 139.707870,193.751297 139.814285,195.092728   C139.958725,196.913528 139.994843,198.754791 139.906219,200.578964   C139.813232,202.492386 140.409546,204.945862 137.980148,205.751892   C135.561859,206.554245 134.615677,204.200912 133.132568,202.549652  z"></path>
<path fill="#000000" opacity="1.000000" stroke="none" d=" M157.642426,197.503296   C158.043823,199.416199 157.725128,200.867828 156.997040,202.213547   C155.022415,205.863220 151.588409,206.477173 147.988968,206.048019   C144.045532,205.577881 144.863785,202.191727 145.018753,199.754776   C145.189667,197.067139 143.274765,193.138229 147.415344,192.099609   C151.844147,190.988693 155.659149,192.445374 157.642426,197.503296  M153.412476,198.590988   C152.825180,197.143631 151.834244,195.467331 150.274765,196.705170   C148.392654,198.199097 148.778046,200.318100 150.383011,202.154739   C152.225266,201.812393 153.173233,200.870880 153.412476,198.590988  z"></path>
<path fill="#000000" opacity="1.000000" stroke="none" d=" M181.698013,195.362762   C182.695541,198.052750 183.607346,200.358047 184.400558,202.703445   C184.765396,203.782181 185.115219,205.029526 183.821594,205.796783   C182.832748,206.383270 181.886841,205.958328 181.108475,205.272858   C179.139877,203.539108 177.227219,203.862045 175.271301,205.293671   C174.429062,205.910141 173.469055,206.216797 172.570160,205.424606   C171.696228,204.654434 171.840332,203.613693 172.167191,202.667068   C173.029541,200.169601 173.960403,197.695618 174.876404,195.216873   C175.458786,193.640884 176.048401,192.042953 178.132996,191.997177   C180.173218,191.952377 180.987137,193.345886 181.698013,195.362762  z"></path>
<path fill="#000000" opacity="1.000000" stroke="none" d=" M120.627884,205.135712   C117.921021,206.389465 117.323265,204.714905 117.198853,202.969452   C117.010025,200.320145 117.060921,197.646790 117.145218,194.987930   C117.187981,193.639313 117.518768,192.108612 119.257767,192.130096   C121.303101,192.155350 121.504715,193.856674 121.451317,195.390701   C121.341812,198.536819 121.093094,201.678070 120.627884,205.135712  z"></path>
<path fill="#000000" opacity="1.000000" stroke="none" d=" M166.968414,201.630737   C166.627304,203.601181 166.946106,205.840958 164.666595,205.768707   C162.348694,205.695251 162.790283,203.499619 162.722977,201.942169   C162.637985,199.975861 162.623016,198.001831 162.691360,196.035065   C162.746124,194.458984 162.407288,192.283203 164.711884,192.233154   C167.361664,192.175629 166.964355,194.545837 167.049149,196.266312   C167.129791,197.902130 167.017929,199.547424 166.968414,201.630737  z"></path>
</svg>
