<?xml version="1.0" encoding="UTF-8"?>
<svg xmlns="http://www.w3.org/2000/svg" width="315" height="73" viewBox="0 0 315 73" fill="none">
  <path d="M40.1803 41.3591L33.4032 70L26.6262 57.7253L35.4885 43.9163L33.4032 41.3591L22.977 54.1452L21.4131 47.4965C26.9737 42.0411 38.1993 30.7211 38.6164 29.0845C39.0334 27.4478 38.4426 26.3568 38.0951 26.0158L30.2754 20.9014C32.3606 17.3213 40.8393 5.01143 41.3606 4.49998C41.8819 3.98854 48.8699 8.35074 52.1705 10.6725C53.7146 11.7587 53.3695 15.9947 54.2557 16.8098L71.9803 13.2297L75.6295 20.3899L68.3311 19.367L63.118 32.6646L40.1803 41.3591Z" fill="#189C8F" stroke="#189C8F" stroke-width="2"></path>
  <path d="M25.5049 18.7752L3 8.27515C9.64918 6.27516 23.7659 2.07516 27.0393 1.27516C30.3128 0.475156 35.5639 1.60849 37.2689 2.27516L25.5049 18.7752Z" fill="#119587" stroke="#189C8F" stroke-width="2"></path>
  <path d="M57.2163 34L53.1245 12L45.9639 23L57.2163 34Z" fill="#057C6D" stroke="#057C6D"></path>
  <path d="M98.201 45L94.505 38.472H92.921V45H89.561V28.248H95.849C97.145 28.248 98.249 28.48 99.161 28.944C100.073 29.392 100.753 30.008 101.201 30.792C101.665 31.56 101.897 32.424 101.897 33.384C101.897 34.488 101.577 35.488 100.937 36.384C100.297 37.264 99.345 37.872 98.081 38.208L102.089 45H98.201ZM92.921 35.952H95.729C96.641 35.952 97.321 35.736 97.769 35.304C98.217 34.856 98.441 34.24 98.441 33.456C98.441 32.688 98.217 32.096 97.769 31.68C97.321 31.248 96.641 31.032 95.729 31.032H92.921V35.952ZM110.84 45.216C109.56 45.216 108.408 44.936 107.384 44.376C106.36 43.8 105.552 42.992 104.96 41.952C104.384 40.912 104.096 39.712 104.096 38.352C104.096 36.992 104.392 35.792 104.984 34.752C105.592 33.712 106.416 32.912 107.456 32.352C108.496 31.776 109.656 31.488 110.936 31.488C112.216 31.488 113.376 31.776 114.416 32.352C115.456 32.912 116.272 33.712 116.864 34.752C117.472 35.792 117.776 36.992 117.776 38.352C117.776 39.712 117.464 40.912 116.84 41.952C116.232 42.992 115.4 43.8 114.344 44.376C113.304 44.936 112.136 45.216 110.84 45.216ZM110.84 42.288C111.448 42.288 112.016 42.144 112.544 41.856C113.088 41.552 113.52 41.104 113.84 40.512C114.16 39.92 114.32 39.2 114.32 38.352C114.32 37.088 113.984 36.12 113.312 35.448C112.656 34.76 111.848 34.416 110.888 34.416C109.928 34.416 109.12 34.76 108.464 35.448C107.824 36.12 107.504 37.088 107.504 38.352C107.504 39.616 107.816 40.592 108.44 41.28C109.08 41.952 109.88 42.288 110.84 42.288ZM119.377 38.352C119.377 36.976 119.657 35.776 120.217 34.752C120.777 33.712 121.553 32.912 122.545 32.352C123.537 31.776 124.673 31.488 125.953 31.488C127.601 31.488 128.961 31.904 130.033 32.736C131.121 33.552 131.849 34.704 132.217 36.192H128.593C128.401 35.616 128.073 35.168 127.609 34.848C127.161 34.512 126.601 34.344 125.929 34.344C124.969 34.344 124.209 34.696 123.649 35.4C123.089 36.088 122.809 37.072 122.809 38.352C122.809 39.616 123.089 40.6 123.649 41.304C124.209 41.992 124.969 42.336 125.929 42.336C127.289 42.336 128.177 41.728 128.593 40.512H132.217C131.849 41.952 131.121 43.096 130.033 43.944C128.945 44.792 127.585 45.216 125.953 45.216C124.673 45.216 123.537 44.936 122.545 44.376C121.553 43.8 120.777 43 120.217 41.976C119.657 40.936 119.377 39.728 119.377 38.352ZM142.55 45L138.038 39.336V45H134.678V27.24H138.038V37.344L142.502 31.704H146.87L141.014 38.376L146.918 45H142.55Z" fill="#0C3F3A"></path>
  <path d="M154.55 28.248C156.31 28.248 157.854 28.592 159.182 29.28C160.526 29.968 161.558 30.952 162.278 32.232C163.014 33.496 163.382 34.968 163.382 36.648C163.382 38.328 163.014 39.8 162.278 41.064C161.558 42.312 160.526 43.28 159.182 43.968C157.854 44.656 156.31 45 154.55 45H148.694V28.248H154.55ZM154.43 42.144C156.19 42.144 157.55 41.664 158.51 40.704C159.47 39.744 159.95 38.392 159.95 36.648C159.95 34.904 159.47 33.544 158.51 32.568C157.55 31.576 156.19 31.08 154.43 31.08H152.054V42.144H154.43Z" fill="#1EC9BB"></path>
  <path d="M171.801 45.216C170.521 45.216 169.369 44.936 168.345 44.376C167.321 43.8 166.513 42.992 165.921 41.952C165.345 40.912 165.057 39.712 165.057 38.352C165.057 36.992 165.353 35.792 165.945 34.752C166.553 33.712 167.377 32.912 168.417 32.352C169.457 31.776 170.617 31.488 171.897 31.488C173.177 31.488 174.337 31.776 175.377 32.352C176.417 32.912 177.233 33.712 177.825 34.752C178.433 35.792 178.737 36.992 178.737 38.352C178.737 39.712 178.425 40.912 177.801 41.952C177.193 42.992 176.361 43.8 175.305 44.376C174.265 44.936 173.097 45.216 171.801 45.216ZM171.801 42.288C172.409 42.288 172.977 42.144 173.505 41.856C174.049 41.552 174.481 41.104 174.801 40.512C175.121 39.92 175.281 39.2 175.281 38.352C175.281 37.088 174.945 36.12 174.273 35.448C173.617 34.76 172.809 34.416 171.849 34.416C170.889 34.416 170.081 34.76 169.425 35.448C168.785 36.12 168.465 37.088 168.465 38.352C168.465 39.616 168.777 40.592 169.401 41.28C170.041 41.952 170.841 42.288 171.801 42.288ZM186.746 41.904L190.106 31.704H193.682L188.762 45H184.682L179.786 31.704H183.386L186.746 41.904ZM207.929 38.064C207.929 38.544 207.897 38.976 207.833 39.36H198.113C198.193 40.32 198.529 41.072 199.121 41.616C199.713 42.16 200.441 42.432 201.305 42.432C202.553 42.432 203.441 41.896 203.969 40.824H207.593C207.209 42.104 206.473 43.16 205.385 43.992C204.297 44.808 202.961 45.216 201.377 45.216C200.097 45.216 198.945 44.936 197.921 44.376C196.913 43.8 196.121 42.992 195.545 41.952C194.985 40.912 194.705 39.712 194.705 38.352C194.705 36.976 194.985 35.768 195.545 34.728C196.105 33.688 196.889 32.888 197.897 32.328C198.905 31.768 200.065 31.488 201.377 31.488C202.641 31.488 203.769 31.76 204.761 32.304C205.769 32.848 206.545 33.624 207.089 34.632C207.649 35.624 207.929 36.768 207.929 38.064ZM204.449 37.104C204.433 36.24 204.121 35.552 203.513 35.04C202.905 34.512 202.161 34.248 201.281 34.248C200.449 34.248 199.745 34.504 199.169 35.016C198.609 35.512 198.265 36.208 198.137 37.104H204.449Z" fill="#20B3A7"></path>
  <path d="M226.372 41.808H219.7L218.596 45H215.068L221.092 28.224H225.004L231.028 45H227.476L226.372 41.808ZM225.46 39.12L223.036 32.112L220.612 39.12H225.46ZM238.824 41.904L242.184 31.704H245.76L240.84 45H236.76L231.864 31.704H235.464L238.824 41.904ZM249.351 30.12C248.759 30.12 248.263 29.936 247.863 29.568C247.479 29.184 247.287 28.712 247.287 28.152C247.287 27.592 247.479 27.128 247.863 26.76C248.263 26.376 248.759 26.184 249.351 26.184C249.943 26.184 250.431 26.376 250.815 26.76C251.215 27.128 251.415 27.592 251.415 28.152C251.415 28.712 251.215 29.184 250.815 29.568C250.431 29.936 249.943 30.12 249.351 30.12ZM251.007 31.704V45H247.647V31.704H251.007ZM253.463 38.304C253.463 36.96 253.727 35.768 254.255 34.728C254.799 33.688 255.527 32.888 256.439 32.328C257.367 31.768 258.399 31.488 259.535 31.488C260.527 31.488 261.391 31.688 262.127 32.088C262.879 32.488 263.479 32.992 263.927 33.6V31.704H267.311V45H263.927V43.056C263.495 43.68 262.895 44.2 262.127 44.616C261.375 45.016 260.503 45.216 259.511 45.216C258.391 45.216 257.367 44.928 256.439 44.352C255.527 43.776 254.799 42.968 254.255 41.928C253.727 40.872 253.463 39.664 253.463 38.304ZM263.927 38.352C263.927 37.536 263.767 36.84 263.447 36.264C263.127 35.672 262.695 35.224 262.151 34.92C261.607 34.6 261.023 34.44 260.399 34.44C259.775 34.44 259.199 34.592 258.671 34.896C258.143 35.2 257.711 35.648 257.375 36.24C257.055 36.816 256.895 37.504 256.895 38.304C256.895 39.104 257.055 39.808 257.375 40.416C257.711 41.008 258.143 41.464 258.671 41.784C259.215 42.104 259.791 42.264 260.399 42.264C261.023 42.264 261.607 42.112 262.151 41.808C262.695 41.488 263.127 41.04 263.447 40.464C263.767 39.872 263.927 39.168 263.927 38.352ZM274.504 34.464V40.896C274.504 41.344 274.608 41.672 274.816 41.88C275.04 42.072 275.408 42.168 275.92 42.168H277.48V45H275.368C272.536 45 271.12 43.624 271.12 40.872V34.464H269.536V31.704H271.12V28.416H274.504V31.704H277.48V34.464H274.504ZM281.601 30.12C281.009 30.12 280.513 29.936 280.113 29.568C279.729 29.184 279.537 28.712 279.537 28.152C279.537 27.592 279.729 27.128 280.113 26.76C280.513 26.376 281.009 26.184 281.601 26.184C282.193 26.184 282.681 26.376 283.065 26.76C283.465 27.128 283.665 27.592 283.665 28.152C283.665 28.712 283.465 29.184 283.065 29.568C282.681 29.936 282.193 30.12 281.601 30.12ZM283.257 31.704V45H279.897V31.704H283.257ZM292.481 45.216C291.201 45.216 290.049 44.936 289.025 44.376C288.001 43.8 287.193 42.992 286.601 41.952C286.025 40.912 285.737 39.712 285.737 38.352C285.737 36.992 286.033 35.792 286.625 34.752C287.233 33.712 288.057 32.912 289.097 32.352C290.137 31.776 291.297 31.488 292.577 31.488C293.857 31.488 295.017 31.776 296.057 32.352C297.097 32.912 297.913 33.712 298.505 34.752C299.113 35.792 299.417 36.992 299.417 38.352C299.417 39.712 299.105 40.912 298.481 41.952C297.873 42.992 297.041 43.8 295.985 44.376C294.945 44.936 293.777 45.216 292.481 45.216ZM292.481 42.288C293.089 42.288 293.657 42.144 294.185 41.856C294.729 41.552 295.161 41.104 295.481 40.512C295.801 39.92 295.961 39.2 295.961 38.352C295.961 37.088 295.625 36.12 294.953 35.448C294.297 34.76 293.489 34.416 292.529 34.416C291.569 34.416 290.761 34.76 290.105 35.448C289.465 36.12 289.145 37.088 289.145 38.352C289.145 39.616 289.457 40.592 290.081 41.28C290.721 41.952 291.521 42.288 292.481 42.288ZM309.249 31.512C310.833 31.512 312.113 32.016 313.089 33.024C314.065 34.016 314.553 35.408 314.553 37.2V45H311.193V37.656C311.193 36.6 310.929 35.792 310.401 35.232C309.873 34.656 309.153 34.368 308.241 34.368C307.313 34.368 306.577 34.656 306.033 35.232C305.505 35.792 305.241 36.6 305.241 37.656V45H301.881V31.704H305.241V33.36C305.689 32.784 306.257 32.336 306.945 32.016C307.649 31.68 308.417 31.512 309.249 31.512Z" fill="#26D6C8"></path>
</svg>
