<?xml version="1.0" encoding="UTF-8"?>
<svg xmlns="http://www.w3.org/2000/svg" width="181" height="25" viewBox="0 0 181 25" fill="none">
  <path d="M3.39876 6.9149C3.39876 7.72691 3.59628 8.45113 3.99131 9.08757C4.40828 9.70207 4.91305 10.2397 5.50559 10.7006C6.12009 11.1615 6.94307 11.7101 7.97454 12.3466C9.09379 13.0489 9.97164 13.6524 10.6081 14.1571C11.2665 14.6619 11.8151 15.2874 12.254 16.0335C12.7149 16.7578 12.9453 17.6137 12.9453 18.6012C12.9453 19.7205 12.6491 20.719 12.0565 21.5969C11.4859 22.4747 10.6629 23.166 9.58758 23.6708C8.53417 24.1536 7.32713 24.395 5.96646 24.395C5.04472 24.395 4.09006 24.2743 3.10249 24.0329C2.13685 23.7915 1.40166 23.4952 0.896896 23.1441C0.69938 23.0124 0.589649 22.8039 0.567703 22.5186L0.370187 17.5149V17.482C0.370187 17.3942 0.425053 17.3503 0.534784 17.3503C0.644514 17.3284 0.710353 17.3613 0.732299 17.4491C1.45652 19.2706 2.2795 20.7629 3.20124 21.9261C4.14493 23.0892 5.341 23.6708 6.78944 23.6708C7.73313 23.6708 8.52319 23.4184 9.15963 22.9137C9.79607 22.387 10.1143 21.5201 10.1143 20.313C10.1143 19.3474 9.89483 18.5025 9.45591 17.7783C9.03893 17.054 8.51222 16.4505 7.87578 15.9677C7.26129 15.4849 6.41636 14.8923 5.341 14.1901C4.28758 13.5097 3.4646 12.9391 2.87205 12.4783C2.2795 11.9954 1.77474 11.4139 1.35777 10.7335C0.940788 10.0313 0.732299 9.21925 0.732299 8.29751C0.732299 7.15631 1.05052 6.19068 1.68696 5.40061C2.3234 4.61055 3.14638 4.02898 4.1559 3.65589C5.18737 3.26086 6.26274 3.06335 7.38199 3.06335C8.12816 3.06335 8.87433 3.14016 9.6205 3.29378C10.3667 3.42546 10.9921 3.60103 11.4969 3.82049C11.6944 3.88633 11.8261 3.97411 11.8919 4.08384C11.9578 4.17163 11.9907 4.29233 11.9907 4.44595L12.0894 8.92298C12.0894 8.98881 12.0236 9.04368 11.8919 9.08757C11.7822 9.10952 11.7164 9.0766 11.6944 8.98881C11.2555 7.6501 10.6629 6.44306 9.91677 5.36769C9.19255 4.27039 8.09524 3.72173 6.62485 3.72173C5.63727 3.72173 4.84721 4.00703 4.25466 4.57763C3.68406 5.14823 3.39876 5.92732 3.39876 6.9149ZM30.5847 21.9261C30.6725 21.9261 30.7383 21.981 30.7822 22.0907C30.848 22.1785 30.848 22.2443 30.7822 22.2882L26.4698 24.3621C26.4259 24.3841 26.371 24.395 26.3052 24.395C26.1077 24.395 25.9211 24.1756 25.7455 23.7366C25.5919 23.2977 25.4932 22.7271 25.4493 22.0248C24.7031 22.7491 23.946 23.3306 23.1778 23.7696C22.4097 24.1865 21.5648 24.395 20.6431 24.395C19.7652 24.395 18.9532 24.1756 18.207 23.7366C17.4609 23.2758 16.8683 22.6174 16.4294 21.7615C15.9905 20.8836 15.771 19.8412 15.771 18.6342C15.771 17.076 16.1331 15.7153 16.8573 14.5522C17.6035 13.3671 18.5582 12.4673 19.7213 11.8528C20.9064 11.2164 22.1354 10.8981 23.4083 10.8981C24.6373 10.8981 25.7016 11.1944 26.6014 11.787C27.0623 11.5675 27.4464 11.2822 27.7536 10.9311C27.7756 10.9091 27.8085 10.8981 27.8524 10.8981C27.8963 10.8981 27.9402 10.9201 27.9841 10.964C28.0499 10.9859 28.0828 11.0188 28.0828 11.0627V20.4447C28.0828 21.1251 28.1596 21.6079 28.3132 21.8932C28.4669 22.1785 28.7192 22.3211 29.0704 22.3211C29.4435 22.3211 29.9373 22.1894 30.5518 21.9261H30.5847ZM22.1573 22.8807C23.123 22.8807 24.2093 22.4089 25.4163 21.4652V21.3335V14.4534C25.4163 13.6195 25.142 12.9282 24.5934 12.3795C24.0447 11.8308 23.3644 11.5565 22.5524 11.5565C21.4112 11.5565 20.4894 12.1161 19.7872 13.2354C19.1068 14.3547 18.7667 15.8031 18.7667 17.5807C18.7667 19.2267 19.0629 20.5215 19.6555 21.4652C20.27 22.4089 21.1039 22.8807 22.1573 22.8807ZM38.493 24.395C37.0665 24.395 35.8485 24.0878 34.839 23.4733C33.8514 22.8369 33.1162 22.0248 32.6334 21.0373C32.1506 20.0277 31.9092 18.9743 31.9092 17.877C31.9092 16.4944 32.2822 15.2874 33.0284 14.2559C33.7746 13.2025 34.7292 12.4014 35.8924 11.8528C37.0775 11.2822 38.2735 10.9969 39.4806 10.9969C40.5121 10.9969 41.4448 11.2054 42.2787 11.6224C43.1127 12.0393 43.5297 12.599 43.5297 13.3012C43.5297 13.6743 43.387 14.0035 43.1017 14.2888C42.8164 14.5522 42.4214 14.6838 41.9166 14.6838C41.0827 14.6838 40.4791 14.1901 40.1061 13.2025C39.8866 12.6538 39.6562 12.2698 39.4148 12.0503C39.1733 11.8089 38.7893 11.6882 38.2626 11.6882C37.2311 11.6882 36.4081 12.16 35.7936 13.1037C35.2011 14.0255 34.9048 15.2654 34.9048 16.8236C34.9048 18.6451 35.3218 20.1265 36.1557 21.2677C37.0116 22.387 38.3394 22.9466 40.139 22.9466C40.7535 22.9466 41.3021 22.8698 41.7849 22.7161C42.2678 22.5625 42.7945 22.3211 43.3651 21.9919H43.398C43.4638 21.9919 43.5187 22.0248 43.5626 22.0907C43.6284 22.1565 43.6394 22.2114 43.5955 22.2553C42.7835 22.9795 41.9825 23.5172 41.1924 23.8683C40.4023 24.2195 39.5025 24.395 38.493 24.395ZM60.6451 23.605C60.7329 23.605 60.7768 23.6708 60.7768 23.8025C60.7768 23.9342 60.7329 24 60.6451 24C60.0965 24 59.6575 23.989 59.3283 23.9671L57.4519 23.9342L55.5755 23.9671C55.2463 23.989 54.8074 24 54.2588 24C54.1929 24 54.16 23.9342 54.16 23.8025C54.16 23.6708 54.1929 23.605 54.2588 23.605C54.983 23.605 55.4768 23.4513 55.7401 23.1441C56.0035 22.8149 56.1352 22.2114 56.1352 21.3335V16.4286C56.1352 14.0145 55.1915 12.8074 53.3041 12.8074C52.7116 12.8074 52.108 12.9501 51.4936 13.2354C50.901 13.4988 50.3743 13.8609 49.9134 14.3217V21.3335C49.9134 22.2333 50.0341 22.8369 50.2755 23.1441C50.5389 23.4513 51.0437 23.605 51.7898 23.605C51.8776 23.605 51.9215 23.6708 51.9215 23.8025C51.9215 23.9342 51.8776 24 51.7898 24C51.2412 24 50.8022 23.989 50.4731 23.9671L48.5967 23.9342L46.7203 23.9671C46.3911 23.989 45.9521 24 45.4035 24C45.3376 24 45.3047 23.9342 45.3047 23.8025C45.3047 23.6708 45.3376 23.605 45.4035 23.605C46.1277 23.605 46.6215 23.4513 46.8849 23.1441C47.1482 22.8149 47.2799 22.2114 47.2799 21.3335V4.51179C47.2799 3.74368 47.2031 3.19502 47.0494 2.86583C46.8958 2.51469 46.6434 2.33912 46.2923 2.33912C45.9631 2.33912 45.5132 2.4708 44.9426 2.73415H44.9097C44.8439 2.73415 44.778 2.67929 44.7122 2.56956C44.6683 2.43788 44.6793 2.36107 44.7451 2.33912L49.3209 0.16645L49.4855 0.133532C49.5733 0.133532 49.661 0.177424 49.7488 0.265209C49.8586 0.352994 49.9134 0.429805 49.9134 0.495643V13.6634C51.4936 11.8418 53.1724 10.9311 54.9501 10.9311C56.1571 10.9311 57.0898 11.2932 57.7482 12.0174C58.4285 12.7416 58.7687 13.7292 58.7687 14.9801V21.3335C58.7687 22.2333 58.8894 22.8369 59.1308 23.1441C59.3942 23.4513 59.8989 23.605 60.6451 23.605ZM65.7759 7.50745C65.2053 7.50745 64.7554 7.35382 64.4262 7.04658C64.1189 6.73933 63.9653 6.30041 63.9653 5.72981C63.9653 5.18115 64.1189 4.76417 64.4262 4.47887C64.7554 4.17163 65.2053 4.018 65.7759 4.018C66.3245 4.018 66.7525 4.17163 67.0597 4.47887C67.367 4.76417 67.5206 5.18115 67.5206 5.72981C67.5206 6.30041 67.367 6.73933 67.0597 7.04658C66.7744 7.35382 66.3465 7.50745 65.7759 7.50745ZM62.7473 24C62.6815 24 62.6486 23.9342 62.6486 23.8025C62.6486 23.6708 62.6815 23.605 62.7473 23.605C63.4935 23.605 63.9873 23.4513 64.2287 23.1441C64.4701 22.8369 64.5908 22.2333 64.5908 21.3335V15.3422C64.5908 14.5961 64.514 14.0584 64.3604 13.7292C64.2067 13.378 63.9434 13.2025 63.5703 13.2025C63.2411 13.2025 62.8131 13.3342 62.2864 13.5975H62.2535C62.1657 13.5975 62.0999 13.5426 62.056 13.4329C62.0121 13.3232 62.0231 13.2464 62.0889 13.2025L66.8293 10.9969L66.9281 10.964C67.0158 10.964 67.1036 11.0188 67.1914 11.1286C67.3011 11.2164 67.356 11.2932 67.356 11.359V12.0503C67.3121 12.972 67.2902 14.0584 67.2902 15.3093V21.3335C67.2902 22.2333 67.4109 22.8369 67.6523 23.1441C67.9156 23.4513 68.4204 23.605 69.1666 23.605C69.2324 23.605 69.2653 23.6708 69.2653 23.8025C69.2653 23.9342 69.2324 24 69.1666 24C68.6179 24 68.179 23.989 67.8498 23.9671L65.9405 23.9342L64.0312 23.9671C63.7239 23.989 63.296 24 62.7473 24ZM86.6344 23.605C86.7002 23.605 86.7331 23.6708 86.7331 23.8025C86.7331 23.9342 86.7002 24 86.6344 24C86.0857 24 85.6578 23.989 85.3505 23.9671L83.4412 23.9342L81.5648 23.9671C81.2356 23.989 80.7967 24 80.248 24C80.1822 24 80.1493 23.9342 80.1493 23.8025C80.1493 23.6708 80.1822 23.605 80.248 23.605C80.9942 23.605 81.488 23.4513 81.7294 23.1441C81.9708 22.8369 82.0915 22.2333 82.0915 21.3335V16.3956C82.0915 15.1667 81.8611 14.2669 81.4002 13.6963C80.9613 13.1037 80.259 12.8074 79.2934 12.8074C78.7228 12.8074 78.1412 12.9391 77.5486 13.2025C76.9561 13.4658 76.4184 13.817 75.9356 14.2559V21.3335C75.9356 22.2333 76.0563 22.8369 76.2977 23.1441C76.5391 23.4513 77.0329 23.605 77.7791 23.605C77.8449 23.605 77.8778 23.6708 77.8778 23.8025C77.8778 23.9342 77.8449 24 77.7791 24C77.2304 24 76.8025 23.989 76.4952 23.9671L74.5859 23.9342L72.6766 23.9671C72.3693 23.989 71.9414 24 71.3927 24C71.3269 24 71.294 23.9342 71.294 23.8025C71.294 23.6708 71.3269 23.605 71.3927 23.605C72.1389 23.605 72.6327 23.4513 72.8741 23.1441C73.1155 22.8369 73.2362 22.2333 73.2362 21.3335V15.046C73.2362 14.3437 73.1484 13.8279 72.9729 13.4988C72.8192 13.1696 72.5559 13.005 72.1828 13.005C71.8536 13.005 71.305 13.1696 70.5368 13.4988H70.5039C70.4161 13.4988 70.3503 13.4439 70.3064 13.3342C70.2625 13.2244 70.2735 13.1586 70.3393 13.1366L74.6517 11.0298C74.7834 10.9859 74.8602 10.964 74.8822 10.964C75.1016 10.964 75.3211 11.2164 75.5406 11.7211C75.782 12.2039 75.9136 12.8404 75.9356 13.6304C77.4718 11.8089 79.1397 10.8981 80.9393 10.8981C82.1464 10.8981 83.09 11.2712 83.7704 12.0174C84.4507 12.7416 84.7909 13.7292 84.7909 14.9801V21.3335C84.7909 22.2333 84.9116 22.8369 85.153 23.1441C85.3944 23.4513 85.8882 23.605 86.6344 23.605ZM94.1214 21.2019C94.1214 21.9041 94.1982 22.4199 94.3519 22.7491C94.5274 23.0563 94.8456 23.2758 95.3065 23.4075C95.7893 23.5391 96.5355 23.605 97.545 23.605C97.6109 23.605 97.6438 23.6708 97.6438 23.8025C97.6438 23.9342 97.6109 24 97.545 24C96.6452 24 95.943 23.989 95.4382 23.9671L92.5742 23.9342L90.204 23.9671C89.7871 23.989 89.2165 24 88.4922 24C88.4264 24 88.3935 23.9342 88.3935 23.8025C88.3935 23.6708 88.4264 23.605 88.4922 23.605C89.2384 23.605 89.7761 23.5501 90.1053 23.4404C90.4345 23.3306 90.6539 23.1222 90.7637 22.8149C90.8953 22.5077 90.9612 22.0139 90.9612 21.3335V6.09192C90.9612 5.43353 90.8953 4.95072 90.7637 4.64347C90.6539 4.33622 90.4235 4.12773 90.0724 4.018C89.7432 3.88633 89.2165 3.82049 88.4922 3.82049C88.4264 3.82049 88.3935 3.75465 88.3935 3.62297C88.3935 3.4913 88.4264 3.42546 88.4922 3.42546L90.204 3.45838C91.1697 3.50227 91.9488 3.52422 92.5413 3.52422C93.0461 3.52422 93.6606 3.4913 94.3848 3.42546C94.6481 3.40351 94.9993 3.38157 95.4382 3.35962C95.8991 3.33767 96.4367 3.3267 97.0512 3.3267C99.2239 3.3267 100.936 3.78757 102.187 4.70931C103.46 5.63105 104.096 7.04658 104.096 8.95589C104.096 10.3385 103.734 11.5126 103.01 12.4783C102.307 13.4439 101.397 14.1681 100.277 14.6509C99.18 15.1337 98.0498 15.3752 96.8866 15.3752C96.2721 15.3752 95.7564 15.3203 95.3394 15.2106C95.2736 15.2106 95.2407 15.1557 95.2407 15.046C95.2407 14.9801 95.2517 14.9143 95.2736 14.8484C95.3175 14.7826 95.3614 14.7607 95.4053 14.7826C95.7564 14.8704 96.1405 14.9143 96.5574 14.9143C97.6987 14.9143 98.6643 14.4424 99.4543 13.4988C100.244 12.5551 100.639 11.2054 100.639 9.44968C100.639 7.71594 100.233 6.37722 99.4214 5.43353C98.6094 4.4679 97.4902 3.98509 96.0637 3.98509C95.537 3.98509 95.1309 4.03995 94.8456 4.14968C94.5823 4.25941 94.3958 4.4679 94.286 4.77515C94.1763 5.06045 94.1214 5.52132 94.1214 6.15776V21.2019ZM114.664 10.964C115.168 10.964 115.651 11.1286 116.112 11.4578C116.573 11.787 116.803 12.182 116.803 12.6429C116.803 13.0598 116.672 13.4 116.408 13.6634C116.167 13.9267 115.827 14.0584 115.388 14.0584C115.102 14.0584 114.861 14.0035 114.664 13.8938C114.488 13.7621 114.301 13.5865 114.104 13.3671C113.906 13.1696 113.731 13.0269 113.577 12.9391C113.424 12.8294 113.237 12.7745 113.018 12.7745C112.776 12.7745 112.513 12.8733 112.228 13.0708C111.964 13.2464 111.547 13.6304 110.977 14.223V21.3335C110.977 21.948 111.064 22.4199 111.24 22.7491C111.416 23.0563 111.712 23.2758 112.129 23.4075C112.546 23.5391 113.16 23.605 113.972 23.605C114.06 23.605 114.104 23.6708 114.104 23.8025C114.104 23.9342 114.06 24 113.972 24C113.248 24 112.666 23.989 112.228 23.9671L109.627 23.9342L107.718 23.9671C107.41 23.989 106.982 24 106.434 24C106.368 24 106.335 23.9342 106.335 23.8025C106.335 23.6708 106.368 23.605 106.434 23.605C107.18 23.605 107.674 23.4513 107.915 23.1441C108.157 22.8369 108.277 22.2333 108.277 21.3335V15.046C108.277 14.3437 108.189 13.8279 108.014 13.4988C107.86 13.1696 107.597 13.005 107.224 13.005C106.895 13.005 106.346 13.1696 105.578 13.4988H105.545C105.457 13.4988 105.391 13.4439 105.347 13.3342C105.304 13.2244 105.314 13.1586 105.38 13.1366L109.693 11.0298C109.824 10.9859 109.901 10.964 109.923 10.964C110.143 10.964 110.362 11.2054 110.582 11.6882C110.801 12.1491 110.933 12.7636 110.977 13.5317C111.833 12.566 112.546 11.8967 113.116 11.5236C113.687 11.1505 114.203 10.964 114.664 10.964ZM132.911 21.9261C132.999 21.9261 133.064 21.981 133.108 22.0907C133.174 22.1785 133.174 22.2443 133.108 22.2882L128.796 24.3621C128.752 24.3841 128.697 24.395 128.631 24.395C128.434 24.395 128.247 24.1756 128.072 23.7366C127.918 23.2977 127.819 22.7271 127.775 22.0248C127.029 22.7491 126.272 23.3306 125.504 23.7696C124.736 24.1865 123.891 24.395 122.969 24.395C122.091 24.395 121.279 24.1756 120.533 23.7366C119.787 23.2758 119.195 22.6174 118.756 21.7615C118.317 20.8836 118.097 19.8412 118.097 18.6342C118.097 17.076 118.459 15.7153 119.184 14.5522C119.93 13.3671 120.884 12.4673 122.048 11.8528C123.233 11.2164 124.462 10.8981 125.734 10.8981C126.963 10.8981 128.028 11.1944 128.928 11.787C129.389 11.5675 129.773 11.2822 130.08 10.9311C130.102 10.9091 130.135 10.8981 130.179 10.8981C130.222 10.8981 130.266 10.9201 130.31 10.964C130.376 10.9859 130.409 11.0188 130.409 11.0627V20.4447C130.409 21.1251 130.486 21.6079 130.639 21.8932C130.793 22.1785 131.045 22.3211 131.397 22.3211C131.77 22.3211 132.263 22.1894 132.878 21.9261H132.911ZM124.484 22.8807C125.449 22.8807 126.536 22.4089 127.743 21.4652V21.3335V14.4534C127.743 13.6195 127.468 12.9282 126.92 12.3795C126.371 11.8308 125.691 11.5565 124.879 11.5565C123.737 11.5565 122.816 12.1161 122.113 13.2354C121.433 14.3547 121.093 15.8031 121.093 17.5807C121.093 19.2267 121.389 20.5215 121.982 21.4652C122.596 22.4089 123.43 22.8807 124.484 22.8807ZM149.74 23.605C149.806 23.605 149.839 23.6708 149.839 23.8025C149.839 23.9342 149.806 24 149.74 24C149.192 24 148.764 23.989 148.456 23.9671L146.547 23.9342L144.671 23.9671C144.342 23.989 143.903 24 143.354 24C143.288 24 143.255 23.9342 143.255 23.8025C143.255 23.6708 143.288 23.605 143.354 23.605C144.1 23.605 144.594 23.4513 144.835 23.1441C145.077 22.8369 145.197 22.2333 145.197 21.3335V16.3956C145.197 15.1667 144.967 14.2669 144.506 13.6963C144.067 13.1037 143.365 12.8074 142.399 12.8074C141.829 12.8074 141.247 12.9391 140.655 13.2025C140.062 13.4658 139.524 13.817 139.042 14.2559V21.3335C139.042 22.2333 139.162 22.8369 139.404 23.1441C139.645 23.4513 140.139 23.605 140.885 23.605C140.951 23.605 140.984 23.6708 140.984 23.8025C140.984 23.9342 140.951 24 140.885 24C140.336 24 139.908 23.989 139.601 23.9671L137.692 23.9342L135.783 23.9671C135.475 23.989 135.047 24 134.499 24C134.433 24 134.4 23.9342 134.4 23.8025C134.4 23.6708 134.433 23.605 134.499 23.605C135.245 23.605 135.739 23.4513 135.98 23.1441C136.221 22.8369 136.342 22.2333 136.342 21.3335V15.046C136.342 14.3437 136.254 13.8279 136.079 13.4988C135.925 13.1696 135.662 13.005 135.289 13.005C134.96 13.005 134.411 13.1696 133.643 13.4988H133.61C133.522 13.4988 133.456 13.4439 133.412 13.3342C133.368 13.2244 133.379 13.1586 133.445 13.1366L137.758 11.0298C137.889 10.9859 137.966 10.964 137.988 10.964C138.208 10.964 138.427 11.2164 138.647 11.7211C138.888 12.2039 139.02 12.8404 139.042 13.6304C140.578 11.8089 142.246 10.8981 144.045 10.8981C145.252 10.8981 146.196 11.2712 146.876 12.0174C147.557 12.7416 147.897 13.7292 147.897 14.9801V21.3335C147.897 22.2333 148.018 22.8369 148.259 23.1441C148.5 23.4513 148.994 23.605 149.74 23.605ZM166.28 21.9261C166.368 21.9261 166.434 21.981 166.478 22.0907C166.544 22.1785 166.544 22.2443 166.478 22.2882L162.165 24.3621C162.121 24.3841 162.067 24.395 162.001 24.395C161.803 24.395 161.617 24.1756 161.441 23.7366C161.287 23.2977 161.189 22.7271 161.145 22.0248C160.399 22.7491 159.641 23.3306 158.873 23.7696C158.105 24.1865 157.26 24.395 156.339 24.395C155.461 24.395 154.649 24.1756 153.903 23.7366C153.156 23.2758 152.564 22.6174 152.125 21.7615C151.686 20.8836 151.467 19.8412 151.467 18.6342C151.467 17.076 151.829 15.7153 152.553 14.5522C153.299 13.3671 154.254 12.4673 155.417 11.8528C156.602 11.2164 157.831 10.8981 159.104 10.8981C160.333 10.8981 161.397 11.1944 162.297 11.787C162.758 11.5675 163.142 11.2822 163.449 10.9311C163.471 10.9091 163.504 10.8981 163.548 10.8981C163.592 10.8981 163.636 10.9201 163.68 10.964C163.745 10.9859 163.778 11.0188 163.778 11.0627V20.4447C163.778 21.1251 163.855 21.6079 164.009 21.8932C164.162 22.1785 164.415 22.3211 164.766 22.3211C165.139 22.3211 165.633 22.1894 166.247 21.9261H166.28ZM157.853 22.8807C158.818 22.8807 159.905 22.4089 161.112 21.4652V21.3335V14.4534C161.112 13.6195 160.838 12.9282 160.289 12.3795C159.74 11.8308 159.06 11.5565 158.248 11.5565C157.107 11.5565 156.185 12.1161 155.483 13.2354C154.802 14.3547 154.462 15.8031 154.462 17.5807C154.462 19.2267 154.758 20.5215 155.351 21.4652C155.965 22.4089 156.799 22.8807 157.853 22.8807ZM180.815 11.2932C180.858 11.2932 180.88 11.359 180.88 11.4907C180.88 11.6224 180.858 11.6882 180.815 11.6882C180.2 11.6882 179.662 11.9077 179.202 12.3466C178.763 12.7855 178.335 13.4878 177.918 14.4534L173.836 24C173.792 24.1097 173.682 24.1646 173.506 24.1646C173.309 24.1646 173.177 24.1097 173.111 24L168.239 14.0255C167.779 13.0598 167.384 12.4344 167.054 12.1491C166.725 11.8418 166.319 11.6882 165.836 11.6882C165.77 11.6882 165.738 11.6224 165.738 11.4907C165.738 11.359 165.77 11.2932 165.836 11.2932C166.231 11.2932 166.55 11.3041 166.791 11.3261L168.7 11.359L171.136 11.3261C171.487 11.3041 171.97 11.2932 172.585 11.2932C172.651 11.2932 172.684 11.359 172.684 11.4907C172.684 11.6224 172.651 11.6882 172.585 11.6882C171.29 11.6882 170.643 11.9406 170.643 12.4453C170.643 12.577 170.697 12.7526 170.807 12.972L174.593 20.4118L177.095 14.3876C177.248 14.0145 177.325 13.6524 177.325 13.3012C177.325 12.7745 177.128 12.3795 176.733 12.1161C176.36 11.8308 175.8 11.6882 175.054 11.6882C175.01 11.6882 174.988 11.6224 174.988 11.4907C174.988 11.359 175.01 11.2932 175.054 11.2932C175.646 11.2932 176.096 11.3041 176.403 11.3261L178.379 11.359L179.662 11.3261C179.904 11.3041 180.288 11.2932 180.815 11.2932Z" fill="black"></path>
</svg>
